<?xml version="1.0" encoding="utf-8"?>
<!-- Generator: Adobe Illustrator 24.1.2, SVG Export Plug-In . SVG Version: 6.00 Build 0)  -->
<svg version="1.1" id="Layer_1" xmlns="http://www.w3.org/2000/svg" xmlns:xlink="http://www.w3.org/1999/xlink" x="0px" y="0px"
	 viewBox="0 0 214 177.8" style="enable-background:new 0 0 214 177.8;" xml:space="preserve">
<style type="text/css">
	.st0{fill:#FF0000;}
	.st1{fill:#FFFFFF;}
	.st2{fill-rule:evenodd;clip-rule:evenodd;fill:#222222;}
</style>
<desc>Created with Fabric.js 3.6.3</desc>
<g transform="matrix(0.8176854765397916 0 0 0.8176854765397916 253 235)">
	<g>
		
			<g transform="matrix(0.051115861350236796 -0.9986927298816305 0.9986927298816305 0.051115861350236796 -0.006247642608244064 0.003494473616129312)">
			<circle cx="174.3" cy="-185.7" r="103.2"/>
		</g>
		<g transform="matrix(1 0 0 1 -0.0049999999999954525 0.09499999999999886)">
			<circle class="st0" cx="-176.5" cy="-183.6" r="93.4"/>
		</g>
		<g transform="matrix(1 0 0 1 -0.0049999999999954525 0.09499999999999886)">
			<circle class="st1" cx="-176.5" cy="-183.6" r="82.3"/>
		</g>
	</g>
</g>
<g transform="matrix(0.7322221945174103 0 0 0.7322221945174103 253 229)">
	<g>
		<g transform="matrix(1 0 0 1 -24.29264089802966 -11.751916505607486)">
			<path d="M-208.5-215.8C-208.5-215.8-208.5-215.8-208.5-215.8c0.8,0.2,1.7,0.4,2.5,0.6c2.3-1.1,4.2-3.1,7-2.2
				c2.2,0.7,3.4,3.1,3.9,5.2c2.9,0.3,3.9,2.2,3.9,5.1c0.1,3,0.7,5.9,1.7,8.8c0.5,1.7,1.4,3.4,1.5,5.1c0.9,0.3,1.7,0.9,2.3,1.7
				c-0.5-2.2-1.3-4.2-2.4-6.2c-1.3-2.3-2-4.9-2-7.6c0.1-1.1,0.1-2.2,0.2-3.3c0.4-2.7-1.4-3.3-3.4-4.1c-0.2-0.1-0.4-0.2-0.5-0.4
				c-0.1-0.1-0.2-0.2-0.2-0.4c-0.8-2.2-1.8-4-4.2-4.6c-1.5-0.4-3.2-0.7-4.5,0.3c-1.5,1.1-2.9,2.2-4.6,1.5c-0.2,0.1-0.3,0.2-0.5,0.2
				C-208.2-216-208.3-215.9-208.5-215.8z"/>
		</g>
		<g transform="matrix(1 0 0 1 -17.143040928693615 2.7490265827337694)">
			<path d="M-193.8-203.5c0.7-1.5-0.7-2.7-2.1-3.2c-0.1,0-0.2,0-0.2-0.1c-0.1,0-0.3-0.1-0.4-0.1c-1.1-0.2-2.3-0.3-3.4-0.2l0,0
				c-0.2,0.2-0.5,0.3-0.7,0.5c2-0.1,4.4-0.3,5.6,1.1c0.6,0.6,0.9,1.5,0.8,2.4C-194-203.1-193.9-203.3-193.8-203.5z"/>
		</g>
		<g transform="matrix(1 0 0 1 -20.966500000000003 5.534999999999997)">
			<path d="M-195.8-204.5c-0.4-0.3-0.7-0.6-1-1c-0.5-0.6-0.9-1.2-1.4-1.9c-0.5,0.6-0.8,1.3-1.2,2c1.3,0.7,2.4,1.6,3.5,2.6
				c0.3-0.3,0.6-0.7,0.9-1C-195.3-203.9-195.5-204.2-195.8-204.5z"/>
		</g>
		<g transform="matrix(1 0 0 1 -15.132055308898117 -15.454204073902424)">
			<path d="M-196.6-210c-0.7-0.3-1.4-0.3-2.1,0c1.1,0.4,1.8,1.4,1.8,2.6c0.1,1.9-0.4,3.8-0.4,5.7c0,0.6,0,1.2,0.1,1.8
				c0.4-0.2,0.9-0.4,1.3-0.6c-0.1-1.9,0-3.7,0.2-5.6C-195.5-207.2-195.2-209.3-196.6-210z"/>
		</g>
		<g transform="matrix(1 0 0 1 -16.182 -23.772000000000006)">
			<path d="M-194.1-202c0,0.1,0.1,0.1,0.1,0.2c0.3-0.6,0.8-1,1.4-1.3c-0.6-1.1-1.1-2.2-1.5-3.3c-2.5-0.7-5-1.3-7.6-1.8
				c0.8,0.6,1.4,1.4,1.8,2.2c0,0,0,0.1,0,0.1c0.6-0.1,1.2,0.1,1.7,0.6c0.6,0.6,0.8,1.5,0.6,2.3C-196.3-203.4-194.9-203-194.1-202z"
				/>
		</g>
		<g transform="matrix(1 0 0 1 -24.771 -25.96322111443727)">
			<path d="M-197.4-206.6c-1.2-0.3-4.1-1.3-4.4,0.4c0.1,0,0.2-0.1,0.3-0.1c1.4-0.3,2.8-0.2,4.2,0.3c1.7,0.5,3.2,1.6,4.2,3.1
				c0.2-0.2,0.5-0.3,0.7-0.5C-193.6-205.5-195.1-205.9-197.4-206.6z"/>
		</g>
		<g transform="matrix(1 0 0 1 -17.1365 9.704499999999989)">
			<path d="M-195.6-207.8c-0.4,0.2-0.8,0.4-1.3,0.5c-0.7,0.3-1.2,0.8-1.7,1.4c0,0,0,0,0,0c1,1.1,1.9,2.3,2.7,3.6
				C-196-204.1-195.7-205.9-195.6-207.8z"/>
		</g>
		<g transform="matrix(1 0 0 1 -18.946567025363564 -22.171578177635386)">
			<path d="M-198.3-205.6c0.2,0.4,0.4,0.9,0.7,1.5c0.4,0.1,0.8,0.2,1.2,0.4c0.4-0.6,0.9-1.7,0.2-2.2
				C-196.9-206.6-197.8-206.1-198.3-205.6z"/>
		</g>
		<g transform="matrix(1 0 0 1 -17.953477386613464 5.070081938907613)">
			<path d="M-196.9-204.1C-196.9-204.1-196.9-204.1-196.9-204.1c0.1,0,0.2-0.1,0.3-0.1c0.5-0.2,0.5-1.1,0.2-1.5
				c-0.3-0.5-1.2-0.3-1.5,0.1c-0.1,0.2-0.1,0.5,0.1,0.7C-197.5-204.6-197.2-204.3-196.9-204.1z"/>
		</g>
		<g transform="matrix(1 0 0 1 -34.1235 -27.73)">
			<path d="M-197.6-205c1.2-0.9,3-1.3,4.2-0.5c0.1-0.2,0.3-0.3,0.4-0.5c-0.2-0.1-0.3-0.1-0.5-0.2c-1.5-0.7-3.1-1.2-4.8-1.5
				c-1,0.9-2,1.7-3,2.6c0.6,1,1.4,1.8,2,2.7C-199.1-203.5-198.5-204.5-197.6-205z"/>
		</g>
		<g transform="matrix(1 0 0 1 -39.57377799622948 -20.43465156952524)">
			<path d="M-198.9-205c0,1.7,2.4,1.6,3.4,0.8C-194.8-206.6-198.8-207.2-198.9-205z"/>
		</g>
		<g transform="matrix(1 0 0 1 -5.3530000000000015 -16.382)">
			<path d="M-198.5-207.2c-0.1,0.1-0.3,0.1-0.4,0.2c1,1.4,2,2.8,3,4.2c0.2-0.2,0.3-0.3,0.4-0.5
				C-196.5-204.5-197.5-205.8-198.5-207.2z"/>
		</g>
		<g transform="matrix(1 0 0 1 -41.95200000000001 -18.526089091901227)">
			<path d="M-200.8-204.3c0.1,0.1,0.1,0.3,0.1,0.4c-0.1,0.6-0.7,1.9-0.5,2.5c0.4,0.8,0.9,1.5,1.5,2.2c1,1.3,1.9,2.9,3.6,2.7
				c0-0.4,0.1-0.8,0.2-1.1c-0.1,0-0.1,0.1-0.2,0.1c-0.1,0.1-0.2,0.1-0.3,0.1c0,0,0,0-0.1,0c-0.3,0.2-0.7,0.1-0.8-0.2
				c0-0.1-0.1-0.1-0.1-0.2c-1.5-0.9-2.4-2.8-3.1-4.4c0-0.1-0.1-0.2,0-0.4c-0.1-0.2,0-0.5,0.1-0.7c0.5-0.4,1.1-0.8,1.7-1
				c0.1,0,0.2-0.1,0.3-0.1c0.2-0.1,0.4,0,0.5,0.2c1.1,1.1,2,2.3,3,3.5c1.1-0.6,1.9-0.7,2-2.3c0-0.6,0-1.2,0-1.8
				c-1,0.5-2.1,0.6-3.1,0.2c-1.3-0.4-2-1.8-1.6-3.1c0-0.1,0.1-0.1,0.1-0.2c0.6-1.4,2.2-2.1,3.7-1.5c0.4,0.1,0.7,0.3,1,0.6
				c0-0.2,0-0.4,0-0.5c0,0,0,0,0-0.1c0-0.3,0.1-0.6,0.3-0.8c0.1-0.1,0.2-0.2,0.3-0.3c-0.7-1-1.4-2-2.1-2.9c-2.7,2.3-5.2,4.7-7.6,7.3
				C-201.6-205.6-201.3-205-200.8-204.3C-200.8-204.4-200.8-204.3-200.8-204.3z"/>
		</g>
		<g transform="matrix(1 0 0 1 -18.157235503040095 4.0638423632489875)">
			<path d="M-194.7-205.5c-0.5-0.6-1.3-1-2.1-1c-1.1-0.1-2.1-0.1-3.2,0c0.3,0.5,0.7,0.9,1.1,1.4c0.1-0.3,0.4-0.5,0.6-0.7
				c0.9-0.7,2.3-0.5,3,0.4c0.1,0.1,0.1,0.2,0.2,0.3c0.2,0.5,0.3,1.1,0.2,1.6C-194.2-204-194.2-204.9-194.7-205.5z"/>
		</g>
		<g transform="matrix(1 0 0 1 -13.030805946715457 -7.0246522370038385)">
			<path d="M-195.4-206.1c0-0.1-0.1-0.2-0.1-0.2c-1-1.6-2.2-1.1-3.4-0.2c0.3,1.1,0.7,2.1,1.2,3.1c0.1,0.3,0.3,0.5,0.4,0.8
				c0.4-0.3,0.8-0.7,1.2-1C-195.5-204.4-195.2-205.2-195.4-206.1z"/>
		</g>
		<g transform="matrix(1 0 0 1 -15.485424986726308 21.08455809184639)">
			<path d="M-198.5-202.7c1.7,0,4.6-1.1,3.3-3.3c-0.1-0.1-0.2-0.2-0.3-0.4c-0.1-0.1-0.2-0.2-0.2-0.2c-0.1-0.1-0.1-0.1-0.2-0.2
				c-0.1,0-0.1-0.1-0.2-0.1c-0.9-0.4-1.9-0.5-2.8,0c-0.1,0.1-0.2,0.1-0.3,0.2c-0.1,0-0.1,0.1-0.2,0.1c0.4,1.2,0.7,2.4,0.9,3.6
				C-198.5-203-198.5-202.8-198.5-202.7z"/>
		</g>
		<g transform="matrix(1 0 0 1 -25.449500000000008 11.284957513148449)">
			<path d="M-189.9-198.1c1-0.5,2-1,2.9-1.6c-2-4.8-5.1-8.9-9.9-11c-3.3-1.5-7.1-1.5-10.4-0.1c2.6,0.1,5.2,0.8,7.5,2
				C-195.2-206.7-191.7-202.8-189.9-198.1z"/>
		</g>
		<g transform="matrix(1 0 0 1 -13.760712566371637 10.303000000000033)">
			<path d="M-197.2-199.9c0,0,0.1,0,0.1-0.1c0-3.6,0.6-6.9,1-10.4c0,0,0-0.1,0-0.1c-0.4,0.6-0.9,1.1-1.6,1.4
				c-0.1,3.1-0.9,6.6,0.1,9.5C-197.4-199.6-197.3-199.8-197.2-199.9z"/>
		</g>
		<g transform="matrix(1 0 0 1 1.075499999999991 -36.4105)">
			<path d="M-232.4-201c0,0,0,0.1,0,0.1c1.4,0.4,2.7,1,4.2,1.4c1.8,0.5,3.7,0.7,5.6,1.1c3.8,0.8,7.7,1.5,11.4,2.5
				c0.1-0.1,0.3-0.2,0.4-0.2c8.6-2.7,17.2-5.3,25.8-8c7.7-2.4,15.5-4.4,23.2-6.9c-2.1-0.4-4.3-0.6-6.4-1.2c-2.8-0.9-5.6-1.5-8.4-1.9
				c-0.1,0-0.1,0-0.2,0c-9.6,2.5-19.5,3.8-29.1,6c-4.9,1.1-10,2.1-14.8,3.6c-3.9,1.2-7.7,3.1-11.8,3.3c0,0,0,0,0,0
				C-232.4-201.1-232.4-201.1-232.4-201z"/>
		</g>
		<g transform="matrix(1 0 0 1 22.855999999999995 -15.01550000000001)">
			<path d="M-231.1-215.7c0.9,2.2,2,4.3,3.3,6.3c0.3-0.2,0.6-0.3,0.9-0.4c0.1-0.1,0.3-0.1,0.4-0.1c0.3-0.1,0.5,0,0.7,0.3
				c0.9,1.8,2.4,3.1,3.5,4.7c0.2,0.2,0.1,0.5-0.1,0.7c0,0.1-0.1,0.2-0.2,0.3c-0.3,0.3-0.5,0.5-0.8,0.8c1.1,1.5,2.1,2.9,3,4.4
				c0.7-0.5,1.4-0.9,2.2-0.3c1,0.7,1.6,1.7,1.8,2.9c0,0.1,0,0.1,0,0.2c0,0.2,0,0.4-0.1,0.5c-0.4,0.4-0.8,0.7-1.2,1.1
				c1,1.7,2.1,3.4,3.2,5.1c0.4-0.2,0.8-0.4,1.2-0.6c0.2-0.2,0.5-0.2,0.8-0.1c1.4,0.7,2.6,1.6,3.5,2.8c0.2,0.3,0.2,0.6,0,0.9
				c-0.6,0.7-1.4,1.2-2.2,1.6c1,1.4,2.1,2.7,3.3,3.9c0.7-0.4,1.5-0.7,2.3-0.9c0,0,0.1,0,0.1,0c0.4-0.2,0.8-0.1,1.1,0.2
				c0.5,0.6,1,1.2,1.6,1.8c0.8-0.4,1.6-0.9,2.3-1.3c1.3-5.3,5.8-7.3,11-7.3h0.1c0.2,0,0.5,0,0.6,0.1c1,0.6,1.6,0,1.6-1.1
				c0-0.3,0.1-0.6,0.3-0.9c2-2.4,6-4.6,9-3c1.4-0.7,1.6-3.1,3.2-3.9c1.8-1,3.9-1.2,5.8-0.7c0.1,0,0.1-0.1,0.2-0.1
				c0-1.5,0.6-2.9,1.6-3.9c1.2-0.9,2.5-1.5,3.9-1.9c-3.2-4.2-5.9-8.9-9-13.1c-1.7-2.3-3.3-4.5-4.8-6.9c-1.3-2.2-2.7-4.6-4.8-6.2
				c-0.1-0.1-0.2-0.1-0.2-0.2c-0.2-0.1-0.4-0.3-0.5-0.6c-7.9,2.6-15.9,4.7-23.8,7.1C-214.5-220.9-222.8-218.3-231.1-215.7z
				 M-203.6-186.6c-4.9,1.2-9.8-5.1-11.5-8.9c-1.1-2.4-3.5-8.6,0.7-9.7c5.8-1.6,10.2,3.1,12.7,7.8
				C-200.2-194-198.7-187.8-203.6-186.6z M-191.8-191.7c-4.6,1.1-9.2-4.9-10.8-8.4c-1-2.2-3.3-8,0.5-9c5.5-1.5,9.6,3,12,7.4
				C-188.7-198.6-187.2-192.8-191.8-191.7z M-186-199.3c-3.3-2.2-5.8-5.5-7.1-9.3c-0.9-2.7-0.9-5.5,2.6-5.4c2.6,0.2,5,1.5,6.6,3.6
				c1.9,2.6,4.1,4.8,4.8,8.1C-177.9-197.2-182.8-197.1-186-199.3L-186-199.3z M-175.7-215.3C-175.7-215.3-175.7-215.3-175.7-215.3
				C-175.7-215.3-175.6-215.3-175.7-215.3c2.9,2.5,7.3,7.4,5.4,11.6c-1.9,4.2-6.6,1.4-8.8-1.1c-2.4-2.7-6.2-7.6-3.9-11.4
				C-181.6-218.6-177.2-216.5-175.7-215.3L-175.7-215.3z M-204.8-221.2c0.1,0,0.3,0,0.4,0.1c0.4,0.4,1.3,1.5,2,1.3
				c0.8-0.2,0.5-1.4,0.1-1.9c-0.1-0.1-0.1-0.2-0.1-0.2c-0.1-0.2-0.1-0.4,0.1-0.6c0,0,0,0,0,0c2.3-1.4,5-1.6,7.6-2.3c0,0,0.1,0,0.1,0
				c0.2-0.1,0.4,0,0.5,0.1c0.4,0.7,1,1.1,1.8,1.3c0.8,0.1,0.4-0.9,0.2-1.4c0,0,0-0.1,0-0.1c-0.1-0.1-0.2-0.4,0-0.5c0,0,0,0,0,0
				c1.9-1.6,4.5-1.4,6.8-2.1h0c0.2,0,0.5-0.1,0.6,0.1c1.3,1.8,2.2,3.9,3.7,5.6c0,0,0,0.1,0,0.1c0.1,0.1,0.2,0.3,0.1,0.5
				c0,0.2-0.1,0.4-0.3,0.4c-0.1,0-0.2,0-0.2,0.1c-0.1,0-0.2,0.1-0.2,0.1c0,0-0.1,0-0.1,0c-0.3,0.1-0.5,0.3-0.8,0.5
				c-0.2,0.2-0.4,0.2-0.6,0c0,0,0,0,0-0.1c0,0-0.1,0-0.1,0c-0.4-0.4-1.3-1.6-2-1.4c-0.8,0.2-0.4,1.5-0.1,2c0.1,0.3-0.1,0.6-0.4,0.7
				c-2.3,0.7-4.1,2.4-6.6,2.3c-0.2,0-0.3-0.1-0.4-0.3c0,0,0,0,0,0c-0.4-0.6-1.3-1.5-2.1-1.3c-0.9,0.3-0.4,1.5-0.1,2
				c0.1,0.2,0,0.5-0.2,0.6c0,0-0.1,0-0.1,0c0,0,0,0,0,0l0,0c-2.4,1.2-5,2.1-7.7,2.5c-0.1,0-0.3,0-0.4-0.1c-0.1,0-0.1-0.1-0.1-0.1
				c-0.5-0.5-1.3-2.3-2.2-2c-1.2,0.3-0.9,1.8-0.4,2.6c0.1,0.1,0.1,0.2,0,0.3c0,0.2-0.1,0.3-0.3,0.4c-2.9,0.8-5.4,2.7-8.4,3.2
				c-0.2,0-0.4-0.1-0.5-0.2c0,0,0,0-0.1-0.1c-0.2-0.5-0.6-0.9-0.9-1.3c-1.3-1.1-2.2-1.1-2.8,0.2c0,0.5,0.1,0.9,0.2,1.3
				c0.1,0.5,0.1,1.1,0,1.6c-0.3,1.1-1.7,1.2-2.5,0.9c-2.8-1-4.8-5.4-5.7-7.9c0-0.1,0-0.2,0-0.2c0-0.2,0.1-0.3,0.3-0.4
				c3.1-0.9,6.1-2.1,9.3-2.8c0.1,0,0.1,0,0.2,0c0.2,0,0.4,0.1,0.5,0.3c0,0,0,0,0,0.1c0.1,0.8,0.9,1.4,1.7,1.3c1-0.1,0.9-1,0.6-1.8
				c0,0,0,0,0,0c-0.1-0.2-0.1-0.5,0.1-0.6c0,0,0.1,0,0.1-0.1c2.9-1.1,5.9-2,8.9-2.8C-205-221.2-204.9-221.2-204.8-221.2z"/>
		</g>
		<g transform="matrix(1 0 0 1 33.466000000000015 -32.54200000000001)">
			<path d="M-198.9-201c0.7-0.4,1.5-0.8,2.3-1.1c-0.4-0.9-0.5-2.3,0.6-2.7c1.2-0.5,2.1,0.6,2.9,1.3c0.3-0.2,0.6-0.4,0.9-0.5
				c-1.2-1.7-2.4-3.4-3.4-5.1c-2,0.6-4.4,0.4-6.2,1.7c0.3,0.7,0.4,1.6-0.1,2.1C-201-203.8-199.8-202.5-198.9-201z"/>
		</g>
		<g transform="matrix(1 0 0 1 1.2014999999999958 -21.89599551233153)">
			<path d="M-193.3-208.2c-1-0.1-1.9-0.7-2.2-1.7c-3,0.6-5.8,1.7-8.7,2.6c0.7,1.7,1.5,3.3,2.6,4.8c0.6,0.8,1.6,2.2,2.7,2.4
				c2,0.4,1-2,1-2.7c-0.1-1.3,0.6-1.9,1.8-2.1c1.5-0.3,2.7,1.1,3.4,2.3c0.9-0.2,1.8-0.5,2.6-0.9c0,0,0,0,0,0
				C-191-205.2-192.5-206.5-193.3-208.2z"/>
		</g>
		<g transform="matrix(1 0 0 1 13.203000000000003 -25.542)">
			<path d="M-204.4-204.7c0.9,1.6,2.2,2.8,3,4.4c0,0,0,0.1,0,0.1c1.4-0.7,2.8-1.3,4.3-1.8c-0.6-1.1-0.6-2.8,0.7-3.3
				c1.7-0.8,2.4,1.1,3.3,2.1c1.1-0.2,2.2-0.4,3.2-0.8c-1.2-1.3-2.2-2.7-3-4.3c-0.9,0-1.8-0.8-2.4-1.4c-2.8,0.7-5.6,1.6-8.3,2.6
				c0.3,0.6,0.3,1.3,0,1.9C-203.8-205-204.1-204.8-204.4-204.7z"/>
		</g>
		<g transform="matrix(1 0 0 1 24.57699999999999 -29.422000000000004)">
			<path d="M-203.4-204.8c0.8,1.5,1.8,3,3,4.2c0,0,0,0.1,0.1,0.1c1-0.4,2-0.8,3-1.3c-0.4-1-0.6-2.4,0.7-2.8c1.2-0.4,2.4,0.6,3.1,1.5
				c1-0.1,1.9-0.3,2.7-0.7c-0.9-1.5-2.1-2.9-3.1-4.4c-1-0.1-1.9-0.6-2.4-1.4c-2.3,0.6-4.8,0.8-6.9,2
				C-202.6-206.7-202.7-205.5-203.4-204.8z"/>
		</g>
		<g transform="matrix(1 0 0 1 11.39455037819181 -6.121966507827388)">
			<path d="M-200.9-213.2c-5.1,0.6-3,5.9-1.4,8.8c1.5,2.9,4.1,6.4,7.4,7.3c6.3,1.8,5.1-5.1,3.5-8.5
				C-193.1-208.9-196.5-213.7-200.9-213.2z"/>
		</g>
		<g transform="matrix(1 0 0 1 43.25175276638227 -19.40745105254029)">
			<path d="M-203-210.6c-0.5,3.4,1.5,6.7,3.6,9.1c1.2,1.3,2.7,3,4.5,3.4c2.9,0.7,4.2-2.1,3.5-4.5c-0.9-3-2.8-5.7-5.3-7.6
				C-197.9-211.2-202.5-213.6-203-210.6z"/>
		</g>
		<g transform="matrix(1 0 0 1 23.521489464371967 -10.60906561713331)">
			<path d="M-200.7-213.1c-5.1,0.6-3.1,5.9-1.5,8.7c1.5,2.8,4,6.2,7.2,7.1c6.5,1.9,5-5.3,3.6-8.4
				C-193.2-208.9-196.5-213.5-200.7-213.1z"/>
		</g>
		<g transform="matrix(1 0 0 1 33.74630970592786 -15.83192711001907)">
			<path d="M-201.4-212.4c-5.1-0.2,0.1,9.5,2.3,11.3c1.4,1.1,4.2,3.5,6.1,3.4c3.9-0.3,2.1-5.1,1.1-6.7
				C-194.3-208-196.8-211.8-201.4-212.4z"/>
		</g>
		<g transform="matrix(1 0 0 1 -28.241999999999997 -8.672797563034084)">
			<path d="M-207.5-208.8c0,0.1,0,0.1,0,0.2c-1,5.1-0.7,10.2-1.2,15.4c0,0.2-0.1,0.4-0.2,0.5c0.2,0.7,0.3,1.5,0.3,2.3
				c0.5-0.1,1-0.2,1.4-0.3c3.7-2.8,8.5-3.4,12.8-1.6c0.4,0.2,0.8,0.4,1.2,0.6c0.5-1,1-1.9,1.6-2.7c0,0,0,0,0,0
				c0-0.2,0.2-0.4,0.4-0.4c0.3-0.7,0.8-1.2,1.5-1.6c0.1-0.2,0.3-0.3,0.5-0.3c1.3-0.1,2.5,0,3.8,0.2c-0.2-3.3-2.5-6.8-3-10
				c-0.5-2.9,1.1-7.4-3.3-7.5c-0.2,0-0.5-0.2-0.5-0.4c-0.1-0.1-0.1-0.2-0.1-0.2c-0.4-2.1-2.1-5.5-4.8-4.7c-1.7,0.5-3,1.7-4.5,2.4
				c-0.2,0.1-0.4,0.1-0.5,0c0,0-0.1,0-0.1,0c-0.8-0.2-1.5-0.3-2.3-0.4c0,1.1,0,2.2,0,3.3c0.1,1.1,0,2.1-0.3,3.2
				C-205.3-209.8-206.4-209.4-207.5-208.8z"/>
		</g>
		<g transform="matrix(1 0 0 1 52.79750000000001 -23.208000000000002)">
			<path d="M-199-210.6c-0.6,0.1-1.2,0.2-1.7,0.4c2.5,3.5,4.8,7.2,7.3,10.8C-193.8-203.7-195.7-207.8-199-210.6z"/>
		</g>
		<g transform="matrix(1 0 0 1 -7.423499999999986 -10.349999999999994)">
			<path d="M-198.9-195.6c0.2-0.2,0.5-0.2,0.7-0.1c1.3,0.9,2.5,0.4,3.5-0.6c0.7-0.5,1.3-1.2,1.9-1.9c0.8-1.3,0.6-3,0.9-4.5
				c-2.7-4.3-6.2-8.4-8.8-12.9c-1.8,1.1-0.9,2.6-1,4.4c-0.2,1.9-1,3.5,0.1,5.3c0,0,0,0.1,0,0.1c0.6,0.3,1.2,0.8,1.4,1.4
				c0.2,0.3,0.3,0.6,0.3,0.9v0c0.7,1.3,0.1,2.6-0.8,3.6c-0.5,0.6-1,1.1-1.6,1.5c0.6,1.2,1.1,2.4,1.5,3.6
				C-200.2-195-199.5-195.3-198.9-195.6z M-194.1-203.6c0.2-0.1,0.4-0.1,0.6-0.1c0,0,0.1,0,0.1,0.1c0.1,0,0.2,0,0.3,0.1
				c0.2,0.1,0.3,0.3,0.4,0.6c0.1,0.3-0.1,0.7-0.4,0.8c-0.5,0.2-1-0.1-1.2-0.5C-194.5-203.1-194.4-203.4-194.1-203.6L-194.1-203.6z
				 M-195.9-202.7c0.2-0.2,0.6-0.2,0.7,0.1c0,0,0,0,0,0c0.8,0.9,1.5,1.8,2.1,2.9c0.1,0.1,0.1,0.3,0,0.4c0.1,0.2,0,0.4-0.1,0.6
				c-0.9,1-2,1.9-3.2,2.6c-0.2,0.1-0.4,0.1-0.6,0c-0.2,0-0.3-0.1-0.5-0.3c-0.7-0.9-1.3-1.8-1.9-2.8c-0.2-0.2-0.3-0.5-0.1-0.7
				c0.6-1.4,2.2-1.8,3.3-2.7C-196.1-202.6-196-202.7-195.9-202.7z M-199.4-210.5c0.1,0,0.2,0,0.3,0c1.3,0,2.5,1,2.5,2.4
				c0,1.4-1,2.5-2.4,2.6s-2.5-1-2.6-2.4C-201.5-209.3-200.6-210.3-199.4-210.5z M-200.4-198c0.4-0.4,1.1-0.5,1.5-0.1
				c0.4,0.4,0.5,1.1,0.1,1.5c0,0.1-0.1,0.1-0.2,0.1c-0.4,0.4-1.1,0.3-1.5-0.1c0-0.1-0.1-0.1-0.1-0.2c0,0,0-0.1-0.1-0.1
				c0,0,0-0.1,0-0.1v0C-200.8-197.3-200.7-197.7-200.4-198z"/>
		</g>
		<g transform="matrix(1 0 0 1 -10.503418057504668 14.412500000000001)">
			<path d="M-196.2-205.1c-0.4-0.8-1.1-1.5-1.9-1.7c0,0.7-0.1,1.4-0.1,2.1c0.7,0.6,1.5,1.1,2.2,1.6
				C-195.9-203.8-196-204.5-196.2-205.1z"/>
		</g>
		<g transform="matrix(1 0 0 1 -32.962833237879025 -26.22165923179645)">
			<path d="M-197.9-205.6c-0.4,0.3-1.4,1.1-1.3,1.7c0.3-0.1,0.6,0,0.8,0.1c0.9,0.5,2.2-0.5,3.5-1.3c0-0.1-0.1-0.1-0.1-0.2v0
				C-195.1-206.8-197-206.2-197.9-205.6z"/>
		</g>
		<g transform="matrix(1 0 0 1 -9.353718381402874 -13.383342304181621)">
			<path d="M-197.3-206.2c0,0-0.1,0-0.1,0c-0.7,0.2-1.1,0.8-0.9,1.5c0.1,0.5,0.6,0.9,1.1,0.9c0.7,0.1,1.3-0.4,1.3-1.1
				c0.1-0.7-0.4-1.3-1.1-1.3C-197.1-206.2-197.2-206.2-197.3-206.2z"/>
		</g>
		<g transform="matrix(1 0 0 1 -6.525500000000001 -4.75749999999999)">
			<path d="M-195.2-205c-0.4-0.7-0.9-1.4-1.4-2c-0.9,0.4-1.7,1-2.4,1.7c0.5,0.8,1,1.5,1.5,2.3C-196.7-203.6-195.9-204.2-195.2-205z"
				/>
		</g>
		<g transform="matrix(1 0 0 1 7.890500000000003 2.916000000000011)">
			<path d="M-197.8-206.5c-0.3,0.1-0.6,0.3-0.9,0.4c0.6,0.9,1.2,1.7,1.8,2.6c0.5-0.3,1-0.6,1.5-1.1
				C-196.1-205.4-196.9-206-197.8-206.5z"/>
		</g>
		<g transform="matrix(1 0 0 1 1.390500000000003 -6.701536587826343)">
			<path d="M-198.2-206c0.5,0.8,0.9,1.6,1.4,2.3c0.2-0.2,0.5-0.4,0.7-0.6c-0.1-0.7-0.5-1.3-1-1.8
				C-197.4-206.5-197.8-206.3-198.2-206z"/>
		</g>
		<g transform="matrix(1 0 0 1 -14.420978338339577 29.46052153828149)">
			<path d="M-196.7-206.5c-0.4-0.1-1.3-0.4-1.7,0c0,0,0,0,0,0.1c0,0.1-0.1,0.2-0.1,0.3c0,0,0,0,0,0.1c0,0.1,0,0.2-0.1,0.3
				c-0.2,1,0.4,2.1,1.5,2.4c0.6,0.1,1.3-0.1,1.7-0.6c0-0.6,0-1.1,0-1.7C-195.8-206.1-196.2-206.3-196.7-206.5z"/>
		</g>
		<g transform="matrix(1 0 0 1 -15.813500000000001 35.24799999999998)">
			<path d="M-196.4-208c-0.7-0.3-1.3-0.8-1.7-1.5c-0.3,2.4-1,4.7-1.9,6.9c1.8,0.7,3.6,1.5,5.4,2.2c0.2-2.6,0.4-5.2,0.4-7.7
				C-194.9-207.9-195.6-207.8-196.4-208z"/>
		</g>
		<g transform="matrix(1 0 0 1 -14.660972249152604 25.051500000000004)">
			<path d="M-199.1-205.4c0.1,0.8,0.1,1.6,0.1,2.4c0.9-0.8,2.6-0.6,3.8,0.2c0.1-1.4,0.2-2.9,0.1-4.3
				C-196.1-206-197.6-205.4-199.1-205.4z"/>
		</g>
		<g transform="matrix(1 0 0 1 -11.959428134880149 27.673999999999992)">
			<path d="M-196.8-201.9c-0.1,2.7-0.2,5.4-0.4,8.2c0.8-0.5,1.6-1.1,2.4-1.6c0,0,0,0,0,0c-0.2-3.5,0.1-7,0.1-10.4
				c0-2.2,0.5-4.5,0.2-6.6c-0.3-2.1-2-2.8-3.4-3.9c-0.1,0-0.1,0-0.2,0c-0.2,0.2-0.5,0.4-0.7,0.5c-0.3,0.3-0.7,0.5-1.1,0.8
				c0.1,0.1,0.3,0.1,0.4,0.2c0.8,0.3,1.4,0.8,1.8,1.6c0.8,1.4,1.2,3,1.1,4.7c0,1.5-0.1,2.9-0.1,4.4c0.3,0.5,0.3,1.1,0.2,1.7
				C-196.5-202.3-196.6-202.1-196.8-201.9z"/>
		</g>
		<g transform="matrix(1 0 0 1 -10.518499999999996 39.91599999999999)">
			<path d="M-198.5-204.6c0.9,0.3,1.8,0.6,2.7,0.8c-0.1-0.8-0.3-1.5-0.3-2.3C-196.9-205.6-197.6-205.1-198.5-204.6z"/>
		</g>
		<g transform="matrix(1 0 0 1 -6.74172215583101 36.188)">
			<path d="M-197.8-208.8c-0.1,2.5,0,5,0.2,7.5c0.1,0,0.3,0,0.4,0c0,0,0,0,0,0c0.1-0.2,0.4-0.4,0.6-0.5
				C-196.3-203.9-195.9-208.7-197.8-208.8z"/>
		</g>
		<g transform="matrix(1 0 0 1 -24.480226045392424 21.321999999999996)">
			<path d="M-191.9-204.7c-1.6-5.8-5.3-11-11.2-12.9c4.1,2.4,7.2,6,9.1,10.4c1.9,4.1,2.6,8.7,2.1,13.2c-0.1,0.6-0.2,1.2-0.3,1.8
				c0,0,0,0,0.1,0C-190.9-196.4-190.8-200.7-191.9-204.7z"/>
		</g>
		<g transform="matrix(1 0 0 1 -32.16257372543694 25.922999999999995)">
			<path d="M-206.4-222.1c-0.1,0-0.3,0.1-0.4,0.1c4.1,1,7.9,3,11,5.8c3.6,3.7,5.8,8.6,6.3,13.8c0.5,4.6,0.9,10.2-1.4,14.5l0,0.1
				c2.4-2.5,3.6-5.9,3.5-9.3c0-3.9-0.7-7.8-2.1-11.4C-192.5-216.4-198.3-221-206.4-222.1z"/>
		</g>
		<g transform="matrix(1 0 0 1 -29.64351316032948 20.99649999999999)">
			<path d="M-204.1-218.3c-0.5,0-1.1,0.1-1.6,0.2c-0.2,0.1-0.5,0.1-0.7,0.2c6.9,1.4,12.7,6.3,15.1,13c1.7,4.2,2.6,8.8,2.5,13.3
				c1.3-4.6,1-9.4-0.8-13.8C-192.3-212.1-197.2-217-204.1-218.3z"/>
		</g>
		<g transform="matrix(1 0 0 1 41.67100000000002 5.651820244059028)">
			<path d="M-193.9-213.8c-0.5,1.1-1.4,2-2.6,2.3c-0.2,0.1-0.5,0.1-0.7,0c-0.1,0-0.2-0.1-0.2-0.1c-0.7-0.5-1.6-0.6-2.5-0.4
				c0,5.9-0.7,11.9-2,17.6c1.7,0.6,6.1-3.2,7.7-4.3c0.9-5.6,1.3-11.3,2-17C-192.9-215.2-193.5-214.5-193.9-213.8z"/>
		</g>
		<g transform="matrix(1 0 0 1 55.123 -1.7513826160153911)">
			<path d="M-199.4-195.2c0.4,0,0.7,0,1.1-0.2c0-0.1,0-0.2,0-0.2c1.4-6.2,2.6-12.8,3.5-19.1c-0.5,0.1-1,0.3-1.4,0.4
				C-196.6-207.9-198.1-201.6-199.4-195.2z"/>
		</g>
		<g transform="matrix(1 0 0 1 50.97099999999999 -1.2595000000000098)">
			<path d="M-193.7-214c-0.7,0.8-1.1,1.9-1.1,3c0,0.1,0,0.2-0.1,0.3c-0.1,0.3-0.2,0.5-0.5,0.7c-0.3,0.2-0.5,0.3-0.8,0.5
				c-0.1,0.1-0.3,0.2-0.5,0.1c-0.2,0.1-0.4,0.1-0.7,0c-0.7-0.2-1.4-0.3-2.2-0.2c-0.6,4.2-1,8.4-1.4,12.7c1.1,0.4,2.2,0.7,3.3,0.9
				c0.2,0,0.6,0.1,1,0.2c1.2-6.1,2.7-12.1,3.1-18.3C-193.5-214.1-193.6-214-193.7-214z"/>
		</g>
		<g transform="matrix(1 0 0 1 -40.39369169381467 28.437407030294573)">
			<path d="M-202.5-223c-5.8,0.1-8.7,5.8-8.8,11c-0.2,8.5,2.8,17,10.1,22c6.2,4.3,15.9,4.5,17.8-4.4c1.6-7.8,0.1-17.2-5.6-23
				C-192.7-220.7-197.4-223.1-202.5-223z M-185.7-194.9c-2.3,6.2-9.6,6.1-14.6,3.3c-7.2-4.2-11-15-7-22.7c1.6-3,5.3-6.5,9.1-5.3
				c0.2,0,0.3,0.1,0.5,0.2c0.1,0,0.3,0,0.4,0.1c3.6,1.1,6.7,3.4,9,6.3C-184.9-208-183.6-200.7-185.7-194.9z"/>
		</g>
		<g transform="matrix(1 0 0 1 52.16107758219879 -25.287667005200042)">
			<path d="M-203.4-212.8c0.6,1.1,1.3,2.1,2.1,3.1c0.1,0.2,0.3,0.4,0.4,0.5c0.8-0.3,1.7-0.4,2.5-0.5c0.1,0,0.2,0,0.3,0
				c0.1,0,0.3,0.1,0.4,0.2c3.7,3.1,5.9,7.6,6.1,12.4c0.1-0.1,0.3-0.2,0.4-0.2C-189.4-206.1-194.6-212.9-203.4-212.8z"/>
		</g>
		<g transform="matrix(1 0 0 1 22.2035 15.648499999999984)">
			<path d="M-184.5-219.5c0,1.1-0.5,2.2-1.4,2.8c-0.9,0.5-2,0.5-3,0c-4.4,0-8.1,1.6-9,6.2c0,0.3-0.3,0.6-0.6,0.7c0,0,0,0,0,0
				c-1,0.6-2,1.1-3,1.7c-0.2,0.1-0.5,0.2-0.8,0.1c-0.3,0-0.6-0.1-0.8-0.3c-0.6-0.6-1.1-1.2-1.7-1.8c-0.5,0.2-1.1,0.4-1.6,0.7
				c-0.1,2.2,0.2,5.3-1.5,6.8c-0.8,0.7-1.8,0.9-2.8,0.8c-0.6,0.7-1.2,1.3-1.9,1.9c1.1,3.8,0.5,7.6,0.4,11.4
				c3.8-2.5,7.4-5.2,11.2-7.5c5.3-3.2,10.8-6.3,16.4-9.1c0.3-0.2,0.6-0.3,1-0.3c1.2-5.4,1.9-10.9,1.9-16.4
				C-182.8-221.1-183.7-220.4-184.5-219.5z"/>
		</g>
		<g transform="matrix(1 0 0 1 -42.3785 -14.392500000000002)">
			<path d="M-198.9-206.6c0.6,1.3,1.4,3.1,2.7,3.7c0.3-0.2,0.6-0.4,0.8-0.7c0-0.1,0.1-0.1,0.2-0.2c0,0,0,0,0-0.1
				c-0.9-1.1-1.8-2.2-2.8-3.3C-198.4-207-198.7-206.8-198.9-206.6z"/>
		</g>
		<g transform="matrix(1 0 0 1 2.8765000000000107 28.563999999999986)">
			<path d="M-194.1-213.6C-194.1-213.6-194.1-213.6-194.1-213.6c0.5-0.6,1.1-1,1.5-1.6c-0.6-0.3-1-0.8-1.4-1.3
				c-2.5,1.8-4.6,4.1-7.2,5.8c-0.1,2.7-0.3,5.3-0.5,8c2,1.8,3.5,5.6,1,7.5c0,0.5-0.1,1.1-0.2,1.6c0.7-0.3,1.3-0.6,1.9-1
				c0.2-0.9,0.3-1.9,0.4-2.9c0-0.1,0.1-0.3,0.2-0.4c0.1-0.2,0.3-0.4,0.5-0.5c1.3-0.7,2.5-1.4,3.7-2.2c0.1-4.2,0.9-8.3-0.4-12.3
				C-194.6-213.1-194.5-213.4-194.1-213.6C-194.2-213.5-194.2-213.6-194.1-213.6z"/>
		</g>
		<g transform="matrix(1 0 0 1 -0.27649999999999864 17.000499999999988)">
			<path d="M-200.3-189.9c-0.3-0.2-0.4-0.6-0.3-1c0,0,0-0.1,0-0.1c0.2-2.9,0.5-5.8,0.5-8.6c0-0.4,0.2-0.7,0.6-0.9
				c0.1-0.1,0.1-0.1,0.2-0.2c3-2,5.4-4.8,8.5-6.7c0.5-0.3,1.1-0.2,1.3,0.3c0,0,0,0.1,0,0.1c0.1,0.1,0.2,0.3,0.2,0.5
				c0.1,0.9,0.9,1.5,1.8,1.4c0.7-0.1,0.9-1,1-1.5c0.2-1.4,0.3-2.8,0.3-4.2c-4.8-5.1-8.5-11.4-12.1-17.4c0,0.7-0.1,1.4-0.3,2.1
				c-0.4,1.1-1,2-1.9,2.7c-1.2,1.1-2.4,2.1-3.8,2.1c-0.6,0-1.1-0.2-1.6-0.4c-0.7,0.3-1.3,0.7-1.9,1.1c0.2,0.8,0.2,1.6,0.1,2.4
				c-0.2,2.5-0.6,5-0.8,7.5c1.2,0.4,2.3,1.2,2.9,2.3c0.5,1.2,0.5,2.4,0.2,3.6c0.3,0.3,0.5,0.6,0.7,1c0.5,1.2,0.6,2.5,0.5,3.8
				c4,0.2,4,7.3-0.2,7.9c0,0.1-0.1,0.2-0.1,0.3v0.9c3.3,0,2.9,5.7,2.5,8.6c0.6,0.2,1.3,0.4,2,0.5c0.3-0.8,0.4-1.6,0.3-2.5
				c-0.1-0.5,0.3-0.9,0.8-1C-197.1-186.2-199.3-189.1-200.3-189.9z"/>
		</g>
		<g transform="matrix(1 0 0 1 -6.432634103173225 25.961499999999994)">
			<path d="M-198-207.7c-0.1,1.8-0.2,3.6-0.2,5.4C-195.5-202.8-195.4-207.4-198-207.7z"/>
		</g>
		<g transform="matrix(1 0 0 1 -50.21849999999999 -5.449000000000002)">
			<path d="M-199.8-201.5c0.3,0.1,0.5,0.2,0.7,0.5c1.8,3.2,4.2,6,5.8,9.3c0.2-0.1,0.4-0.1,0.6-0.2c-0.9-1.1-2.1-2.6-1.5-3.8
				c0.3-0.9,1.1-1.5,2.1-1.4c0.6,0.1,1.1,0.5,1.5,0.9c0.2-0.3,0.5-0.6,0.8-0.8c-0.4-0.7-0.9-1.4-1.9-1.1c-0.9,0.3-1.7,0.7-2.4,1.3
				c-0.2,0.2-0.5,0.2-0.7,0c-0.1,0-0.3-0.1-0.3-0.3c-0.8-1.3-2.5-1.9-2.7-3.5c0-0.1,0-0.2,0-0.3c0-0.2,0.1-0.3,0.2-0.4
				c1.3-1.2,2.6-2.4,4-3.4c1.2-1,3.4-2.2,2.9-3.9c-2.6,2.1-5.5,3.8-7.8,6.1c-0.2,0.2-0.5,0.2-0.7,0.1c-0.1,0-0.3-0.1-0.4-0.2
				c-1.2-1.3-2.6-2.5-3-4.3c0-0.1,0-0.3,0-0.4c0-0.1,0-0.1,0.1-0.2c1-1.6,2.4-2.8,3.7-4.2c1.2-1.5,2.5-2.9,4-4
				c0.2-0.2,0.4-0.2,0.6,0c0.1,0,0.1,0,0.2,0.1c0.1-0.4,0.2-0.9,0.3-1.3c-0.3-0.5-0.6-1-0.9-1.4c-3.2,3.5-7.5,6.8-9.7,10.9
				c0.3,1.6,0.5,3.3,0.5,5c1.3,0.2,2.7,0.4,4,0.9C-199.8-201.5-199.8-201.5-199.8-201.5z"/>
		</g>
		<g transform="matrix(1 0 0 1 -45.30634285752211 5.462304839194282)">
			<path d="M-197.8-206.6c-0.4,0.5-0.1,1,0.1,1.4c0.4,0.7,0.8,1.3,1.3,1.9c0,0,0.1,0,0.1,0c-0.1-0.9-0.1-1.8,0.1-2.6
				C-196.6-206.4-197.3-207.2-197.8-206.6z"/>
		</g>
		<g transform="matrix(1 0 0 1 -36.825500000000005 17.466499999999996)">
			<path d="M-198.2-204.2c1.5,0.2,2.9,0.6,4.2,1.3c-1.8-1.9-3.9-3.3-6.3-4.3C-199.9-206-199.2-204.9-198.2-204.2z"/>
		</g>
		<g transform="matrix(1 0 0 1 -42.5378524028776 24.456000000000003)">
			<path d="M-197.7-211.4C-197.7-211.4-197.7-211.4-197.7-211.4c-2.4,3.1-0.9,10.3,2.1,12.8c0-0.1,0.1-0.3,0.1-0.4
				c-1.4-3.2-2.5-6.6-1-9.9C-196.7-209.8-197.2-210.6-197.7-211.4z"/>
		</g>
		<g transform="matrix(1 0 0 1 -43.847133078376764 25.45450000000001)">
			<path d="M-198.3-200.8c0.5,1.7,1.4,3.2,2.4,4.7c0.4-0.8,0.8-1.5,1.2-2.3c-4-2.8-5.5-11-2.6-14.9c-0.3-0.2-0.6-0.4-0.9-0.6
				C-200.5-210.4-199.5-204.4-198.3-200.8z"/>
		</g>
		<g transform="matrix(1 0 0 1 -41.74263215346596 5.396499999999968)">
			<path d="M-196.3-204.2c0-0.7-0.1-1.4-0.3-2.1c-1.3,0.1-1.5,1.3-1.3,2.5C-197.4-203.9-196.8-204.1-196.3-204.2z"/>
		</g>
		<g transform="matrix(1 0 0 1 -44.3435 -3.410999999999998)">
			<path d="M-196.9-201.4c1.1,0.2,1.7,1.1,2.2,2h0c0.3-3.7,0.3-7.3,0.7-11c-0.4,0-0.8,0-1.2-0.2c0.2,1.1-0.3,2.3-1.3,2.9
				c-1.3,1.1-2.6,2-3.9,3.1c0.8,1.1,1.5,2.2,2.3,3.2C-197.6-201.4-197.2-201.5-196.9-201.4z"/>
		</g>
		<g transform="matrix(1 0 0 1 -48.0385 -0.374000000000013)">
			<path d="M-198.7-205.7c0.3,1,1.4,1.7,2.2,2.5c0.3-0.2,0.7-0.5,1.1-0.7c-0.7-1-1.3-2-2.1-2.9C-198-206.5-198.4-206.1-198.7-205.7z
				"/>
		</g>
		<g transform="matrix(1 0 0 1 -50.7665 -9.5075)">
			<path d="M-193.4-209.6c0-0.1,0-0.1-0.1-0.2c0-0.1-0.1-0.2-0.1-0.3c-0.1-0.1-0.2-0.1-0.3-0.2c-1.4,1.2-2.7,2.6-3.9,4
				c-1.1,1.1-2.1,2.2-3,3.4c0.5,1.2,1.3,2.3,2.3,3.2c0.6-0.6,1.3-1.1,1.9-1.6c-0.6-0.6-1.3-1.3-1.9-1.9c-0.1-0.1-0.1-0.2-0.1-0.3
				c-0.1-0.2-0.1-0.4,0-0.5C-197.5-206.4-195.4-208.1-193.4-209.6z"/>
		</g>
		<g transform="matrix(1 0 0 1 -41.07831902649728 29.0688300383883)">
			<path d="M-202.2-204.1c-1.3-4.2-2.3-10.4,0.4-14.3c-3.9,2.3-5.1,7.1-4.8,11.5c0.5,7,4.4,13.6,11.8,14.9c3.4,0.6,5.7-0.2,7.2-1.9
				C-194.5-193-200.2-197.3-202.2-204.1z"/>
		</g>
		<g transform="matrix(1 0 0 1 -47.56100000000001 -9.825499999999998)">
			<path d="M-198.7-201.8c1.7-1.2,3.4-2.4,5-3.7c-0.3-0.3-0.6-0.7-0.9-1.1c-0.4-0.5-0.9-1.1-1.4-1.7c-1.8,1.2-3.3,2.8-4.5,4.6
				C-199.9-203-199.3-202.4-198.7-201.8z"/>
		</g>
		<g transform="matrix(1 0 0 1 -35.55789748338617 26.478687704800414)">
			<path d="M-195.7-201.7c-0.2,0.6-0.6,1-1.1,1.3c0.5,0.1,1.1,0,1.6-0.2c3-2,0.4-7.6-2.2-8.7c-1-0.6-2.2-0.2-2.8,0.8
				c-0.1,0.2-0.2,0.3-0.2,0.5C-197.9-209.1-194.9-204.1-195.7-201.7z"/>
		</g>
		<g transform="matrix(1 0 0 1 -33.841499999999996 37.29507685602823)">
			<path d="M-201-204.1c2.3,1,4.8,1.2,7.2,0.6c0.3-0.5,0.5-1,0.6-1.5c-2.4,0-5-0.4-6.9-1.8C-200.6-206-200.9-205.1-201-204.1z"/>
		</g>
		<g transform="matrix(1 0 0 1 -37.16097510012 26.207353861087206)">
			<path d="M-198.2-211.7c-0.1,0-0.2,0-0.3-0.1c-1.5-1.1-2.5-2.7-2.9-4.5c-0.6-0.1-1.1-0.2-1.7-0.1c-0.4,0.2-0.7,0.5-1,0.8
				c0.7,0.5,1.3,1,1.9,1.6c0.6,1,1.1,2,1.6,3c0.1,0.2,0.1,0.5-0.1,0.7c0,0.1,0,0.1,0,0.2c-1.4,3-0.2,6.1,1,8.9
				c0.1,0.1,0.1,0.2,0,0.3c0,0.1,0,0.2,0,0.3c-0.5,1.7-1.2,3.2-2.1,4.7c0.8,0.9,1.8,1.7,2.8,2.3c0.2-1.5,0.8-2.8,1.9-3.9
				c0.1-0.1,0.3-0.2,0.5-0.2c0.1,0,0.1,0,0.2,0c4.9,1,6.8-4.2,5.9-8c-0.2-0.5-0.3-1-0.5-1.5c-1.3-2.8-3.9-4.1-7.1-4.6
				C-198.1-211.7-198.1-211.7-198.2-211.7z M-193-199.2c0,0-0.1,0-0.1,0c0,0,0,0,0,0c0,0,0,0-0.1,0c0,0,0,0,0,0
				c-3,1.1-5.3-1-6.4-3.7c-0.4-0.7-0.6-1.4-0.6-2.2c-0.4-2.9,0.5-5.7,3.4-5.5C-192.2-210.3-188.6-202-193-199.2z"/>
		</g>
		<g transform="matrix(1 0 0 1 -37.11027345288014 27.32402944967901)">
			<path d="M-198.1-203.8c0.2,0.2,0.4,0.5,0.6,0.7c0.3,0.3,1,1,1.5,0.8c0.5-0.2,0.8-0.7,0.8-1.2c0-1.2-1.6-4.6-3.1-4.1
				c0,0.1-0.1,0.2-0.2,0.3c-0.3,0.3-0.5,0.7-0.5,1.2c0,0,0,0.1,0,0.1C-198.8-205.3-198.5-204.6-198.1-203.8z"/>
		</g>
		<g transform="matrix(1 0 0 1 -32.33525954296309 33.22421292672242)">
			<path d="M-200.1-203.3c1.8,0.9,3.8,1.2,5.7,1.1c0.3-1.9,0.4-3.8,0.2-5.7C-195.1-205.3-197.2-203.2-200.1-203.3z"/>
		</g>
	</g>
</g>
<g transform="matrix(0.5136917301683912 0 0 0.0983373944473024 250.99999999999994 307.5848396127104)">
	<rect x="-488.6" y="-1920" class="st2" width="416.5" height="600"/>
</g>
<g transform="matrix(1 0 0 1 250.99315413491573 305.84712130271953)">
	<path class="st1" d="M-207.3-160.4h-2l-4-5.7v8.6h-3.9v-14.4h3.9l5,7.4l5-7.4h3.9v14.4h-3.9v-8.6L-207.3-160.4z"/>
	<path class="st1" d="M-181.5-171.9h3.9v8.4c0,0.9-0.1,1.7-0.3,2.5c-0.2,0.8-0.6,1.5-1.2,2c-0.6,0.6-1.3,1.1-2.3,1.4
		c-0.9,0.3-2.1,0.5-3.6,0.5l0,0h-0.8c-1.4,0-2.6-0.2-3.6-0.5c-0.9-0.3-1.7-0.8-2.3-1.4c-0.6-0.6-0.9-1.3-1.2-2
		c-0.2-0.8-0.3-1.6-0.3-2.5l0,0v-8.4h3.9v7.8c0,0.5,0,0.9,0.1,1.3c0,0.4,0.2,0.8,0.4,1.1c0.2,0.3,0.6,0.6,1.1,0.8
		c0.5,0.2,1.3,0.3,2.3,0.3l0,0c1,0,1.7-0.1,2.2-0.3c0.5-0.2,0.9-0.5,1.1-0.8c0.2-0.3,0.4-0.7,0.4-1.1c0-0.4,0.1-0.9,0.1-1.3l0,0
		V-171.9z"/>
	<path class="st1" d="M-155.8-165.2v1.1c0,1-0.1,1.9-0.4,2.8c-0.3,0.9-0.7,1.6-1.4,2.3c-0.6,0.6-1.5,1.1-2.6,1.5
		c-1.1,0.4-2.4,0.6-4.1,0.6l0,0h-0.8c-1.1,0-2.2,0-3.3-0.1c-1.1-0.1-2.1-0.2-3.1-0.3l0,0v-14.4c1-0.2,2.1-0.3,3.1-0.3
		c1.1-0.1,2.2-0.1,3.3-0.1l0,0h0.8c1.7,0,3,0.2,4.1,0.6c1.1,0.4,1.9,0.9,2.6,1.5c0.6,0.6,1.1,1.4,1.4,2.3
		C-155.9-167.1-155.8-166.2-155.8-165.2L-155.8-165.2z M-164.9-160.4L-164.9-160.4c1.3,0,2.3-0.1,3-0.3c0.7-0.2,1.2-0.5,1.5-0.9
		c0.3-0.4,0.5-0.8,0.6-1.3c0.1-0.5,0.1-1.1,0.1-1.7l0,0c0-0.6,0-1.2-0.1-1.7c0-0.5-0.2-1-0.6-1.3c-0.3-0.4-0.8-0.7-1.5-0.9
		c-0.7-0.2-1.7-0.3-3-0.3l0,0c-0.4,0-0.8,0-1.2,0c-0.5,0-0.9,0-1.4,0.1l0,0v8.3c0.5,0,1,0,1.4,0.1
		C-165.6-160.4-165.2-160.4-164.9-160.4z"/>
	<path class="st1" d="M-135-157.5h-3.7l-2.9-4.5c-0.8,0-1.5,0-2.2,0c-0.7,0-1.4-0.1-2.1-0.2l0,0v4.7h-3.9v-14.4
		c1.2-0.1,2.5-0.3,3.9-0.3c1.4-0.1,2.7-0.1,4-0.1l0,0h0.6c1.2,0,2.2,0.1,3,0.4c0.8,0.3,1.4,0.6,1.9,1c0.5,0.4,0.8,0.9,1,1.5
		c0.2,0.6,0.3,1.2,0.3,1.8l0,0v0.9c0,0.9-0.2,1.7-0.5,2.5s-1,1.3-1.9,1.7l0,0l2.7,4.2V-157.5z M-141.9-168.8L-141.9-168.8
		c-0.5,0-1.1,0-1.9,0c-0.7,0-1.5,0.1-2.2,0.2l0,0v3.1c0.7,0.1,1.3,0.1,1.9,0.2c0.6,0,1.1,0,1.5,0l0,0c0.9,0,1.5,0,2-0.1
		c0.5-0.1,0.8-0.2,1-0.4c0.2-0.2,0.4-0.4,0.4-0.6c0-0.2,0.1-0.5,0.1-0.9l0,0c0-0.2,0-0.4-0.1-0.6c0-0.2-0.1-0.3-0.3-0.5
		c-0.2-0.1-0.5-0.3-0.9-0.3C-140.7-168.8-141.2-168.8-141.9-168.8z"/>
	<path class="st1" d="M-129.3-164.1v-1.1c0-1,0.1-1.9,0.4-2.8c0.2-0.9,0.7-1.6,1.3-2.3c0.6-0.6,1.4-1.1,2.5-1.5
		c1-0.4,2.3-0.6,3.9-0.6l0,0h0.8c1.6,0,2.9,0.2,3.9,0.6c1,0.4,1.9,0.9,2.5,1.5c0.6,0.6,1,1.4,1.3,2.3c0.2,0.9,0.4,1.8,0.4,2.8l0,0
		v1.1c0,1-0.1,1.9-0.4,2.8c-0.2,0.9-0.7,1.6-1.3,2.3c-0.6,0.6-1.4,1.1-2.5,1.5c-1,0.4-2.3,0.6-3.9,0.6l0,0h-0.8
		c-1.6,0-2.9-0.2-3.9-0.6c-1-0.4-1.9-0.9-2.5-1.5c-0.6-0.6-1-1.4-1.3-2.3C-129.2-162.2-129.3-163.1-129.3-164.1L-129.3-164.1z
		 M-125.4-164.7L-125.4-164.7c0,0.5,0,1.1,0.1,1.6c0.1,0.5,0.2,1,0.5,1.3c0.3,0.4,0.7,0.7,1.3,0.9c0.6,0.2,1.5,0.3,2.6,0.3l0,0
		c1.1,0,2-0.1,2.6-0.3c0.6-0.2,1.1-0.5,1.3-0.9c0.3-0.4,0.4-0.8,0.5-1.3c0.1-0.5,0.1-1,0.1-1.6l0,0c0-0.5,0-1.1-0.1-1.6
		c0-0.5-0.2-0.9-0.5-1.3c-0.3-0.4-0.7-0.7-1.3-0.9c-0.6-0.2-1.5-0.3-2.6-0.3l0,0c-1.1,0-2,0.1-2.6,0.3c-0.6,0.2-1.1,0.5-1.3,0.9
		c-0.3,0.4-0.4,0.8-0.5,1.3C-125.4-165.7-125.4-165.2-125.4-164.7z"/>
	<path class="st1" d="M-106.6-164.1v-1.1c0-1,0.1-1.9,0.4-2.8c0.2-0.9,0.7-1.6,1.3-2.3c0.6-0.6,1.4-1.1,2.4-1.5
		c1-0.4,2.3-0.6,3.8-0.6l0,0h0.8c1,0,1.9,0.1,2.8,0.2c0.9,0.1,1.8,0.3,2.7,0.5l0,0v3.5c-0.5-0.1-1-0.3-1.5-0.4
		c-0.5-0.1-1-0.2-1.5-0.3c-0.5-0.1-1-0.1-1.4-0.1c-0.5,0-0.9,0-1.2,0l0,0c-1.1,0-2,0.1-2.6,0.3c-0.6,0.2-1,0.5-1.3,0.9
		c-0.3,0.4-0.4,0.8-0.5,1.3c0,0.5-0.1,1.1-0.1,1.7l0,0c0,0.6,0,1.2,0.1,1.7c0.1,0.5,0.2,1,0.5,1.3c0.3,0.4,0.7,0.7,1.3,0.9
		c0.6,0.2,1.5,0.3,2.6,0.3l0,0c0.4,0,0.8,0,1.2,0c0.4,0,0.9-0.1,1.4-0.1c0.5-0.1,1-0.1,1.5-0.3c0.5-0.1,1-0.2,1.5-0.4l0,0v3.5
		c-0.9,0.2-1.8,0.4-2.7,0.5c-0.9,0.1-1.9,0.2-2.8,0.2l0,0h-0.8c-1.5,0-2.8-0.2-3.8-0.6c-1-0.4-1.8-0.9-2.4-1.5
		c-0.6-0.6-1-1.4-1.3-2.3C-106.5-162.2-106.6-163.1-106.6-164.1L-106.6-164.1z"/>
	<path class="st1" d="M-86.8-171.9h3.9v5.6h7.5v-5.6h3.9v14.4h-3.9v-5.4h-7.5v5.4h-3.9V-171.9z"/>
	<path class="st1" d="M-240.9-132.2h-2l-4.1-5.7v8.6h-3.9v-14.4h3.9l5,7.4l5-7.4h3.9v14.4h-3.9v-8.6L-240.9-132.2z"/>
	<path class="st1" d="M-226.8-135.9v-1.1c0-1,0.1-1.9,0.4-2.8c0.2-0.9,0.7-1.6,1.3-2.3c0.6-0.6,1.4-1.1,2.5-1.5
		c1-0.4,2.3-0.6,3.9-0.6l0,0h0.8c1.6,0,2.9,0.2,3.9,0.6c1,0.4,1.9,0.9,2.5,1.5c0.6,0.6,1,1.4,1.3,2.3c0.2,0.9,0.4,1.8,0.4,2.8l0,0
		v1.1c0,1-0.1,1.9-0.4,2.8c-0.2,0.9-0.7,1.6-1.3,2.3c-0.6,0.6-1.4,1.1-2.5,1.5c-1,0.4-2.3,0.6-3.9,0.6l0,0h-0.8
		c-1.6,0-2.9-0.2-3.9-0.6s-1.9-0.9-2.5-1.5c-0.6-0.6-1-1.4-1.3-2.3C-226.7-134-226.8-134.9-226.8-135.9L-226.8-135.9z M-222.9-136.5
		L-222.9-136.5c0,0.5,0,1.1,0.1,1.6c0.1,0.5,0.2,1,0.5,1.4c0.3,0.4,0.7,0.7,1.3,0.9c0.6,0.2,1.5,0.3,2.6,0.3l0,0
		c1.1,0,2-0.1,2.6-0.3c0.6-0.2,1.1-0.5,1.3-0.9c0.3-0.4,0.4-0.8,0.5-1.4c0.1-0.5,0.1-1,0.1-1.6l0,0c0-0.5,0-1.1-0.1-1.6
		c-0.1-0.5-0.2-0.9-0.5-1.3c-0.3-0.4-0.7-0.7-1.3-0.9c-0.6-0.2-1.5-0.4-2.6-0.4l0,0c-1.1,0-2,0.1-2.6,0.4c-0.6,0.2-1.1,0.5-1.3,0.9
		c-0.3,0.4-0.4,0.8-0.5,1.3C-222.9-137.5-222.9-137-222.9-136.5z"/>
	<path class="st1" d="M-195.3-129.3h-3.9v-11h-5.6v-3.4h15.1v3.4h-5.6V-129.3z"/>
	<path class="st1" d="M-184.4-135.9v-1.1c0-1,0.1-1.9,0.4-2.8c0.2-0.9,0.7-1.6,1.3-2.3c0.6-0.6,1.4-1.1,2.5-1.5
		c1-0.4,2.3-0.6,3.9-0.6l0,0h0.8c1.6,0,2.9,0.2,3.9,0.6c1,0.4,1.8,0.9,2.5,1.5c0.6,0.6,1,1.4,1.3,2.3c0.2,0.9,0.4,1.8,0.4,2.8l0,0
		v1.1c0,1-0.1,1.9-0.4,2.8c-0.2,0.9-0.7,1.6-1.3,2.3c-0.6,0.6-1.4,1.1-2.5,1.5c-1,0.4-2.3,0.6-3.9,0.6l0,0h-0.8
		c-1.6,0-2.9-0.2-3.9-0.6c-1-0.4-1.9-0.9-2.5-1.5c-0.6-0.6-1-1.4-1.3-2.3C-184.3-134-184.4-134.9-184.4-135.9L-184.4-135.9z
		 M-180.6-136.5L-180.6-136.5c0,0.5,0,1.1,0.1,1.6c0,0.5,0.2,1,0.5,1.4c0.3,0.4,0.7,0.7,1.3,0.9c0.6,0.2,1.5,0.3,2.6,0.3l0,0
		c1.1,0,2-0.1,2.6-0.3c0.6-0.2,1.1-0.5,1.3-0.9c0.3-0.4,0.4-0.8,0.5-1.4c0-0.5,0.1-1,0.1-1.6l0,0c0-0.5,0-1.1-0.1-1.6
		c-0.1-0.5-0.2-0.9-0.5-1.3c-0.3-0.4-0.7-0.7-1.3-0.9c-0.6-0.2-1.5-0.4-2.6-0.4l0,0c-1.1,0-2,0.1-2.6,0.4c-0.6,0.2-1,0.5-1.3,0.9
		c-0.3,0.4-0.4,0.8-0.5,1.3C-180.5-137.5-180.6-137-180.6-136.5z"/>
	<path class="st1" d="M-146.7-129.3h-3.8l-2.9-4.5c-0.8,0-1.5,0-2.2,0c-0.7,0-1.4-0.1-2.1-0.2l0,0v4.7h-3.9v-14.4
		c1.2-0.1,2.5-0.2,3.9-0.3c1.4-0.1,2.7-0.1,4-0.1l0,0h0.6c1.2,0,2.2,0.1,3,0.4c0.8,0.2,1.4,0.6,1.9,1c0.5,0.4,0.8,0.9,1,1.5
		s0.3,1.2,0.3,1.8l0,0v0.9c0,0.9-0.2,1.7-0.5,2.5c-0.4,0.7-1,1.3-1.9,1.7l0,0l2.7,4.2V-129.3z M-153.6-140.7L-153.6-140.7
		c-0.5,0-1.1,0-1.9,0c-0.7,0-1.5,0.1-2.2,0.1l0,0v3.1c0.7,0.1,1.3,0.1,1.9,0.2c0.6,0,1.1,0,1.5,0l0,0c0.9,0,1.5,0,2-0.1
		c0.5-0.1,0.8-0.2,1-0.4c0.2-0.2,0.4-0.4,0.4-0.6c0-0.2,0.1-0.5,0.1-0.9l0,0c0-0.2,0-0.4,0-0.5c0-0.2-0.1-0.3-0.3-0.5
		c-0.2-0.1-0.5-0.3-0.8-0.3C-152.4-140.6-152.9-140.7-153.6-140.7z"/>
	<path class="st1" d="M-141.8-143.7h3.3l2.9,9.5l2.9-9.5h2.7l2.9,9.5l2.9-9.5h3.4v0.9l-4.9,13.6h-2.6l-3-9.3l-2.9,9.3h-2.6
		l-4.9-13.6V-143.7z"/>
	<path class="st1" d="M-115.9-135.9v-1.1c0-1,0.1-1.9,0.4-2.8c0.2-0.9,0.7-1.6,1.3-2.3c0.6-0.6,1.4-1.1,2.5-1.5
		c1-0.4,2.3-0.6,3.9-0.6l0,0h0.8c1.6,0,2.9,0.2,3.9,0.6c1,0.4,1.8,0.9,2.5,1.5c0.6,0.6,1,1.4,1.3,2.3c0.2,0.9,0.4,1.8,0.4,2.8l0,0
		v1.1c0,1-0.1,1.9-0.4,2.8c-0.2,0.9-0.7,1.6-1.3,2.3c-0.6,0.6-1.4,1.1-2.5,1.5c-1,0.4-2.3,0.6-3.9,0.6l0,0h-0.8
		c-1.6,0-2.9-0.2-3.9-0.6s-1.9-0.9-2.5-1.5c-0.6-0.6-1-1.4-1.3-2.3C-115.8-134-115.9-134.9-115.9-135.9L-115.9-135.9z M-112.1-136.5
		L-112.1-136.5c0,0.5,0,1.1,0.1,1.6c0,0.5,0.2,1,0.5,1.4c0.3,0.4,0.7,0.7,1.3,0.9c0.6,0.2,1.5,0.3,2.6,0.3l0,0c1.1,0,2-0.1,2.6-0.3
		c0.6-0.2,1.1-0.5,1.3-0.9c0.3-0.4,0.4-0.8,0.5-1.4c0-0.5,0.1-1,0.1-1.6l0,0c0-0.5,0-1.1-0.1-1.6c-0.1-0.5-0.2-0.9-0.5-1.3
		c-0.3-0.4-0.7-0.7-1.3-0.9c-0.6-0.2-1.5-0.4-2.6-0.4l0,0c-1.1,0-2,0.1-2.6,0.4c-0.6,0.2-1.1,0.5-1.3,0.9c-0.3,0.4-0.4,0.8-0.5,1.3
		C-112-137.5-112.1-137-112.1-136.5z"/>
	<path class="st1" d="M-78.2-129.3h-3.7l-2.9-4.5c-0.8,0-1.5,0-2.2,0c-0.7,0-1.4-0.1-2.1-0.2l0,0v4.7H-93v-14.4
		c1.2-0.1,2.5-0.2,3.9-0.3c1.4-0.1,2.7-0.1,4-0.1l0,0h0.6c1.2,0,2.2,0.1,3,0.4c0.8,0.2,1.4,0.6,1.9,1c0.5,0.4,0.8,0.9,1,1.5
		s0.3,1.2,0.3,1.8l0,0v0.9c0,0.9-0.2,1.7-0.5,2.5c-0.4,0.7-1,1.3-1.9,1.7l0,0l2.7,4.2V-129.3z M-85.1-140.7L-85.1-140.7
		c-0.5,0-1.1,0-1.9,0c-0.7,0-1.5,0.1-2.2,0.1l0,0v3.1c0.7,0.1,1.3,0.1,1.9,0.2c0.6,0,1.1,0,1.5,0l0,0c0.9,0,1.5,0,2-0.1
		c0.5-0.1,0.8-0.2,1-0.4c0.2-0.2,0.4-0.4,0.4-0.6c0-0.2,0.1-0.5,0.1-0.9l0,0c0-0.2,0-0.4,0-0.5c0-0.2-0.1-0.3-0.3-0.5
		c-0.2-0.1-0.5-0.3-0.8-0.3C-83.8-140.6-84.4-140.7-85.1-140.7z"/>
	<path class="st0" d="M-72.6-130.1l5.3-6.4l-5.3-6.3v-0.9h3.8l3.8,4.5l3.8-4.5h3.8v0.9l-5.3,6.3l5.3,6.4v0.9h-3.8l-3.8-4.5l-3.8,4.5
		h-3.8V-130.1z"/>
	<path class="st0" d="M-52.2-130.1l5.3-6.4l-5.3-6.3v-0.9h3.8l3.8,4.5l3.8-4.5h3.8v0.9l-5.3,6.3l5.3,6.4v0.9h-3.8l-3.8-4.5l-3.8,4.5
		h-3.8V-130.1z"/>
</g>
</svg>
