<?xml version="1.0" encoding="utf-8"?>
<!-- Generator: Adobe Illustrator 24.1.2, SVG Export Plug-In . SVG Version: 6.00 Build 0)  -->
<svg version="1.1" id="Layer_1" xmlns="http://www.w3.org/2000/svg" xmlns:xlink="http://www.w3.org/1999/xlink" x="0px" y="0px"
	 viewBox="0 0 456.8 456.8" style="enable-background:new 0 0 456.8 456.8;" xml:space="preserve">
<style type="text/css">
	.st0{fill:#FF0000;}
	.st1{fill:#FFFFFF;}
</style>
<desc>Created with Fabric.js 3.6.3</desc>
<g transform="matrix(0.8176854765397916 0 0 0.8176854765397916 253 235)">
	<g>
		
			<g transform="matrix(0.051115861350236796 -0.9986927298816305 0.9986927298816305 0.051115861350236796 -0.006247642608244064 0.003494473616129312)">
			<circle cx="6.5" cy="-30.4" r="279.3"/>
		</g>
		<g transform="matrix(1 0 0 1 -0.0049999999999954525 0.09499999999999886)">
			<circle class="st0" cx="-30.1" cy="-7.9" r="252.9"/>
		</g>
		<g transform="matrix(1 0 0 1 -0.0049999999999954525 0.09499999999999886)">
			<circle class="st1" cx="-30.1" cy="-7.9" r="222.8"/>
		</g>
	</g>
</g>
<g transform="matrix(0.7322221945174103 0 0 0.7322221945174103 253 229)">
	<g>
		<g transform="matrix(1 0 0 1 -24.29264089802966 -11.751916505607486)">
			<path d="M-105.8-57.5c0,0.1,0,0.1,0,0.2c2.3,0.4,4.5,0.9,6.8,1.3c6.3-3.1,11.4-8.4,19-5.9c5.8,1.9,9.2,8.3,10.4,14
				c7.9,0.7,10.7,5.9,10.7,13.9c0.3,8.1,1.8,16.1,4.6,23.7c1.4,4.5,3.7,9.2,4,13.9c2.5,0.8,4.7,2.4,6.1,4.7
				c-1.4-5.9-3.6-11.5-6.6-16.8c-3.6-6.2-5.5-13.3-5.4-20.5c0.2-3,0.2-6.1,0.6-9c1.1-7.4-3.7-8.8-9.3-11.1c-0.6-0.2-1.1-0.7-1.4-1.2
				c-0.3-0.3-0.5-0.7-0.7-1.1c-2.3-6-4.8-10.8-11.4-12.5c-4-1.1-8.6-1.8-12.3,0.9c-4.2,3-7.8,5.9-12.6,4.1c-0.4,0.2-0.9,0.4-1.3,0.7
				C-105-58-105.4-57.8-105.8-57.5z"/>
		</g>
		<g transform="matrix(1 0 0 1 -17.143040928693615 2.7490265827337694)">
			<path d="M-53.9,0.7c2-4.2-2-7.3-5.6-8.6c-0.2,0-0.4-0.1-0.6-0.2c-0.4-0.1-0.7-0.2-1-0.3c-3.1-0.5-6.2-0.7-9.3-0.6l-0.1,0.1
				c-0.7,0.4-1.3,0.9-1.8,1.5c5.3-0.4,11.8-0.9,15.2,2.9c1.7,1.7,2.4,4.1,2.2,6.5C-54.5,1.6-54.1,1.2-53.9,0.7z"/>
		</g>
		<g transform="matrix(1 0 0 1 -20.966500000000003 5.534999999999997)">
			<path d="M-65.7,2.7c-0.9-0.8-1.8-1.7-2.6-2.6c-1.3-1.6-2.5-3.4-3.8-5c-1.2,1.7-2.3,3.5-3.1,5.4c3.4,2,6.5,4.4,9.4,7
				c0.8-0.9,1.6-1.8,2.5-2.6C-64.3,4.3-65.1,3.6-65.7,2.7z"/>
		</g>
		<g transform="matrix(1 0 0 1 -15.132055308898117 -15.454204073902424)">
			<path d="M-58.1-48c-1.8-0.8-3.9-0.8-5.6,0.1c3,1.1,4.9,3.9,5,7.1c0.2,5.2-1,10.3-1,15.5c0,1.6,0.1,3.2,0.3,4.8
				c1.1-0.6,2.3-1.2,3.6-1.6c-0.2-5,0-10.1,0.6-15.1C-55.1-40.6-54.2-46.3-58.1-48z"/>
		</g>
		<g transform="matrix(1 0 0 1 -16.182 -23.772000000000006)">
			<path d="M-52.9-40.6c0.1,0.2,0.2,0.3,0.3,0.5c0.9-1.5,2.2-2.8,3.8-3.6c-1.5-2.9-2.9-5.8-4.1-8.9c-6.7-2-13.6-3.6-20.6-5
				c2.1,1.7,3.8,3.7,5,6.1c0,0.1,0.1,0.2,0.1,0.3c1.7-0.2,3.3,0.4,4.5,1.6c1.6,1.7,2.2,4.1,1.6,6.4C-59-44.4-55.2-43.4-52.9-40.6z"
				/>
		</g>
		<g transform="matrix(1 0 0 1 -24.771 -25.96322111443727)">
			<path d="M-76.7-56.7c-3.3-0.9-11-3.6-11.9,1.1c0.3-0.1,0.6-0.2,0.9-0.3c3.8-0.7,7.6-0.4,11.2,0.8c4.7,1.4,8.7,4.3,11.4,8.3
				c0.6-0.5,1.3-0.9,2-1.2C-66.4-53.8-70.4-55-76.7-56.7z"/>
		</g>
		<g transform="matrix(1 0 0 1 -17.1365 9.704499999999989)">
			<path d="M-58.8,0.9c-1,0.7-2.2,1.1-3.4,1.4c-1.8,0.9-3.4,2.1-4.6,3.7c0,0-0.1,0.1-0.1,0.1c2.7,3,5.1,6.2,7.2,9.6
				C-59.7,10.9-59.1,5.8-58.8,0.9z"/>
		</g>
		<g transform="matrix(1 0 0 1 -18.946567025363564 -22.171578177635386)">
			<path d="M-69.2-47.6c0.6,1.2,1.2,2.5,1.8,3.9c1,0.3,2.1,0.6,3.2,1c1.2-1.7,2.5-4.5,0.7-6.1C-65.3-50.3-67.7-48.9-69.2-47.6z"/>
		</g>
		<g transform="matrix(1 0 0 1 -17.953477386613464 5.070081938907613)">
			<path d="M-63.7,3c0.1,0,0.1,0,0.2,0c0.2-0.2,0.4-0.3,0.6-0.4c1.5-0.5,1.4-3,0.5-4.1c-0.9-1.3-3.1-0.7-4,0.4
				c-0.3,0.6-0.3,1.4,0.2,1.9C-65.4,1.6-64.6,2.3-63.7,3z"/>
		</g>
		<g transform="matrix(1 0 0 1 -34.1235 -27.73)">
			<path d="M-93-55.6c3.4-2.3,8.2-3.6,11.3-1.3c0.3-0.5,0.7-0.9,1.2-1.3c-0.5-0.1-0.9-0.3-1.4-0.4c-4.2-1.8-8.5-3.1-13-4.1
				c-2.7,2.4-5.4,4.7-8.1,7c1.6,2.6,3.8,4.9,5.5,7.4C-97.3-51.3-95.6-54.1-93-55.6z"/>
		</g>
		<g transform="matrix(1 0 0 1 -39.57377799622948 -20.43465156952524)">
			<path d="M-105.8-43.1c-0.1,4.6,6.4,4.2,9.3,2.2C-95-47.4-105.8-48.9-105.8-43.1z"/>
		</g>
		<g transform="matrix(1 0 0 1 -5.3530000000000015 -16.382)">
			<path d="M-46.3-42.2c-0.4,0.2-0.8,0.4-1.1,0.6c2.7,3.9,5.5,7.7,8.2,11.5c0.4-0.4,0.8-0.8,1.2-1.2C-40.9-34.8-43.7-38.4-46.3-42.2
				z"/>
		</g>
		<g transform="matrix(1 0 0 1 -41.95200000000001 -18.526089091901227)">
			<path d="M-115.2-38c0.2,0.3,0.3,0.7,0.3,1.1c-0.2,1.7-2,5.2-1.4,6.7c1,2.1,2.3,4.1,4,5.8c2.8,3.6,5.1,7.8,9.8,7.4
				c0.1-1,0.3-2.1,0.4-3.1c-0.2,0.1-0.4,0.2-0.6,0.3c-0.2,0.2-0.5,0.3-0.7,0.4c-0.1,0-0.1,0.1-0.2,0.1c-0.8,0.5-1.8,0.3-2.2-0.5
				c-0.1-0.2-0.2-0.4-0.2-0.6c-4.1-2.5-6.6-7.5-8.4-11.8c-0.1-0.3-0.2-0.6-0.1-1c-0.3-0.6-0.1-1.3,0.4-1.8c1.4-1.2,3-2.1,4.7-2.7
				c0.3-0.1,0.6-0.2,0.9-0.2c0.5-0.2,1.1,0,1.5,0.4c2.8,3,5.4,6.2,8,9.4c3-1.7,5.2-2,5.4-6.3c0.1-1.6,0-3.2,0-4.9
				c-2.6,1.3-5.7,1.6-8.5,0.7c-3.5-1.2-5.4-4.9-4.2-8.4c0.1-0.2,0.1-0.4,0.2-0.6c1.7-3.8,6-5.6,9.9-4.2c1,0.4,1.8,0.9,2.6,1.5
				c0-0.5,0-1,0.1-1.5c0-0.1,0-0.1,0-0.2c-0.1-0.8,0.2-1.7,0.8-2.3c0.3-0.3,0.6-0.5,0.9-0.8c-1.8-2.7-3.7-5.4-5.8-7.9
				c-7.2,6.2-14.1,12.8-20.6,19.7c1.1,1.6,2,3.3,3.1,4.9C-115.3-38.1-115.3-38-115.2-38z"/>
		</g>
		<g transform="matrix(1 0 0 1 -18.157235503040095 4.0638423632489875)">
			<path d="M-57.9-2.6c-1.4-1.6-3.4-2.6-5.6-2.6c-2.9-0.2-5.7-0.2-8.6,0.1c0.9,1.3,1.9,2.5,2.8,3.8c0.4-0.8,1-1.5,1.8-1.9
				c2.5-1.9,6.1-1.4,8.1,1.1c0.2,0.2,0.3,0.5,0.5,0.7c0.6,1.4,0.8,2.9,0.5,4.4C-56.8,1.5-56.6-1-57.9-2.6z"/>
		</g>
		<g transform="matrix(1 0 0 1 -13.030805946715457 -7.0246522370038385)">
			<path d="M-51.1-23.1c-0.1-0.2-0.2-0.4-0.3-0.6c-2.6-4.2-5.9-2.9-9.2-0.7c0.9,2.9,2,5.7,3.4,8.4c0.4,0.7,0.7,1.4,1.1,2.2
				c1.1-0.8,2.2-1.8,3.2-2.8C-51.4-18.5-50.7-20.8-51.1-23.1z"/>
		</g>
		<g transform="matrix(1 0 0 1 -15.485424986726308 21.08455809184639)">
			<path d="M-63.6,34c4.7,0.1,12.5-3,8.8-9c-0.2-0.3-0.5-0.7-0.8-1c-0.2-0.2-0.4-0.4-0.6-0.6c-0.2-0.2-0.4-0.3-0.6-0.5
				c-0.2-0.1-0.3-0.2-0.5-0.4c-2.3-1.2-5.1-1.2-7.5-0.1c-0.3,0.1-0.6,0.3-0.9,0.5c-0.1,0.1-0.3,0.2-0.4,0.3c1,3.2,1.8,6.4,2.3,9.7
				C-63.7,33.3-63.7,33.7-63.6,34z"/>
		</g>
		<g transform="matrix(1 0 0 1 -25.449500000000008 11.284957513148449)">
			<path d="M-57.3,29.8c2.6-1.5,5.3-2.8,7.9-4.4C-54.8,12.5-63.2,1.2-76.3-4.5c-8.9-4.1-19.2-4.2-28.2-0.3c7.1,0.3,14,2.1,20.3,5.3
				C-71.9,6.5-62.3,17-57.3,29.8z"/>
		</g>
		<g transform="matrix(1 0 0 1 -13.760712566371637 10.303000000000033)">
			<path d="M-57.2,23.3c0.1-0.1,0.2-0.1,0.3-0.2c0-9.7,1.7-18.7,2.6-28.3c0-0.1,0-0.2,0-0.3c-1.1,1.7-2.6,3-4.4,3.9
				c-0.3,8.3-2.5,17.8,0.4,25.8C-57.9,23.9-57.5,23.6-57.2,23.3z"/>
		</g>
		<g transform="matrix(1 0 0 1 1.075499999999991 -36.4105)">
			<path d="M-127.2-59.5c0,0.1,0.1,0.2,0.1,0.4c3.9,1,7.4,2.6,11.4,3.7c5,1.3,10,1.9,15,2.9c10.4,2.1,20.8,4,31,6.8
				c0.3-0.3,0.7-0.5,1.1-0.6c23.3-7.2,46.5-14.4,69.8-21.6C22-74.2,43.3-79.8,64-86.5c-5.7-1.1-11.6-1.7-17.2-3.2
				c-7.5-2.4-15.1-4.1-22.9-5.2c-0.2,0-0.3-0.1-0.4-0.1c-25.9,6.8-52.7,10.4-78.8,16.2c-13.4,3-27,5.7-40.1,9.8
				c-10.6,3.3-20.8,8.5-32,8.9c0,0,0,0.1,0,0.1C-127.4-59.9-127.3-59.7-127.2-59.5z"/>
		</g>
		<g transform="matrix(1 0 0 1 22.855999999999995 -15.01550000000001)">
			<path d="M-86.6-62.9c2.4,6,5.4,11.7,9.1,17.1c0.8-0.4,1.6-0.8,2.4-1.2c0.4-0.2,0.8-0.2,1.2-0.2c0.7-0.2,1.4,0.1,1.8,0.8
				c2.5,4.8,6.5,8.4,9.6,12.8c0.5,0.6,0.4,1.4-0.2,1.9c-0.1,0.3-0.2,0.6-0.4,0.8c-0.7,0.7-1.4,1.4-2.1,2.2c2.9,3.9,5.7,7.9,8.1,11.9
				c1.8-1.3,3.7-2.3,6-0.8c2.6,1.9,4.4,4.7,4.9,7.9c0,0.2,0,0.4,0,0.5c0.1,0.5,0,1.1-0.4,1.5c-1,1-2.1,1.9-3.2,2.9
				c2.8,4.7,5.7,9.3,8.7,13.9c1-0.6,2.1-1.1,3.1-1.5c0.5-0.5,1.4-0.7,2-0.3c3.7,1.8,7,4.4,9.5,7.6c0.6,0.7,0.6,1.7,0,2.4
				c-1.7,1.9-3.7,3.4-6,4.4c2.8,3.7,5.7,7.3,8.8,10.7c2-1.1,4-1.9,6.2-2.4c0.1,0,0.2,0,0.3,0c1-0.4,2.2-0.2,3,0.6
				c1.4,1.7,2.8,3.4,4.3,4.9c2.1-1.2,4.2-2.3,6.3-3.5C-0.2,17.6,12.2,12,26.2,12h0.1c0.6-0.1,1.2,0.1,1.7,0.4c2.8,1.6,4.2-0.1,4.2-3
				c0.1-0.9,0.3-1.7,0.8-2.5c5.4-6.6,16.1-12.6,24.4-8.1c3.9-2,4.4-8.4,8.8-10.6c4.8-2.6,10.4-3.4,15.8-2c0.2-0.1,0.3-0.2,0.4-0.3
				c0.1-4,1.6-7.8,4.4-10.7c3.2-2.4,6.8-4.1,10.6-5c-8.6-11.4-15.9-24-24.3-35.6c-4.6-6.2-9-12.1-13-18.8
				c-3.6-6.1-7.2-12.4-12.9-16.7c-0.2-0.2-0.4-0.4-0.6-0.6c-0.6-0.3-1.1-0.9-1.3-1.6c-21.3,7-43,12.7-64.5,19.3
				C-41.6-76.9-64.1-69.9-86.6-62.9z M-12.1,15.9c-13.2,3.2-26.6-13.9-31.3-24c-3-6.5-9.4-23.2,1.8-26.2
				c15.7-4.2,27.7,8.3,34.5,21.2C-3-4,1.3,12.6-12.1,15.9z M20,2.3C7.5,5.3-5.1-11.1-9.4-20.6C-12-26.4-18.2-42.2-7.9-45
				c14.8-4,26,8,32.4,20.1C28.3-16.5,32.4-0.8,20,2.3z M35.5-18.4c-9.1-6-15.8-15-19.2-25.3c-2.5-7.2-2.3-14.8,7.1-14.5
				c7.1,0.5,13.6,4,18,9.7c5.1,7,11.1,13.1,13.1,21.8C57.5-12.6,44.1-12.3,35.5-18.4L35.5-18.4z M63.5-61.7
				C63.5-61.7,63.5-61.6,63.5-61.7c0.1,0.1,0.2,0.1,0.2,0.2c7.7,6.7,19.7,20,14.5,31.3c-5.2,11.4-17.8,3.7-23.7-2.9
				C47.9-40.4,37.8-53.9,43.7-64C47.6-70.6,59.3-64.8,63.5-61.7L63.5-61.7z M-15.4-77.6c0.4-0.1,0.7,0,1,0.3c1.2,1.2,3.6,4,5.5,3.5
				c2.2-0.6,1.4-3.7,0.3-5.1c-0.2-0.2-0.3-0.4-0.3-0.7C-9.2-80-9.1-80.7-8.7-81c0,0,0.1,0,0.1-0.1C-2.3-84.9,5-85.4,12-87.3
				c0.1,0,0.2,0,0.3,0c0.5-0.3,1.1-0.1,1.5,0.4c1,1.8,2.8,3,4.8,3.5c2.2,0.2,1.2-2.5,0.7-3.7c0-0.1,0-0.2-0.1-0.2
				c-0.4-0.4-0.4-1,0-1.4c0,0,0.1-0.1,0.1-0.1c5.1-4.3,12.3-3.8,18.4-5.7h0c0.5,0,1.3-0.4,1.7,0.3c3.5,4.9,6,10.6,10.1,15.1
				c0.1,0.1,0.1,0.2,0.1,0.3c0.4,0.4,0.5,0.9,0.3,1.4c0.1,0.5-0.3,0.9-0.8,1c-0.2,0.1-0.4,0.1-0.6,0.2c-0.2,0.1-0.4,0.2-0.6,0.3
				c-0.1,0-0.2,0-0.2,0c-0.8,0.3-1.5,0.8-2.1,1.4c-0.4,0.4-1.1,0.4-1.5,0c0-0.1-0.1-0.1-0.1-0.2c-0.1,0-0.2-0.1-0.2-0.1
				c-1.2-1.1-3.4-4.3-5.4-3.7c-2.2,0.6-1.1,4.1-0.3,5.5c0.2,0.8-0.2,1.5-1,1.8c-6.1,2-11.1,6.5-17.8,6.3c-0.5,0-0.9-0.3-1-0.8
				c0,0-0.1,0-0.1-0.1c-1.1-1.7-3.4-4.1-5.8-3.4c-2.4,0.7-1,4-0.3,5.4c0.3,0.6,0.1,1.3-0.5,1.6c-0.1,0.1-0.2,0.1-0.3,0.1
				c0,0,0,0,0,0l0,0C4.6-59-2.5-56.7-9.7-55.5c-0.4,0.1-0.8-0.1-1-0.3c-0.1-0.1-0.3-0.2-0.4-0.3c-1.4-1.4-3.4-6.1-5.9-5.5
				c-3.2,0.9-2.5,4.9-1,7.1c0.2,0.3,0.2,0.6,0.1,0.9c0,0.5-0.3,0.9-0.8,1.1c-7.9,2.2-14.7,7.2-22.8,8.7c-0.5,0.1-1-0.2-1.2-0.6
				c-0.1-0.1-0.1-0.1-0.2-0.2c-0.7-1.3-1.5-2.5-2.5-3.5c-3.5-3-6.1-2.9-7.7,0.4c0.1,1.2,0.3,2.4,0.5,3.6c0.3,1.4,0.3,2.9,0,4.3
				c-0.7,2.9-4.6,3.1-6.8,2.3c-7.5-2.7-12.9-14.5-15.4-21.4c-0.1-0.2-0.1-0.5,0-0.7c0-0.5,0.3-0.9,0.8-1c8.5-2.4,16.6-5.8,25.3-7.5
				c0.2,0,0.4,0,0.6,0c0.6-0.1,1.2,0.3,1.3,0.9c0,0,0,0.1,0,0.1c0.3,2.2,2.3,3.8,4.6,3.6c2.8-0.2,2.5-2.8,1.6-4.8c0,0,0-0.1,0-0.1
				c-0.4-0.5-0.3-1.3,0.3-1.7c0.1-0.1,0.2-0.1,0.3-0.2c7.8-3,15.9-5.5,24-7.5C-15.8-77.7-15.6-77.7-15.4-77.6z"/>
		</g>
		<g transform="matrix(1 0 0 1 33.466000000000015 -32.54200000000001)">
			<path d="M18.7-52.8c2-1.1,4.1-2.1,6.2-2.9c-1-2.6-1.3-6.2,1.6-7.4c3.1-1.3,5.7,1.6,7.8,3.7c0.7-0.6,1.6-1,2.4-1.4
				c-3.3-4.5-6.4-9.1-9.3-13.9c-5.4,1.5-12,1.2-16.7,4.6c0.7,1.9,1.1,4.4-0.2,5.7C13.2-60.5,16.2-56.9,18.7-52.8z"/>
		</g>
		<g transform="matrix(1 0 0 1 1.2014999999999958 -21.89599551233153)">
			<path d="M-21.2-54.3c-2.7-0.1-5.1-2-5.9-4.6c-8,1.7-15.6,4.7-23.5,7c1.8,4.6,4.2,8.9,7.1,12.9c1.6,2.2,4.3,6,7.2,6.6
				c5.3,1,2.7-5.4,2.6-7.4c-0.2-3.5,1.6-5,4.9-5.6c4.1-0.7,7.3,3,9.1,6.2c2.4-0.6,4.7-1.3,7-2.3c0,0,0,0,0-0.1
				C-14.9-46.2-18.9-49.7-21.2-54.3z"/>
		</g>
		<g transform="matrix(1 0 0 1 13.203000000000003 -25.542)">
			<path d="M-30.8-50.9c2.3,4.2,5.9,7.5,8.2,11.8c0,0.1,0.1,0.2,0.1,0.3c3.8-1.9,7.7-3.5,11.7-4.9c-1.5-3-1.6-7.5,1.8-9.1
				c4.6-2.1,6.4,3,9,5.6c3-0.5,5.9-1.2,8.7-2.1c-3.2-3.5-6-7.4-8.2-11.6c-2.4,0.1-4.9-2.3-6.5-3.9c-7.7,1.9-15.2,4.2-22.6,7
				c0.8,1.6,0.8,3.5,0.1,5.1C-29-51.9-29.8-51.3-30.8-50.9z"/>
		</g>
		<g transform="matrix(1 0 0 1 24.57699999999999 -29.422000000000004)">
			<path d="M-8.7-57.9c2.2,4.2,4.9,8,8.2,11.4c0.1,0.1,0.1,0.2,0.2,0.3c2.8-1,5.5-2.1,8.2-3.4c-1.1-2.7-1.5-6.5,1.9-7.5
				c3.4-1,6.5,1.5,8.3,4.2c2.6-0.1,5.1-0.8,7.4-2c-2.5-4.1-5.6-7.9-8.3-11.9c-2.7-0.2-5.1-1.6-6.6-3.8c-6.3,1.7-13,2.2-18.8,5.4
				C-6.4-63.1-6.6-59.9-8.7-57.9z"/>
		</g>
		<g transform="matrix(1 0 0 1 11.39455037819181 -6.121966507827388)">
			<path d="M-24.3-40.8c-13.8,1.5-8.1,16-3.9,23.8C-24-9.3-17,0.2-8.1,2.8c17.1,5,13.7-13.9,9.6-23C-3.2-29.2-12.6-42.1-24.3-40.8z"
				/>
		</g>
		<g transform="matrix(1 0 0 1 43.25175276638227 -19.40745105254029)">
			<path d="M24.3-56.5c-1.5,9.1,4,18.1,9.9,24.6c3.2,3.6,7.3,8.1,12.3,9.3c7.9,1.9,11.4-5.7,9.6-12.3c-2.6-8.2-7.5-15.3-14.3-20.6
				C38.2-58.1,25.6-64.5,24.3-56.5z"/>
		</g>
		<g transform="matrix(1 0 0 1 23.521489464371967 -10.60906561713331)">
			<path d="M-3.2-48.1c-13.8,1.5-8.3,15.9-4.1,23.6C-3.2-17,3.5-7.8,12.2-5.2c17.6,5.1,13.6-14.2,9.7-22.9
				C17.3-36.8,8.3-49.4-3.2-48.1z"/>
		</g>
		<g transform="matrix(1 0 0 1 33.74630970592786 -15.83192711001907)">
			<path d="M12.4-55.2c-13.9-0.4,0.2,25.8,6.1,30.7c3.8,3.1,11.4,9.6,16.6,9.2c10.5-0.8,5.8-13.9,3-18.2
				C31.8-43.4,24.9-53.6,12.4-55.2z"/>
		</g>
		<g transform="matrix(1 0 0 1 -28.241999999999997 -8.672797563034084)">
			<path d="M-109.8-33.2c0,0.2,0,0.4-0.1,0.6c-2.7,13.7-1.9,27.7-3.3,41.6c-0.1,0.5-0.3,1-0.6,1.4c0.5,2,0.8,4.1,0.9,6.2
				c1.3-0.3,2.6-0.5,3.9-0.8c10-7.4,23.1-9.1,34.6-4.4c1.1,0.5,2.3,1,3.4,1.6c1.3-2.6,2.8-5.1,4.4-7.4c0,0,0,0,0.1-0.1
				c0.1-0.6,0.6-1,1.1-1.1c0.9-1.8,2.2-3.4,3.9-4.5c0.3-0.5,0.8-0.8,1.3-0.8c3.4-0.2,6.9,0,10.3,0.5c-0.7-8.9-6.7-18.3-8.2-27
				c-1.4-7.7,3-20.1-8.9-20.4c-0.7,0-1.3-0.4-1.5-1c-0.1-0.2-0.3-0.4-0.3-0.7c-1.1-5.6-5.7-14.9-13-12.8c-4.6,1.3-8.1,4.5-12.3,6.5
				c-0.4,0.2-1,0.2-1.4,0c-0.1,0-0.2,0-0.3,0c-2-0.4-4.1-0.8-6.1-1.2c0,3,0.1,6,0.1,9c0.3,2.9,0,5.8-0.7,8.6
				C-104-35.9-106.8-34.9-109.8-33.2z"/>
		</g>
		<g transform="matrix(1 0 0 1 52.79750000000001 -23.208000000000002)">
			<path d="M51.5-62.9c-1.6,0.2-3.2,0.5-4.7,1c6.9,9.5,13,19.5,19.7,29.2C65.7-44.4,60.3-55.3,51.5-62.9z"/>
		</g>
		<g transform="matrix(1 0 0 1 -7.423499999999986 -10.349999999999994)">
			<path d="M-51.1-0.3c0.5-0.5,1.3-0.6,1.9-0.2c3.6,2.3,6.7,1,9.6-1.7c1.9-1.4,3.6-3.1,5-5.1c2.1-3.6,1.6-8.1,2.4-12.1
				C-39.5-31.1-49-42.1-56-54.2c-4.9,3-2.3,7-2.8,11.9c-0.5,5.2-2.7,9.5,0.2,14.4c0,0.1,0.1,0.2,0.1,0.2c1.7,0.7,3.1,2.1,3.8,3.8
				c0.5,0.8,0.8,1.6,0.9,2.5v0c1.9,3.5,0.2,6.9-2.1,9.7c-1.2,1.6-2.7,3-4.4,4.2c1.6,3.2,3,6.5,4.2,9.8C-54.5,1.4-52.8,0.4-51.1-0.3z
				 M-38-22.1c0.5-0.3,1.1-0.4,1.7-0.3c0.1,0,0.2,0.1,0.3,0.2c0.3,0,0.6,0.1,0.8,0.2c0.5,0.4,0.9,0.9,1,1.6c0.2,0.9-0.3,1.8-1.2,2.1
				c-1.3,0.5-2.7-0.2-3.2-1.5C-39.1-20.6-38.8-21.6-38-22.1L-38-22.1z M-42.9-19.7c0.6-0.5,1.5-0.5,2,0.1c0,0,0,0,0,0
				c2.2,2.3,4.1,5,5.6,7.9c0.2,0.3,0.2,0.7,0.1,1.1c0.2,0.6,0,1.2-0.4,1.6c-2.5,2.8-5.4,5.2-8.6,7.1c-0.5,0.3-1.2,0.3-1.7-0.1
				c-0.5-0.1-0.9-0.3-1.2-0.7c-1.8-2.4-3.5-4.9-5.1-7.5c-0.5-0.5-0.7-1.3-0.4-2c1.6-3.8,5.9-4.9,8.8-7.2
				C-43.5-19.5-43.2-19.6-42.9-19.7z M-52.3-40.8c0.3,0,0.6,0,0.9,0.1c3.6-0.1,6.7,2.7,6.8,6.4c0.1,3.7-2.8,6.8-6.5,6.9
				c-3.7,0.1-6.8-2.8-6.9-6.5C-58.2-37.4-55.7-40.3-52.3-40.8z M-55.2-6.9c1-1.2,2.8-1.3,4-0.3c1.2,1,1.3,2.8,0.3,4
				C-51-3-51.1-2.8-51.3-2.7c-1.2,1-2.9,0.9-4-0.3c-0.1-0.1-0.2-0.3-0.3-0.5c-0.1-0.1-0.1-0.3-0.2-0.4c0-0.1-0.1-0.2-0.1-0.2v0
				C-56.2-5.1-56-6.2-55.2-6.9z"/>
		</g>
		<g transform="matrix(1 0 0 1 -10.503418057504668 14.412500000000001)">
			<path d="M-49,16.2c-1-2.2-2.9-3.9-5.2-4.7c-0.1,1.9-0.2,3.7-0.2,5.6c1.9,1.6,4,2.9,6,4.3C-48.3,19.6-48.5,17.8-49,16.2z"/>
		</g>
		<g transform="matrix(1 0 0 1 -32.962833237879025 -26.22165923179645)">
			<path d="M-92.1-54.7c-1.2,0.8-3.9,2.9-3.5,4.5c0.7-0.2,1.5-0.1,2.2,0.2c2.4,1.4,6.1-1.4,9.4-3.5c-0.1-0.2-0.4-0.4-0.4-0.6v0
				C-84.4-57.7-89.6-56.3-92.1-54.7z"/>
		</g>
		<g transform="matrix(1 0 0 1 -9.353718381402874 -13.383342304181621)">
			<path d="M-49.9-34.3c-0.1,0-0.2,0-0.3-0.1c-1.8,0.4-2.9,2.2-2.5,4c0.3,1.4,1.5,2.4,3,2.6c1.8,0.2,3.4-1.2,3.6-3
				c0.2-1.8-1.2-3.4-3-3.6C-49.4-34.3-49.7-34.3-49.9-34.3z"/>
		</g>
		<g transform="matrix(1 0 0 1 -6.525500000000001 -4.75749999999999)">
			<path d="M-39.5-16.3c-1.1-2-2.4-3.8-3.9-5.5c-2.5,1.1-4.7,2.7-6.6,4.7c1.3,2.1,2.7,4.1,4.1,6.1C-43.5-12.4-41.3-14.2-39.5-16.3z"
				/>
		</g>
		<g transform="matrix(1 0 0 1 7.890500000000003 2.916000000000011)">
			<path d="M-21.9-7.3c-0.9,0.3-1.7,0.7-2.5,1.2c1.6,2.3,3.2,4.7,4.8,6.9c1.5-0.8,2.8-1.7,4-2.9C-17.4-4.2-19.5-6-21.9-7.3z"/>
		</g>
		<g transform="matrix(1 0 0 1 1.390500000000003 -6.701536587826343)">
			<path d="M-34.1-22.4c1.3,2.1,2.5,4.2,3.8,6.3c0.7-0.6,1.3-1.1,2-1.8c-0.4-1.9-1.3-3.6-2.7-4.9C-32.1-23.6-33.1-23.1-34.1-22.4z"
				/>
		</g>
		<g transform="matrix(1 0 0 1 -14.420978338339577 29.46052153828149)">
			<path d="M-57.1,38.2c-1.1-0.3-3.7-1-4.7,0c0,0.1,0,0.1-0.1,0.2c-0.1,0.2-0.2,0.5-0.3,0.7c0,0.1,0,0.1-0.1,0.2
				c0,0.3-0.1,0.5-0.2,0.8c-0.5,2.8,1.2,5.6,3.9,6.5c1.7,0.4,3.5-0.3,4.7-1.6c0-1.6,0.1-3.1,0.1-4.7C-54.7,39.2-55.8,38.5-57.1,38.2
				z"/>
		</g>
		<g transform="matrix(1 0 0 1 -15.813500000000001 35.24799999999998)">
			<path d="M-58.5,43.8c-2-0.8-3.6-2.2-4.7-4.1c-0.8,6.4-2.6,12.7-5.3,18.6c4.9,1.8,9.7,4,14.6,5.9c0.6-7,1-14,1.2-20.9
				C-54.4,44.3-56.6,44.5-58.5,43.8z"/>
		</g>
		<g transform="matrix(1 0 0 1 -14.660972249152604 25.051500000000004)">
			<path d="M-64.1,33.4c0.2,2.2,0.3,4.4,0.3,6.6c2.4-2.1,7-1.6,10.3,0.4c0.3-3.9,0.4-7.8,0.2-11.7C-55.9,31.8-59.9,33.6-64.1,33.4z"
				/>
		</g>
		<g transform="matrix(1 0 0 1 -11.959428134880149 27.673999999999992)">
			<path d="M-53,47.5c-0.2,7.4-0.6,14.7-1.2,22.1c2.2-1.4,4.3-2.9,6.5-4.3c0,0,0.1,0,0.1,0c-0.5-9.4,0.2-19,0.3-28.1
				c0-5.9,1.3-12.1,0.6-17.9c-0.7-5.8-5.3-7.7-9.3-10.6c-0.2,0-0.3,0-0.5-0.1c-0.6,0.5-1.2,1-1.9,1.4c-0.9,0.8-1.9,1.5-3,2.1
				c0.4,0.1,0.8,0.3,1.2,0.5c2.1,0.8,3.8,2.3,4.8,4.2c2.2,3.8,3.2,8.2,2.9,12.6c-0.1,4-0.2,8-0.2,12c0.7,1.4,0.9,3,0.5,4.5
				C-52.4,46.4-52.7,47-53,47.5z"/>
		</g>
		<g transform="matrix(1 0 0 1 -10.518499999999996 39.91599999999999)">
			<path d="M-55.1,61c2.4,0.8,4.8,1.5,7.3,2c-0.4-2.1-0.7-4.1-0.9-6.2C-50.9,58.3-52.9,59.7-55.1,61z"/>
		</g>
		<g transform="matrix(1 0 0 1 -6.74172215583101 36.188)">
			<path d="M-47,43.4c-0.3,6.8-0.1,13.6,0.5,20.3c0.4,0,0.8,0,1.1,0.1c0,0,0,0,0-0.1c0.4-0.6,1-1.1,1.7-1.3
				C-42.8,56.5-41.7,43.6-47,43.4z"/>
		</g>
		<g transform="matrix(1 0 0 1 -24.480226045392424 21.321999999999996)">
			<path d="M-61.3,28.9c-4.3-15.8-14.3-29.7-30.2-35c11,6.5,19.6,16.4,24.8,28.1c5.1,11.2,7,23.6,5.6,35.8c-0.2,1.6-0.4,3.2-0.8,4.8
				c0.1,0,0.1,0,0.2-0.1C-58.5,51.6-58.3,39.9-61.3,28.9z"/>
		</g>
		<g transform="matrix(1 0 0 1 -32.16257372543694 25.922999999999995)">
			<path d="M-113.6-10.3c-0.4,0.1-0.7,0.2-1,0.3c11.1,2.6,21.4,8,29.8,15.7C-75.1,15.9-69.1,29-67.7,43c1.4,12.5,2.5,27.7-3.9,39.2
				l-0.1,0.2c6.4-6.8,9.8-15.9,9.4-25.3c0-10.6-1.9-21-5.6-31C-76,5.2-91.6-7.3-113.6-10.3z"/>
		</g>
		<g transform="matrix(1 0 0 1 -29.64351316032948 20.99649999999999)">
			<path d="M-103-8.4c-1.4,0.1-2.9,0.2-4.3,0.4c-0.6,0.2-1.2,0.3-1.9,0.5c18.8,3.9,34.3,17.1,41,35.1c4.7,11.4,7,23.7,6.8,36.1
				c3.6-12.3,2.8-25.5-2.2-37.3C-71,8.4-84.5-4.9-103-8.4z"/>
		</g>
		<g transform="matrix(1 0 0 1 41.67100000000002 5.651820244059028)">
			<path d="M46.4-22.4c-1.3,3-3.9,5.3-7.1,6.3c-0.6,0.2-1.4,0.2-2-0.1c-0.2-0.1-0.5-0.2-0.7-0.3c-2-1.2-4.4-1.6-6.7-1
				c0,16.1-1.9,32.1-5.5,47.8C29,31.8,41,21.6,45.4,18.5c2.4-15.2,3.4-30.7,5.4-45.9C48.9-26.1,47.4-24.4,46.4-22.4z"/>
		</g>
		<g transform="matrix(1 0 0 1 55.123 -1.7513826160153911)">
			<path d="M54.4,15.3c1,0.1,2-0.1,2.8-0.6c0-0.2,0-0.4,0.1-0.6c3.7-16.9,7-34.5,9.4-51.7c-1.2,0.4-2.6,0.8-3.9,1.2
				C62.1-18.9,57.9-1.9,54.4,15.3z"/>
		</g>
		<g transform="matrix(1 0 0 1 50.97099999999999 -1.2595000000000098)">
			<path d="M62.8-34.6c-1.9,2.2-2.9,5.1-2.9,8c0,0.3-0.1,0.6-0.2,0.9c-0.2,0.7-0.6,1.4-1.3,1.8c-0.7,0.4-1.4,0.9-2,1.4
				C55.9-22.1,55.5-22,55-22c-0.6,0.2-1.2,0.2-1.8,0c-1.9-0.6-3.9-0.8-5.9-0.7c-1.6,11.4-2.6,22.9-3.9,34.3c2.9,1,5.9,1.8,9,2.3
				c0.5,0.1,1.6,0.3,2.8,0.5c3.3-16.5,7.3-32.8,8.3-49.6C63.3-35,63-34.8,62.8-34.6z"/>
		</g>
		<g transform="matrix(1 0 0 1 -40.39369169381467 28.437407030294573)">
			<path d="M-117.2-8.2c-15.8,0.4-23.6,15.8-23.9,29.9c-0.5,23.1,7.6,45.9,27.4,59.5c16.9,11.6,43.1,12.3,48.2-11.8
				c4.5-21,0.4-46.6-15-62.1C-90.6-2-103.2-8.6-117.2-8.2z M-71.5,67.6c-6.1,16.7-26,16.6-39.5,8.9c-19.6-11.3-29.9-40.7-18.9-61.5
				c4.3-8.2,14.3-17.7,24.7-14.4c0.5,0.1,0.9,0.3,1.4,0.5c0.4,0,0.8,0.1,1.1,0.4c9.7,3.1,18.2,9.1,24.4,17.1
				C-69.5,32.2-65.8,52-71.5,67.6z"/>
		</g>
		<g transform="matrix(1 0 0 1 52.16107758219879 -25.287667005200042)">
			<path d="M38.5-72.5c1.7,2.9,3.6,5.7,5.7,8.4c0.4,0.5,0.7,1,1.1,1.4c2.2-0.7,4.6-1.2,6.9-1.5c0.3,0,0.5,0,0.8,0.1
				c0.4,0,0.8,0.2,1,0.4c9.9,8.4,15.9,20.5,16.5,33.4c0.4-0.2,0.7-0.4,1.1-0.6C76.4-54.4,62.4-72.6,38.5-72.5z"/>
		</g>
		<g transform="matrix(1 0 0 1 22.2035 15.648499999999984)">
			<path d="M38.5-20.7c0.1,3-1.4,5.9-3.9,7.6c-2.5,1.4-5.5,1.4-8,0C14.8-13,4.8-8.8,2.3,3.8C2.1,4.7,1.5,5.4,0.6,5.7
				c0,0-0.1,0.1-0.1,0.1c-2.7,1.6-5.5,3-8.1,4.5c-0.6,0.4-1.4,0.5-2.1,0.3c-0.8,0.1-1.7-0.1-2.3-0.7C-13.6,8.3-15,6.7-16.4,5
				c-1.5,0.4-2.9,1-4.3,1.8c-0.2,6,0.5,14.5-4,18.5c-2.1,1.8-4.9,2.5-7.6,2.1c-1.6,1.9-3.4,3.5-5.1,5.2c3,10.2,1.4,20.5,1,31
				c10.2-6.6,20-14,30.4-20.3c14.4-8.7,29.2-17.1,44.3-24.5c0.7-0.7,1.7-0.9,2.6-0.8c3.3-14.6,5-29.4,5.1-44.3
				C43.3-25,40.7-23.1,38.5-20.7z"/>
		</g>
		<g transform="matrix(1 0 0 1 -42.3785 -14.392500000000002)">
			<path d="M-110.9-37.2c1.6,3.6,3.8,8.4,7.4,10.1c0.8-0.4,1.5-1,2.1-1.8c0.1-0.2,0.3-0.3,0.4-0.4c0-0.1,0-0.1,0-0.2
				c-2.5-3.1-4.9-6.1-7.6-9C-109.4-38.1-110.1-37.7-110.9-37.2z"/>
		</g>
		<g transform="matrix(1 0 0 1 2.8765000000000107 28.563999999999986)">
			<path d="M-20.6,17.4c0-0.1,0-0.1,0.1-0.2c1.4-1.4,2.8-2.7,4.1-4.1c-1.5-0.8-2.8-2-3.7-3.5c-6.8,4.8-12.5,11-19.4,15.7
				c-0.2,7.2-0.9,14.4-1.3,21.6c5.3,5,9.4,15.2,2.8,20.2c0,1.4-0.2,2.9-0.5,4.3c1.8-0.8,3.5-1.7,5.1-2.7c0.4-2.6,0.7-5.1,1.1-7.7
				c0.1-0.4,0.3-0.8,0.5-1.1c0.2-0.6,0.7-1,1.2-1.3c3.4-1.8,6.8-3.8,10-5.9c0.2-11.3,2.5-22.4-1.1-33.4c-0.3-0.8,0.1-1.6,0.9-1.9
				C-20.7,17.5-20.7,17.4-20.6,17.4z"/>
		</g>
		<g transform="matrix(1 0 0 1 -0.27649999999999864 17.000499999999988)">
			<path d="M-42.5,61.8c-0.8-0.6-1.2-1.6-0.8-2.6c0-0.1,0-0.2,0-0.3c0.5-7.8,1.3-15.6,1.4-23.4c0-1.1,0.6-2,1.6-2.4
				c0.2-0.2,0.3-0.3,0.5-0.5c8.2-5.3,14.5-13,22.9-18c1.2-0.8,2.8-0.4,3.6,0.8c0,0.1,0.1,0.1,0.1,0.2c0.3,0.4,0.6,0.9,0.6,1.4
				c0.4,2.4,2.6,4,4.9,3.7c1.9-0.3,2.5-2.6,2.8-4.2C-4.2,12.6-3.9,8.8-3.9,5c-12.9-13.8-23-30.9-32.7-47.1c-0.1,2-0.3,3.9-0.8,5.8
				c-1,2.9-2.8,5.4-5.1,7.4c-3.2,3-6.5,5.6-10.3,5.6c-1.5,0-3-0.4-4.3-1.2c-1.8,0.8-3.5,1.8-5.1,3c0.5,2.2,0.6,4.4,0.4,6.6
				c-0.6,6.8-1.6,13.5-2.3,20.3c3.3,1,6.2,3.2,7.8,6.3c1.2,3.1,1.4,6.6,0.6,9.8c0.7,0.8,1.3,1.7,1.8,2.6c1.3,3.2,1.7,6.8,1.3,10.2
				C-41.8,35-41.9,54-53.1,55.8c0,0.3-0.1,0.7-0.4,0.9v2.5c9,0,7.8,15.4,6.7,23.2c1.7,0.6,3.6,1.1,5.4,1.3c0.7-2.1,1-4.4,0.9-6.7
				c-0.1-1.3,0.8-2.5,2.1-2.7C-34.1,71.7-39.9,63.9-42.5,61.8z"/>
		</g>
		<g transform="matrix(1 0 0 1 -6.432634103173225 25.961499999999994)">
			<path d="M-46.8,28.8c-0.4,4.9-0.5,9.8-0.5,14.7C-40,42.1-39.8,29.6-46.8,28.8z"/>
		</g>
		<g transform="matrix(1 0 0 1 -50.21849999999999 -5.449000000000002)">
			<path d="M-126.5-7.9c0.8,0.1,1.5,0.6,1.8,1.4c4.8,8.6,11.3,16.2,15.7,25.1c0.5-0.2,1-0.4,1.5-0.5c-2.4-3.1-5.6-7-4.2-10.4
				c0.7-2.4,3.1-3.9,5.6-3.7c1.6,0.4,3,1.3,4.1,2.5c0.6-0.8,1.3-1.5,2.2-2.1c-1.2-1.9-2.5-3.9-5-3.1c-2.3,0.8-4.5,2-6.4,3.5
				c-0.5,0.4-1.3,0.4-1.8,0c-0.4-0.1-0.7-0.4-0.9-0.7c-2.1-3.5-6.7-5.1-7.3-9.5c0-0.3,0-0.6,0.1-0.8c0-0.4,0.2-0.9,0.5-1.2
				c3.4-3.3,7.1-6.4,10.9-9.3c3.3-2.7,9.3-6,7.9-10.5c-7,5.6-14.8,10.2-21.2,16.5c-0.5,0.5-1.3,0.6-1.9,0.3c-0.4,0-0.8-0.2-1-0.5
				c-3.2-3.4-7-6.8-8.2-11.5c-0.1-0.4,0-0.7,0.1-1.1c0-0.1,0.1-0.3,0.2-0.4c2.6-4.4,6.6-7.6,9.9-11.5c3.2-4.1,6.9-7.7,10.9-10.9
				c0.5-0.4,1.2-0.4,1.7,0c0.1,0,0.3,0.1,0.4,0.2c0.4-1.2,0.7-2.3,0.9-3.5c-0.8-1.2-1.5-2.6-2.4-3.8c-8.7,9.4-20.3,18.4-26.3,29.6
				c0.8,4.4,1.3,9,1.3,13.5c3.6,0.4,7.2,1.2,10.7,2.3C-126.7-8-126.6-8-126.5-7.9z"/>
		</g>
		<g transform="matrix(1 0 0 1 -45.30634285752211 5.462304839194282)">
			<path d="M-112.9-3.1c-1,1.2-0.4,2.7,0.3,3.9c1.1,1.8,2.3,3.5,3.6,5.1c0.1,0,0.2-0.1,0.3-0.1c-0.4-2.3-0.3-4.8,0.3-7.1
				C-109.5-2.5-111.5-4.8-112.9-3.1z"/>
		</g>
		<g transform="matrix(1 0 0 1 -36.825500000000005 17.466499999999996)">
			<path d="M-99.4,23.9c4,0.5,7.9,1.7,11.5,3.5c-4.8-5-10.6-9-17-11.7C-104.1,19.1-102.1,22-99.4,23.9z"/>
		</g>
		<g transform="matrix(1 0 0 1 -42.5378524028776 24.456000000000003)">
			<path d="M-107.6,16.3c0,0-0.1-0.1-0.1-0.1c-6.3,8.6-2.5,28,5.9,34.7c0.1-0.4,0.2-0.8,0.3-1.1c-3.8-8.7-6.9-17.8-2.7-26.8
				C-105.2,20.7-106.3,18.4-107.6,16.3z"/>
		</g>
		<g transform="matrix(1 0 0 1 -43.847133078376764 25.45450000000001)">
			<path d="M-111.6,46.8c1.5,4.5,3.7,8.8,6.6,12.6c1.1-2,2.3-4.1,3.2-6.2c-10.7-7.6-14.9-29.7-7.1-40.3c-0.8-0.6-1.6-1.1-2.3-1.7
				C-117.6,20.8-114.9,36.9-111.6,46.8z"/>
		</g>
		<g transform="matrix(1 0 0 1 -41.74263215346596 5.396499999999968)">
			<path d="M-102.6,3.2c-0.1-1.9-0.3-3.7-0.7-5.6c-3.6,0.2-4,3.6-3.6,6.7C-105.5,4-104,3.6-102.6,3.2z"/>
		</g>
		<g transform="matrix(1 0 0 1 -44.3435 -3.410999999999998)">
			<path d="M-108.6-4.3c3,0.5,4.6,3,6.1,5.4h0c0.9-9.9,0.9-19.9,1.8-29.7c-1.1,0.1-2.3-0.1-3.3-0.5c0.5,3.1-0.8,6.2-3.4,7.9
				c-3.4,2.8-7,5.5-10.4,8.4c2.1,2.9,4.1,5.8,6.1,8.8C-110.7-4.4-109.6-4.5-108.6-4.3z"/>
		</g>
		<g transform="matrix(1 0 0 1 -48.0385 -0.374000000000013)">
			<path d="M-120-10.7c0.9,2.7,3.9,4.5,5.8,6.7c0.9-0.7,1.9-1.3,2.9-1.8c-1.8-2.7-3.7-5.3-5.6-7.9C-117.9-12.7-118.9-11.7-120-10.7z
				"/>
		</g>
		<g transform="matrix(1 0 0 1 -50.7665 -9.5075)">
			<path d="M-110.3-36.9c-0.1-0.1-0.1-0.3-0.2-0.4c-0.1-0.3-0.2-0.6-0.2-0.9c-0.3-0.2-0.6-0.4-0.9-0.6c-3.8,3.3-7.3,7-10.5,10.9
				c-3,2.8-5.7,5.9-8.1,9.2c1.4,3.3,3.6,6.3,6.3,8.6c1.7-1.6,3.4-3.1,5.3-4.5c-1.7-1.7-3.5-3.4-5.1-5.3c-0.2-0.2-0.3-0.5-0.4-0.8
				c-0.2-0.5-0.2-1,0-1.5C-121.3-28.2-115.5-32.9-110.3-36.9z"/>
		</g>
		<g transform="matrix(1 0 0 1 -41.07831902649728 29.0688300383883)">
			<path d="M-117.6,44c-3.4-11.3-6.3-28.1,1-38.7c-10.5,6.1-13.7,19.2-12.9,31.1c1.3,19,12,36.9,32.1,40.5
				c9.3,1.6,15.5-0.7,19.6-5.3C-96.6,74-112.1,62.4-117.6,44z"/>
		</g>
		<g transform="matrix(1 0 0 1 -47.56100000000001 -9.825499999999998)">
			<path d="M-119.1-16.3c4.5-3.3,9.1-6.4,13.5-10c-0.8-0.9-1.6-1.8-2.4-2.9c-1.1-1.5-2.5-2.9-3.7-4.5c-4.9,3.3-9,7.6-12.1,12.6
				C-122.4-19.4-120.7-17.9-119.1-16.3z"/>
		</g>
		<g transform="matrix(1 0 0 1 -35.55789748338617 26.478687704800414)">
			<path d="M-90.4,45.9c-0.4,1.5-1.5,2.8-2.9,3.5c1.5,0.2,3,0.1,4.4-0.5c8.1-5.4,1.1-20.5-6-23.6c-2.7-1.5-6.1-0.6-7.6,2.1
				c-0.3,0.5-0.5,0.9-0.6,1.5C-96.3,26-88.2,39.6-90.4,45.9z"/>
		</g>
		<g transform="matrix(1 0 0 1 -33.841499999999996 37.29507685602823)">
			<path d="M-101.9,58c6.2,2.6,13,3.1,19.5,1.6c0.7-1.3,1.3-2.7,1.7-4.1c-6.6-0.1-13.4-1-18.7-5C-100.8,52.8-101.6,55.4-101.9,58z"
				/>
		</g>
		<g transform="matrix(1 0 0 1 -37.16097510012 26.207353861087206)">
			<path d="M-99.9,18.4c-0.3,0-0.6-0.1-0.8-0.2c-4-3-6.8-7.3-7.8-12.2c-1.5-0.3-3-0.4-4.6-0.3c-1,0.6-1.9,1.4-2.7,2.2
				c1.9,1.3,3.6,2.7,5.1,4.4c1.6,2.6,3.1,5.3,4.3,8.1c0.4,0.6,0.3,1.4-0.2,1.9c0,0.1,0,0.3-0.1,0.4c-3.9,8.1-0.6,16.6,2.8,24.2
				c0.1,0.3,0.2,0.6,0.1,0.9c0.1,0.3,0.1,0.6,0,0.9c-1.4,4.5-3.3,8.7-5.8,12.7c2.2,2.4,4.8,4.5,7.6,6.1c0.5-4,2.3-7.6,5-10.5
				c0.4-0.4,0.9-0.5,1.4-0.4c0.2,0,0.4,0,0.6,0c13.2,2.7,18.4-11.5,15.8-21.8c-0.4-1.4-0.9-2.7-1.4-4c-3.5-7.5-10.6-11.2-19.1-12.3
				C-99.6,18.5-99.7,18.4-99.9,18.4z M-85.8,52.2c-0.1,0.1-0.2,0.1-0.4,0.1c0,0,0,0-0.1,0c-0.1,0-0.1,0-0.2,0.1c0,0-0.1,0-0.1,0
				c-8.1,3-14.3-2.7-17.3-10c-1-1.8-1.6-3.8-1.6-5.9c-1.2-7.9,1.3-15.4,9.1-15C-83.7,22.2-74,44.6-85.8,52.2z"/>
		</g>
		<g transform="matrix(1 0 0 1 -37.11027345288014 27.32402944967901)">
			<path d="M-99.7,41.7c0.5,0.7,1.1,1.3,1.6,1.8c0.9,0.9,2.7,2.7,4.1,2.2c1.4-0.5,2.2-1.9,2.1-3.4c-0.1-3.1-4.4-12.3-8.4-11.2
				c-0.1,0.3-0.2,0.6-0.4,0.8c-0.8,0.8-1.4,2-1.5,3.2c0,0.1,0,0.2,0,0.2C-101.5,37.6-100.7,39.7-99.7,41.7z"/>
		</g>
		<g transform="matrix(1 0 0 1 -32.33525954296309 33.22421292672242)">
			<path d="M-97,53.2c4.8,2.3,10.2,3.4,15.5,3c0.9-5.1,1.1-10.3,0.4-15.4C-83.3,47.9-88.9,53.3-97,53.2z"/>
		</g>
	</g>
</g>
</svg>
