<?xml version="1.0" encoding="UTF-8" standalone="no" ?>
<!DOCTYPE svg PUBLIC "-//W3C//DTD SVG 1.1//EN" "http://www.w3.org/Graphics/SVG/1.1/DTD/svg11.dtd">
<svg xmlns="http://www.w3.org/2000/svg" xmlns:xlink="http://www.w3.org/1999/xlink" version="1.1" width="500" height="500" viewBox="0 0 500 500" xml:space="preserve">
<desc>Created with Fabric.js 3.6.3</desc>
<defs>
</defs>
<g transform="matrix(0.8176854765397916 0 0 0.8176854765397916 253 235)"  >
<g style=""   >
		<g transform="matrix(0.051115861350236796 -0.9986927298816305 0.9986927298816305 0.051115861350236796 -0.006247642608244064 0.003494473616129312)"  >
<circle style="stroke: none; stroke-width: 1; stroke-dasharray: none; stroke-linecap: butt; stroke-dashoffset: 0; stroke-linejoin: miter; stroke-miterlimit: 4; fill: rgb(0,0,0); fill-rule: nonzero; opacity: 1;"  cx="0" cy="0" r="103.17" />
</g>
		<g transform="matrix(1 0 0 1 -0.0049999999999954525 0.09499999999999886)"  >
<circle style="stroke: none; stroke-width: 1; stroke-dasharray: none; stroke-linecap: butt; stroke-dashoffset: 0; stroke-linejoin: miter; stroke-miterlimit: 4; fill: rgb(255,0,0); fill-rule: nonzero; opacity: 1;"  cx="0" cy="0" r="93.42" />
</g>
		<g transform="matrix(1 0 0 1 -0.0049999999999954525 0.09499999999999886)"  >
<circle style="stroke: none; stroke-width: 1; stroke-dasharray: none; stroke-linecap: butt; stroke-dashoffset: 0; stroke-linejoin: miter; stroke-miterlimit: 4; fill: rgb(255,255,255); fill-rule: nonzero; opacity: 1;"  cx="0" cy="0" r="82.29" />
</g>
</g>
</g>
<g transform="matrix(0.7322221945174103 0 0 0.7322221945174103 253 229)"  >
<g style=""   >
		<g transform="matrix(1 0 0 1 -24.29264089802966 -11.751916505607486)"  >
<path style="stroke: none; stroke-width: 1; stroke-dasharray: none; stroke-linecap: butt; stroke-dashoffset: 0; stroke-linejoin: miter; stroke-miterlimit: 4; fill: rgb(0,0,0); fill-rule: nonzero; opacity: 1;"  transform=" translate(-39.20735910197034, -51.74808349439252)" d="M 27.858 40.949 a 0.238 0.238 0 0 0 -0.007 0.07 c 0.837 0.166 1.674 0.325 2.511 0.491 c 2.332 -1.142 4.207 -3.107 7 -2.194 c 2.152 0.706 3.383 3.073 3.854 5.155 c 2.9 0.27 3.937 2.18 3.937 5.135 a 29.406 29.406 0 0 0 1.688 8.766 c 0.5 1.668 1.37 3.391 1.467 5.148 a 4.06 4.06 0 0 1 2.256 1.723 a 24.967 24.967 0 0 0 -2.422 -6.192 a 14.86 14.86 0 0 1 -1.993 -7.584 c 0.056 -1.114 0.07 -2.235 0.229 -3.335 c 0.4 -2.747 -1.356 -3.259 -3.446 -4.09 a 1.026 1.026 0 0 1 -0.533 -0.449 a 1.011 1.011 0 0 1 -0.249 -0.388 c -0.837 -2.221 -1.771 -3.972 -4.228 -4.6 c -1.494 -0.388 -3.183 -0.658 -4.525 0.325 c -1.536 1.121 -2.892 2.166 -4.636 1.508 c -0.166 0.083 -0.325 0.159 -0.484 0.243 A 3.91 3.91 0 0 0 27.858 40.949 Z" stroke-linecap="round" />
</g>
		<g transform="matrix(1 0 0 1 -17.143040928693615 2.7490265827337694)"  >
<path style="stroke: none; stroke-width: 1; stroke-dasharray: none; stroke-linecap: butt; stroke-dashoffset: 0; stroke-linejoin: miter; stroke-miterlimit: 4; fill: rgb(0,0,0); fill-rule: nonzero; opacity: 1;"  transform=" translate(-46.356959071306385, -66.24902658273376)" d="M 49.667 67.79 c 0.748 -1.536 -0.726 -2.706 -2.068 -3.169 a 0.6 0.6 0 0 1 -0.222 -0.077 c -0.131 -0.034 -0.263 -0.069 -0.38 -0.1 a 15.039 15.039 0 0 0 -3.432 -0.208 l -0.042 0.042 a 5.168 5.168 0 0 0 -0.678 0.546 c 1.958 -0.145 4.359 -0.339 5.625 1.073 a 2.946 2.946 0 0 1 0.8 2.387 A 1.675 1.675 0 0 0 49.667 67.79 Z" stroke-linecap="round" />
</g>
		<g transform="matrix(1 0 0 1 -20.966500000000003 5.534999999999997)"  >
<path style="stroke: none; stroke-width: 1; stroke-dasharray: none; stroke-linecap: butt; stroke-dashoffset: 0; stroke-linejoin: miter; stroke-miterlimit: 4; fill: rgb(0,0,0); fill-rule: nonzero; opacity: 1;"  transform=" translate(-42.5335, -69.035)" d="M 43.876 69.561 a 7.929 7.929 0 0 1 -0.969 -0.962 c -0.491 -0.609 -0.934 -1.245 -1.411 -1.861 a 9.96 9.96 0 0 0 -1.156 2 a 20.19 20.19 0 0 1 3.481 2.594 a 12.928 12.928 0 0 1 0.906 -0.954 A 3.193 3.193 0 0 1 43.876 69.561 Z" stroke-linecap="round" />
</g>
		<g transform="matrix(1 0 0 1 -15.132055308898117 -15.454204073902424)"  >
<path style="stroke: none; stroke-width: 1; stroke-dasharray: none; stroke-linecap: butt; stroke-dashoffset: 0; stroke-linejoin: miter; stroke-miterlimit: 4; fill: rgb(0,0,0); fill-rule: nonzero; opacity: 1;"  transform=" translate(-48.36794469110188, -48.045795926097576)" d="M 48.851 43.087 a 2.381 2.381 0 0 0 -2.083 0.042 a 2.829 2.829 0 0 1 1.841 2.616 c 0.076 1.909 -0.36 3.805 -0.381 5.722 a 12.948 12.948 0 0 0 0.1 1.757 a 8.759 8.759 0 0 1 1.322 -0.6 a 34.205 34.205 0 0 1 0.235 -5.577 C 49.965 45.821 50.269 43.731 48.851 43.087 Z" stroke-linecap="round" />
</g>
		<g transform="matrix(1 0 0 1 -16.182 -23.772000000000006)"  >
<path style="stroke: none; stroke-width: 1; stroke-dasharray: none; stroke-linecap: butt; stroke-dashoffset: 0; stroke-linejoin: miter; stroke-miterlimit: 4; fill: rgb(0,0,0); fill-rule: nonzero; opacity: 1;"  transform=" translate(-47.318, -39.727999999999994)" d="M 50.359 42.769 a 1.378 1.378 0 0 1 0.118 0.187 a 3.521 3.521 0 0 1 1.391 -1.342 a 28.533 28.533 0 0 1 -1.5 -3.28 c -2.491 -0.727 -5.037 -1.322 -7.6 -1.834 a 6.931 6.931 0 0 1 1.84 2.249 a 0.515 0.515 0 0 1 0.035 0.111 a 2 2 0 0 1 1.674 0.581 a 2.362 2.362 0 0 1 0.575 2.346 A 3.082 3.082 0 0 1 50.359 42.769 Z" stroke-linecap="round" />
</g>
		<g transform="matrix(1 0 0 1 -24.771 -25.96322111443727)"  >
<path style="stroke: none; stroke-width: 1; stroke-dasharray: none; stroke-linecap: butt; stroke-dashoffset: 0; stroke-linejoin: miter; stroke-miterlimit: 4; fill: rgb(0,0,0); fill-rule: nonzero; opacity: 1;"  transform=" translate(-38.729, -37.536778885562725)" d="M 38.41 35.981 c -1.232 -0.332 -4.062 -1.342 -4.4 0.422 a 2.376 2.376 0 0 1 0.318 -0.1 a 8.069 8.069 0 0 1 4.152 0.3 a 7.822 7.822 0 0 1 4.228 3.079 a 5.238 5.238 0 0 1 0.74 -0.456 C 42.222 37.061 40.734 36.611 38.41 35.981 Z" stroke-linecap="round" />
</g>
		<g transform="matrix(1 0 0 1 -17.1365 9.704499999999989)"  >
<path style="stroke: none; stroke-width: 1; stroke-dasharray: none; stroke-linecap: butt; stroke-dashoffset: 0; stroke-linejoin: miter; stroke-miterlimit: 4; fill: rgb(0,0,0); fill-rule: nonzero; opacity: 1;"  transform=" translate(-46.3635, -73.2045)" d="M 47.855 70.461 a 3.6 3.6 0 0 1 -1.267 0.512 A 4.513 4.513 0 0 0 44.9 72.357 c -0.007 0.013 -0.021 0.02 -0.028 0.034 a 21.534 21.534 0 0 1 2.657 3.557 C 47.5 74.128 47.744 72.267 47.855 70.461 Z" stroke-linecap="round" />
</g>
		<g transform="matrix(1 0 0 1 -18.946567025363564 -22.171578177635386)"  >
<path style="stroke: none; stroke-width: 1; stroke-dasharray: none; stroke-linecap: butt; stroke-dashoffset: 0; stroke-linejoin: miter; stroke-miterlimit: 4; fill: rgb(0,0,0); fill-rule: nonzero; opacity: 1;"  transform=" translate(-44.553432974636436, -41.32842182236462)" d="M 43.336 40.763 c 0.229 0.449 0.443 0.934 0.651 1.453 c 0.38 0.124 0.788 0.235 1.2 0.359 c 0.436 -0.615 0.927 -1.66 0.249 -2.248 C 44.789 39.766 43.9 40.278 43.336 40.763 Z" stroke-linecap="round" />
</g>
		<g transform="matrix(1 0 0 1 -17.953477386613464 5.070081938907613)"  >
<path style="stroke: none; stroke-width: 1; stroke-dasharray: none; stroke-linecap: butt; stroke-dashoffset: 0; stroke-linejoin: miter; stroke-miterlimit: 4; fill: rgb(0,0,0); fill-rule: nonzero; opacity: 1;"  transform=" translate(-45.546522613386536, -68.5700819389076)" d="M 45.723 69.52 a 0.428 0.428 0 0 1 0.056 0.013 a 0.712 0.712 0 0 1 0.235 -0.138 c 0.547 -0.187 0.5 -1.107 0.2 -1.522 c -0.326 -0.464 -1.163 -0.256 -1.474 0.131 a 0.636 0.636 0 0 0 0.062 0.713 C 45.115 68.98 45.419 69.243 45.723 69.52 Z" stroke-linecap="round" />
</g>
		<g transform="matrix(1 0 0 1 -34.1235 -27.73)"  >
<path style="stroke: none; stroke-width: 1; stroke-dasharray: none; stroke-linecap: butt; stroke-dashoffset: 0; stroke-linejoin: miter; stroke-miterlimit: 4; fill: rgb(0,0,0); fill-rule: nonzero; opacity: 1;"  transform=" translate(-29.3765, -35.769999999999996)" d="M 28.93 35.739 c 1.246 -0.858 3.038 -1.315 4.159 -0.477 a 1.892 1.892 0 0 1 0.429 -0.478 c -0.173 -0.055 -0.339 -0.1 -0.512 -0.166 A 27.369 27.369 0 0 0 28.217 33.1 q -1.494 1.308 -2.982 2.6 c 0.588 0.975 1.4 1.792 2.021 2.74 A 3.514 3.514 0 0 1 28.93 35.739 Z" stroke-linecap="round" />
</g>
		<g transform="matrix(1 0 0 1 -39.57377799622948 -20.43465156952524)"  >
<path style="stroke: none; stroke-width: 1; stroke-dasharray: none; stroke-linecap: butt; stroke-dashoffset: 0; stroke-linejoin: miter; stroke-miterlimit: 4; fill: rgb(0,0,0); fill-rule: nonzero; opacity: 1;"  transform=" translate(-23.92622200377052, -43.06534843047476)" d="M 22.184 43.067 c -0.021 1.716 2.373 1.563 3.425 0.8 C 26.2 41.461 22.2 40.908 22.184 43.067 Z" stroke-linecap="round" />
</g>
		<g transform="matrix(1 0 0 1 -5.3530000000000015 -16.382)"  >
<path style="stroke: none; stroke-width: 1; stroke-dasharray: none; stroke-linecap: butt; stroke-dashoffset: 0; stroke-linejoin: miter; stroke-miterlimit: 4; fill: rgb(0,0,0); fill-rule: nonzero; opacity: 1;"  transform=" translate(-58.147, -47.117999999999995)" d="M 56.808 44.893 c -0.131 0.07 -0.277 0.132 -0.408 0.208 c 0.983 1.432 2.02 2.837 3.045 4.242 c 0.152 -0.153 0.3 -0.305 0.449 -0.457 A 44.856 44.856 0 0 1 56.808 44.893 Z" stroke-linecap="round" />
</g>
		<g transform="matrix(1 0 0 1 -41.95200000000001 -18.526089091901227)"  >
<path style="stroke: none; stroke-width: 1; stroke-dasharray: none; stroke-linecap: butt; stroke-dashoffset: 0; stroke-linejoin: miter; stroke-miterlimit: 4; fill: rgb(0,0,0); fill-rule: nonzero; opacity: 1;"  transform=" translate(-21.547999999999988, -44.97391090809877)" d="M 17.838 45.661 a 0.509 0.509 0 0 1 0.1 0.395 c -0.076 0.643 -0.726 1.93 -0.526 2.477 a 8.259 8.259 0 0 0 1.46 2.159 c 1.038 1.335 1.9 2.865 3.605 2.726 c 0.049 -0.38 0.1 -0.761 0.152 -1.142 c -0.069 0.042 -0.145 0.077 -0.214 0.118 a 0.5 0.5 0 0 1 -0.27 0.138 c -0.021 0.007 -0.041 0.021 -0.062 0.028 a 0.6 0.6 0 0 1 -0.914 -0.415 c -1.508 -0.941 -2.428 -2.782 -3.093 -4.352 a 0.659 0.659 0 0 1 -0.041 -0.36 a 0.55 0.55 0 0 1 0.138 -0.651 a 5.761 5.761 0 0 1 1.723 -1 a 0.734 0.734 0 0 1 0.339 -0.069 a 0.531 0.531 0 0 1 0.547 0.166 c 1.052 1.1 2.007 2.276 2.961 3.46 c 1.108 -0.623 1.938 -0.748 1.993 -2.318 c 0.021 -0.6 0.014 -1.2 0.007 -1.8 a 4.093 4.093 0 0 1 -3.141 0.242 a 2.461 2.461 0 0 1 -1.467 -3.335 A 2.941 2.941 0 0 1 24.8 40.59 a 3.249 3.249 0 0 1 0.969 0.567 c 0.014 -0.18 0.014 -0.36 0.028 -0.54 a 0.24 0.24 0 0 1 0.013 -0.069 a 1.027 1.027 0 0 1 0.291 -0.837 c 0.1 -0.1 0.221 -0.187 0.332 -0.277 a 29.823 29.823 0 0 0 -2.145 -2.913 a 94.735 94.735 0 0 0 -7.625 7.293 c 0.422 0.574 0.733 1.211 1.149 1.8 C 17.824 45.627 17.824 45.648 17.838 45.661 Z" stroke-linecap="round" />
</g>
		<g transform="matrix(1 0 0 1 -18.157235503040095 4.0638423632489875)"  >
<path style="stroke: none; stroke-width: 1; stroke-dasharray: none; stroke-linecap: butt; stroke-dashoffset: 0; stroke-linejoin: miter; stroke-miterlimit: 4; fill: rgb(0,0,0); fill-rule: nonzero; opacity: 1;"  transform=" translate(-45.3427644969599, -67.563842363249)" d="M 47.8 67.056 a 2.739 2.739 0 0 0 -2.062 -0.968 a 22.144 22.144 0 0 0 -3.176 0.027 c 0.346 0.471 0.685 0.941 1.052 1.391 a 1.6 1.6 0 0 1 0.65 -0.713 a 2.124 2.124 0 0 1 3.149 0.678 a 2.843 2.843 0 0 1 0.2 1.613 A 1.463 1.463 0 0 0 47.8 67.056 Z" stroke-linecap="round" />
</g>
		<g transform="matrix(1 0 0 1 -13.030805946715457 -7.0246522370038385)"  >
<path style="stroke: none; stroke-width: 1; stroke-dasharray: none; stroke-linecap: butt; stroke-dashoffset: 0; stroke-linejoin: miter; stroke-miterlimit: 4; fill: rgb(0,0,0); fill-rule: nonzero; opacity: 1;"  transform=" translate(-50.46919405328454, -56.475347762996165)" d="M 52.207 55.383 a 1.089 1.089 0 0 0 -0.111 -0.221 c -0.955 -1.564 -2.173 -1.059 -3.4 -0.249 a 20.921 20.921 0 0 0 1.245 3.093 c 0.132 0.263 0.263 0.532 0.4 0.8 a 8.734 8.734 0 0 0 1.169 -1.045 A 2.9 2.9 0 0 0 52.207 55.383 Z" stroke-linecap="round" />
</g>
		<g transform="matrix(1 0 0 1 -15.485424986726308 21.08455809184639)"  >
<path style="stroke: none; stroke-width: 1; stroke-dasharray: none; stroke-linecap: butt; stroke-dashoffset: 0; stroke-linejoin: miter; stroke-miterlimit: 4; fill: rgb(0,0,0); fill-rule: nonzero; opacity: 1;"  transform=" translate(-48.01457501327369, -84.58455809184639)" d="M 46.664 86.873 c 1.723 0.042 4.616 -1.114 3.266 -3.342 a 2.916 2.916 0 0 0 -0.283 -0.353 c -0.076 -0.076 -0.153 -0.159 -0.236 -0.235 a 2.064 2.064 0 0 0 -0.228 -0.173 c -0.062 -0.041 -0.124 -0.09 -0.194 -0.131 a 3.052 3.052 0 0 0 -2.76 -0.028 c -0.1 0.055 -0.208 0.118 -0.319 0.173 c -0.055 0.042 -0.1 0.076 -0.159 0.118 a 22.7 22.7 0 0 1 0.865 3.6 C 46.63 86.624 46.644 86.749 46.664 86.873 Z" stroke-linecap="round" />
</g>
		<g transform="matrix(1 0 0 1 -25.449500000000008 11.284957513148449)"  >
<path style="stroke: none; stroke-width: 1; stroke-dasharray: none; stroke-linecap: butt; stroke-dashoffset: 0; stroke-linejoin: miter; stroke-miterlimit: 4; fill: rgb(0,0,0); fill-rule: nonzero; opacity: 1;"  transform=" translate(-38.05049999999999, -74.78495751314844)" d="M 45.315 81.7 c 0.976 -0.54 1.972 -1.031 2.9 -1.633 c -1.951 -4.754 -5.065 -8.919 -9.915 -11.044 a 12.848 12.848 0 0 0 -10.414 -0.1 A 18.95 18.95 0 0 1 35.4 70.876 A 20.054 20.054 0 0 1 45.315 81.7 Z" stroke-linecap="round" />
</g>
		<g transform="matrix(1 0 0 1 -13.760712566371637 10.303000000000033)"  >
<path style="stroke: none; stroke-width: 1; stroke-dasharray: none; stroke-linecap: butt; stroke-dashoffset: 0; stroke-linejoin: miter; stroke-miterlimit: 4; fill: rgb(0,0,0); fill-rule: nonzero; opacity: 1;"  transform=" translate(-49.73928743362836, -73.80300000000003)" d="M 49.688 78.93 a 0.422 0.422 0 0 1 0.1 -0.062 c -0.007 -3.571 0.637 -6.913 0.955 -10.442 a 0.619 0.619 0 0 0 0.007 -0.11 a 3.811 3.811 0 0 1 -1.612 1.432 c -0.118 3.072 -0.941 6.566 0.145 9.542 C 49.418 79.172 49.557 79.054 49.688 78.93 Z" stroke-linecap="round" />
</g>
		<g transform="matrix(1 0 0 1 1.075499999999991 -36.4105)"  >
<path style="stroke: none; stroke-width: 1; stroke-dasharray: none; stroke-linecap: butt; stroke-dashoffset: 0; stroke-linejoin: miter; stroke-miterlimit: 4; fill: rgb(0,0,0); fill-rule: nonzero; opacity: 1;"  transform=" translate(-64.57549999999999, -27.0895)" d="M 29.3 31.117 a 0.536 0.536 0 0 1 0.034 0.138 c 1.426 0.381 2.747 0.969 4.221 1.363 c 1.841 0.485 3.7 0.713 5.556 1.087 c 3.827 0.782 7.681 1.46 11.438 2.525 a 1.067 1.067 0 0 1 0.4 -0.214 q 12.889 -4 25.781 -7.985 c 7.7 -2.367 15.541 -4.422 23.2 -6.913 c -2.117 -0.408 -4.269 -0.615 -6.352 -1.19 a 52.935 52.935 0 0 0 -8.449 -1.937 a 1.185 1.185 0 0 1 -0.166 -0.042 c -9.569 2.519 -19.457 3.827 -29.117 5.993 c -4.94 1.114 -9.963 2.117 -14.807 3.625 c -3.9 1.225 -7.694 3.142 -11.818 3.294 a 0.123 0.123 0 0 1 0.007 0.035 A 1.851 1.851 0 0 0 29.3 31.117 Z" stroke-linecap="round" />
</g>
		<g transform="matrix(1 0 0 1 22.855999999999995 -15.01550000000001)"  >
<path style="stroke: none; stroke-width: 1; stroke-dasharray: none; stroke-linecap: butt; stroke-dashoffset: 0; stroke-linejoin: miter; stroke-miterlimit: 4; fill: rgb(0,0,0); fill-rule: nonzero; opacity: 1;"  transform=" translate(-86.356, -48.48449999999999)" d="M 52.352 37.753 a 33.325 33.325 0 0 0 3.349 6.31 c 0.291 -0.159 0.574 -0.311 0.872 -0.45 A 0.754 0.754 0 0 1 57 43.551 a 0.542 0.542 0 0 1 0.651 0.284 c 0.906 1.764 2.4 3.113 3.542 4.719 a 0.5 0.5 0 0 1 -0.062 0.7 a 0.578 0.578 0 0 1 -0.166 0.311 c -0.256 0.263 -0.512 0.533 -0.768 0.8 c 1.058 1.453 2.089 2.913 3.01 4.393 c 0.671 -0.477 1.363 -0.864 2.221 -0.29 a 4.417 4.417 0 0 1 1.8 2.92 a 0.594 0.594 0 0 1 -0.014 0.194 a 0.578 0.578 0 0 1 -0.145 0.546 c -0.367 0.381 -0.789 0.706 -1.183 1.059 c 1.044 1.723 2.1 3.446 3.2 5.141 a 7.228 7.228 0 0 1 1.163 -0.567 A 0.665 0.665 0 0 1 71 63.638 a 10.012 10.012 0 0 1 3.522 2.823 a 0.651 0.651 0 0 1 -0.014 0.879 a 6.661 6.661 0 0 1 -2.2 1.626 q 1.546 2.055 3.266 3.937 a 8.709 8.709 0 0 1 2.3 -0.879 c 0.041 -0.007 0.083 -0.007 0.124 -0.014 a 1 1 0 0 1 1.114 0.222 c 0.519 0.616 1.031 1.239 1.585 1.82 c 0.775 -0.429 1.55 -0.851 2.311 -1.287 c 1.259 -5.273 5.84 -7.342 11 -7.349 h 0.055 a 1.027 1.027 0 0 1 0.644 0.139 c 1.017 0.588 1.557 -0.049 1.55 -1.121 a 1.939 1.939 0 0 1 0.3 -0.907 c 1.993 -2.428 5.958 -4.643 9.016 -2.989 c 1.446 -0.747 1.64 -3.114 3.245 -3.923 a 8.01 8.01 0 0 1 5.826 -0.747 c 0.056 -0.042 0.111 -0.083 0.166 -0.118 a 5.846 5.846 0 0 1 1.627 -3.937 a 11.011 11.011 0 0 1 3.923 -1.855 c -3.176 -4.227 -5.854 -8.863 -8.975 -13.133 c -1.681 -2.29 -3.335 -4.483 -4.8 -6.926 c -1.342 -2.235 -2.664 -4.567 -4.774 -6.172 a 1.03 1.03 0 0 1 -0.228 -0.235 a 0.933 0.933 0 0 1 -0.492 -0.575 C 93.239 25.5 85.192 27.6 77.283 30.031 Q 64.807 33.871 52.352 37.753 Z M 79.857 66.862 c -4.885 1.2 -9.833 -5.12 -11.549 -8.856 c -1.093 -2.4 -3.473 -8.553 0.671 -9.66 c 5.813 -1.564 10.227 3.065 12.732 7.812 C 83.24 59.507 84.811 65.645 79.857 66.862 Z M 91.7 61.818 c -4.581 1.135 -9.238 -4.933 -10.822 -8.428 c -0.99 -2.172 -3.28 -7.985 0.533 -9.015 c 5.48 -1.474 9.611 2.961 11.956 7.431 C 94.768 54.9 96.3 60.683 91.7 61.818 Z m 5.729 -7.625 a 17.926 17.926 0 0 1 -7.092 -9.348 c -0.907 -2.671 -0.865 -5.473 2.615 -5.369 a 9.232 9.232 0 0 1 6.643 3.577 c 1.889 2.574 4.117 4.85 4.83 8.061 C 105.576 56.31 100.636 56.442 97.425 54.193 Z m 10.345 -16 a 0.067 0.067 0 0 1 0.027 0.034 a 0.141 0.141 0 0 1 0.056 0.028 c 2.837 2.463 7.258 7.369 5.341 11.548 c -1.937 4.221 -6.566 1.377 -8.767 -1.065 c -2.4 -2.664 -6.151 -7.646 -3.944 -11.4 C 101.916 34.9 106.24 37.033 107.77 38.189 Z M 78.646 32.321 a 0.376 0.376 0 0 1 0.373 0.1 c 0.429 0.429 1.322 1.494 2.028 1.3 c 0.83 -0.229 0.505 -1.384 0.1 -1.869 a 0.425 0.425 0 0 1 -0.1 -0.242 a 0.4 0.4 0 0 1 0.124 -0.581 c 2.318 -1.419 5.024 -1.6 7.6 -2.29 a 0.448 0.448 0 0 1 0.1 -0.007 a 0.407 0.407 0 0 1 0.539 0.138 a 2.687 2.687 0 0 0 1.758 1.28 c 0.823 0.062 0.436 -0.92 0.242 -1.384 a 0.405 0.405 0 0 1 -0.021 -0.09 a 0.365 0.365 0 0 1 0.028 -0.553 c 1.9 -1.592 4.539 -1.405 6.809 -2.1 h 0.007 c 0.173 0 0.463 -0.131 0.636 0.1 c 1.308 1.82 2.208 3.93 3.744 5.584 a 0.727 0.727 0 0 1 0.048 0.1 a 0.461 0.461 0 0 1 0.118 0.519 a 0.349 0.349 0 0 1 -0.291 0.38 a 2.3 2.3 0 0 0 -0.235 0.07 c -0.076 0.034 -0.152 0.076 -0.228 0.1 a 0.41 0.41 0 0 1 -0.09 0.014 a 2.791 2.791 0 0 0 -0.769 0.512 a 0.4 0.4 0 0 1 -0.615 -0.062 a 0.475 0.475 0 0 1 -0.083 -0.049 c -0.45 -0.415 -1.267 -1.57 -1.993 -1.37 c -0.817 0.229 -0.408 1.5 -0.125 2.021 a 0.572 0.572 0 0 1 -0.359 0.664 c -2.256 0.727 -4.09 2.387 -6.574 2.325 a 0.391 0.391 0 0 1 -0.374 -0.284 A 0.226 0.226 0 0 1 91 36.618 c -0.4 -0.623 -1.273 -1.522 -2.124 -1.273 c -0.893 0.256 -0.374 1.474 -0.1 2.006 a 0.434 0.434 0 0 1 -0.318 0.623 a 0.007 0.007 0 0 1 -0.007 0.007 A 27.118 27.118 0 0 1 80.742 40.5 a 0.412 0.412 0 0 1 -0.373 -0.125 a 0.442 0.442 0 0 1 -0.146 -0.1 c -0.512 -0.5 -1.273 -2.269 -2.165 -2.013 c -1.177 0.346 -0.907 1.806 -0.353 2.608 a 0.342 0.342 0 0 1 0.041 0.339 a 0.385 0.385 0 0 1 -0.29 0.388 c -2.92 0.8 -5.418 2.657 -8.421 3.224 a 0.417 0.417 0 0 1 -0.457 -0.228 a 0.383 0.383 0 0 1 -0.069 -0.076 a 5.68 5.68 0 0 0 -0.92 -1.3 q -1.941 -1.682 -2.83 0.166 a 10.655 10.655 0 0 0 0.193 1.342 a 3.635 3.635 0 0 1 0 1.571 c -0.276 1.086 -1.688 1.156 -2.518 0.851 c -2.768 -1 -4.761 -5.369 -5.674 -7.916 a 0.373 0.373 0 0 1 0.007 -0.249 a 0.377 0.377 0 0 1 0.283 -0.38 c 3.128 -0.9 6.145 -2.131 9.342 -2.768 a 0.406 0.406 0 0 1 0.207 0.014 a 0.417 0.417 0 0 1 0.491 0.387 a 1.559 1.559 0 0 0 1.682 1.343 c 1.024 -0.063 0.934 -1.038 0.6 -1.765 a 0.132 0.132 0 0 1 -0.007 -0.048 a 0.445 0.445 0 0 1 0.2 -0.678 a 72.334 72.334 0 0 1 8.877 -2.768 A 0.39 0.39 0 0 1 78.646 32.321 Z" stroke-linecap="round" />
</g>
		<g transform="matrix(1 0 0 1 33.466000000000015 -32.54200000000001)"  >
<path style="stroke: none; stroke-width: 1; stroke-dasharray: none; stroke-linecap: butt; stroke-dashoffset: 0; stroke-linejoin: miter; stroke-miterlimit: 4; fill: rgb(0,0,0); fill-rule: nonzero; opacity: 1;"  transform=" translate(-96.96600000000001, -30.95799999999999)" d="M 95.149 35.006 a 21.376 21.376 0 0 1 2.283 -1.073 c -0.367 -0.948 -0.464 -2.276 0.588 -2.719 c 1.156 -0.491 2.111 0.609 2.872 1.349 a 3.311 3.311 0 0 1 0.9 -0.505 a 55.807 55.807 0 0 1 -3.418 -5.148 c -1.993 0.554 -4.442 0.429 -6.158 1.688 c 0.256 0.692 0.422 1.626 -0.076 2.1 C 93.121 32.148 94.235 33.5 95.149 35.006 Z" stroke-linecap="round" />
</g>
		<g transform="matrix(1 0 0 1 1.2014999999999958 -21.89599551233153)"  >
<path style="stroke: none; stroke-width: 1; stroke-dasharray: none; stroke-linecap: butt; stroke-dashoffset: 0; stroke-linejoin: miter; stroke-miterlimit: 4; fill: rgb(0,0,0); fill-rule: nonzero; opacity: 1;"  transform=" translate(-64.7015, -41.60400448766847)" d="M 68.516 38.4 a 2.4 2.4 0 0 1 -2.173 -1.7 c -2.954 0.623 -5.771 1.73 -8.67 2.588 A 19.859 19.859 0 0 0 60.3 44.049 c 0.609 0.81 1.591 2.221 2.677 2.422 c 1.966 0.36 1 -2.007 0.969 -2.74 c -0.062 -1.287 0.581 -1.854 1.82 -2.069 c 1.522 -0.27 2.678 1.121 3.377 2.283 a 15.266 15.266 0 0 0 2.587 -0.858 c 0 -0.006 -0.013 -0.013 -0.013 -0.02 C 70.82 41.385 69.367 40.1 68.516 38.4 Z" stroke-linecap="round" />
</g>
		<g transform="matrix(1 0 0 1 13.203000000000003 -25.542)"  >
<path style="stroke: none; stroke-width: 1; stroke-dasharray: none; stroke-linecap: butt; stroke-dashoffset: 0; stroke-linejoin: miter; stroke-miterlimit: 4; fill: rgb(0,0,0); fill-rule: nonzero; opacity: 1;"  transform=" translate(-76.703, -37.958)" d="M 69.4 38.285 c 0.864 1.55 2.193 2.782 3.023 4.36 a 0.863 0.863 0 0 1 0.042 0.124 a 36.267 36.267 0 0 1 4.318 -1.826 c -0.568 -1.121 -0.6 -2.754 0.671 -3.343 c 1.681 -0.775 2.38 1.1 3.321 2.055 a 23.1 23.1 0 0 0 3.231 -0.775 a 20.956 20.956 0 0 1 -3.03 -4.3 c -0.9 0.027 -1.806 -0.831 -2.408 -1.433 a 71.458 71.458 0 0 0 -8.338 2.581 a 2.15 2.15 0 0 1 0.021 1.875 A 1.653 1.653 0 0 1 69.4 38.285 Z" stroke-linecap="round" />
</g>
		<g transform="matrix(1 0 0 1 24.57699999999999 -29.422000000000004)"  >
<path style="stroke: none; stroke-width: 1; stroke-dasharray: none; stroke-linecap: butt; stroke-dashoffset: 0; stroke-linejoin: miter; stroke-miterlimit: 4; fill: rgb(0,0,0); fill-rule: nonzero; opacity: 1;"  transform=" translate(-88.077, -34.077999999999996)" d="M 81.76 34.272 a 19.19 19.19 0 0 0 3.016 4.221 a 0.824 0.824 0 0 1 0.063 0.1 a 32.626 32.626 0 0 0 3.023 -1.253 c -0.4 -1.01 -0.567 -2.408 0.706 -2.774 c 1.246 -0.367 2.415 0.56 3.079 1.536 a 6.863 6.863 0 0 0 2.747 -0.734 c -0.927 -1.522 -2.075 -2.906 -3.072 -4.387 a 3.193 3.193 0 0 1 -2.435 -1.418 c -2.339 0.623 -4.8 0.816 -6.948 2 A 2 2 0 0 1 81.76 34.272 Z" stroke-linecap="round" />
</g>
		<g transform="matrix(1 0 0 1 11.39455037819181 -6.121966507827388)"  >
<path style="stroke: none; stroke-width: 1; stroke-dasharray: none; stroke-linecap: butt; stroke-dashoffset: 0; stroke-linejoin: miter; stroke-miterlimit: 4; fill: rgb(0,0,0); fill-rule: nonzero; opacity: 1;"  transform=" translate(-74.89455037819181, -57.37803349217261)" d="M 71.124 49.19 c -5.1 0.561 -2.989 5.923 -1.432 8.8 c 1.543 2.851 4.124 6.359 7.411 7.307 c 6.324 1.833 5.072 -5.134 3.536 -8.5 C 78.9 53.494 75.463 48.713 71.124 49.19 Z" stroke-linecap="round" />
</g>
		<g transform="matrix(1 0 0 1 43.25175276638227 -19.40745105254029)"  >
<path style="stroke: none; stroke-width: 1; stroke-dasharray: none; stroke-linecap: butt; stroke-dashoffset: 0; stroke-linejoin: miter; stroke-miterlimit: 4; fill: rgb(0,0,0); fill-rule: nonzero; opacity: 1;"  transform=" translate(-106.75175276638227, -44.09254894745971)" d="M 100.857 38.507 c -0.54 3.376 1.474 6.67 3.647 9.071 c 1.2 1.343 2.691 3.01 4.525 3.439 c 2.934 0.692 4.193 -2.09 3.536 -4.539 a 15.639 15.639 0 0 0 -5.273 -7.611 C 105.991 37.905 101.328 35.538 100.857 38.507 Z" stroke-linecap="round" />
</g>
		<g transform="matrix(1 0 0 1 23.521489464371967 -10.60906561713331)"  >
<path style="stroke: none; stroke-width: 1; stroke-dasharray: none; stroke-linecap: butt; stroke-dashoffset: 0; stroke-linejoin: miter; stroke-miterlimit: 4; fill: rgb(0,0,0); fill-rule: nonzero; opacity: 1;"  transform=" translate(-87.02148946437197, -52.89093438286669)" d="M 83.406 44.831 c -5.085 0.568 -3.072 5.854 -1.522 8.732 c 1.5 2.768 3.993 6.173 7.182 7.107 c 6.5 1.889 5.024 -5.259 3.578 -8.449 C 90.962 49.017 87.627 44.368 83.406 44.831 Z" stroke-linecap="round" />
</g>
		<g transform="matrix(1 0 0 1 33.74630970592786 -15.83192711001907)"  >
<path style="stroke: none; stroke-width: 1; stroke-dasharray: none; stroke-linecap: butt; stroke-dashoffset: 0; stroke-linejoin: miter; stroke-miterlimit: 4; fill: rgb(0,0,0); fill-rule: nonzero; opacity: 1;"  transform=" translate(-97.24630970592786, -47.668072889980934)" d="M 92.948 40.306 c -5.134 -0.159 0.056 9.521 2.27 11.32 c 1.391 1.128 4.214 3.543 6.117 3.4 c 3.888 -0.29 2.131 -5.148 1.114 -6.718 C 100.1 44.658 97.543 40.9 92.948 40.306 Z" stroke-linecap="round" />
</g>
		<g transform="matrix(1 0 0 1 -28.241999999999997 -8.672797563034084)"  >
<path style="stroke: none; stroke-width: 1; stroke-dasharray: none; stroke-linecap: butt; stroke-dashoffset: 0; stroke-linejoin: miter; stroke-miterlimit: 4; fill: rgb(0,0,0); fill-rule: nonzero; opacity: 1;"  transform=" translate(-35.258, -54.82720243696592)" d="M 24.917 51.059 a 1.165 1.165 0 0 1 -0.021 0.214 c -0.982 5.065 -0.685 10.241 -1.232 15.354 a 1.168 1.168 0 0 1 -0.207 0.533 a 11.9 11.9 0 0 1 0.332 2.277 c 0.484 -0.1 0.962 -0.2 1.432 -0.284 a 13.05 13.05 0 0 1 12.787 -1.612 c 0.422 0.186 0.838 0.387 1.239 0.595 a 22.008 22.008 0 0 1 1.64 -2.747 c 0.007 -0.014 0.014 -0.014 0.021 -0.028 a 0.568 0.568 0 0 1 0.415 -0.422 a 3.91 3.91 0 0 1 1.453 -1.647 A 0.591 0.591 0 0 1 43.267 63 a 17.292 17.292 0 0 1 3.792 0.187 c -0.249 -3.279 -2.457 -6.76 -3.038 -9.964 c -0.519 -2.857 1.114 -7.417 -3.293 -7.542 a 0.581 0.581 0 0 1 -0.547 -0.38 a 0.61 0.61 0 0 1 -0.111 -0.249 c -0.408 -2.062 -2.089 -5.488 -4.8 -4.726 c -1.681 0.463 -2.975 1.674 -4.546 2.387 a 0.61 0.61 0 0 1 -0.526 0.007 a 0.734 0.734 0 0 1 -0.124 0 c -0.754 -0.152 -1.509 -0.3 -2.263 -0.443 c -0.007 1.1 0.035 2.2 0.035 3.314 a 9.161 9.161 0 0 1 -0.27 3.162 C 27.041 50.076 26.024 50.436 24.917 51.059 Z" stroke-linecap="round" />
</g>
		<g transform="matrix(1 0 0 1 52.79750000000001 -23.208000000000002)"  >
<path style="stroke: none; stroke-width: 1; stroke-dasharray: none; stroke-linecap: butt; stroke-dashoffset: 0; stroke-linejoin: miter; stroke-miterlimit: 4; fill: rgb(0,0,0); fill-rule: nonzero; opacity: 1;"  transform=" translate(-116.29750000000001, -40.292)" d="M 114.412 34.729 a 12.4 12.4 0 0 0 -1.744 0.36 c 2.547 3.5 4.8 7.217 7.259 10.766 A 16 16 0 0 0 114.412 34.729 Z" stroke-linecap="round" />
</g>
		<g transform="matrix(1 0 0 1 -7.423499999999986 -10.349999999999994)"  >
<path style="stroke: none; stroke-width: 1; stroke-dasharray: none; stroke-linecap: butt; stroke-dashoffset: 0; stroke-linejoin: miter; stroke-miterlimit: 4; fill: rgb(0,0,0); fill-rule: nonzero; opacity: 1;"  transform=" translate(-56.07650000000001, -53.150000000000006)" d="M 54.29 62.593 a 0.531 0.531 0 0 1 0.7 -0.083 c 1.336 0.851 2.457 0.36 3.529 -0.616 a 9.119 9.119 0 0 0 1.855 -1.868 c 0.761 -1.342 0.574 -2.982 0.871 -4.47 c -2.7 -4.331 -6.192 -8.393 -8.773 -12.856 c -1.8 1.1 -0.858 2.581 -1.031 4.38 c -0.187 1.924 -0.983 3.5 0.083 5.335 a 0.275 0.275 0 0 1 0.027 0.09 a 2.5 2.5 0 0 1 1.412 1.411 a 2.331 2.331 0 0 1 0.332 0.921 v 0.007 c 0.692 1.307 0.09 2.553 -0.761 3.577 a 6.825 6.825 0 0 1 -1.626 1.543 A 25.22 25.22 0 0 1 52.449 63.6 A 10.5 10.5 0 0 1 54.29 62.593 Z m 4.809 -8.04 a 0.849 0.849 0 0 1 0.622 -0.1 a 1.14 1.14 0 0 1 0.118 0.062 a 0.7 0.7 0 0 1 0.3 0.09 a 0.879 0.879 0 0 1 0.36 0.582 a 0.627 0.627 0 0 1 -0.436 0.761 a 0.929 0.929 0 0 1 -1.19 -0.547 A 0.631 0.631 0 0 1 59.1 54.553 Z m -1.793 0.892 a 0.531 0.531 0 0 1 0.762 0.07 a 12.133 12.133 0 0 1 2.055 2.9 a 0.6 0.6 0 0 1 0.034 0.394 a 0.6 0.6 0 0 1 -0.131 0.588 a 12.807 12.807 0 0 1 -3.183 2.637 a 0.576 0.576 0 0 1 -0.623 -0.021 a 0.66 0.66 0 0 1 -0.457 -0.263 a 31.66 31.66 0 0 1 -1.875 -2.775 a 0.653 0.653 0 0 1 -0.145 -0.733 c 0.6 -1.391 2.166 -1.8 3.266 -2.664 A 0.714 0.714 0 0 1 57.306 55.445 Z m -3.48 -7.811 a 0.627 0.627 0 0 1 0.325 0.034 a 2.441 2.441 0 0 1 2.512 2.36 a 2.486 2.486 0 1 1 -2.837 -2.394 Z M 52.76 60.165 A 1.058 1.058 0 1 1 54.2 61.7 a 1.036 1.036 0 0 1 -1.585 -0.27 a 0.7 0.7 0 0 1 -0.062 -0.146 c -0.014 -0.034 -0.021 -0.062 -0.035 -0.09 v -0.013 A 0.9 0.9 0 0 1 52.76 60.165 Z" stroke-linecap="round" />
</g>
		<g transform="matrix(1 0 0 1 -10.503418057504668 14.412500000000001)"  >
<path style="stroke: none; stroke-width: 1; stroke-dasharray: none; stroke-linecap: butt; stroke-dashoffset: 0; stroke-linejoin: miter; stroke-miterlimit: 4; fill: rgb(0,0,0); fill-rule: nonzero; opacity: 1;"  transform=" translate(-52.99658194249533, -77.9125)" d="M 53.9 77.816 a 3.226 3.226 0 0 0 -1.937 -1.737 c -0.049 0.692 -0.076 1.384 -0.09 2.076 c 0.719 0.588 1.487 1.059 2.2 1.591 A 4.036 4.036 0 0 0 53.9 77.816 Z" stroke-linecap="round" />
</g>
		<g transform="matrix(1 0 0 1 -32.962833237879025 -26.22165923179645)"  >
<path style="stroke: none; stroke-width: 1; stroke-dasharray: none; stroke-linecap: butt; stroke-dashoffset: 0; stroke-linejoin: miter; stroke-miterlimit: 4; fill: rgb(0,0,0); fill-rule: nonzero; opacity: 1;"  transform=" translate(-30.537166762120975, -37.27834076820355)" d="M 29.705 36.652 c -0.45 0.3 -1.425 1.087 -1.308 1.654 a 1.055 1.055 0 0 1 0.817 0.09 c 0.9 0.5 2.242 -0.505 3.473 -1.3 c -0.027 -0.062 -0.145 -0.138 -0.145 -0.221 V 36.86 C 32.542 35.518 30.611 36.064 29.705 36.652 Z" stroke-linecap="round" />
</g>
		<g transform="matrix(1 0 0 1 -9.353718381402874 -13.383342304181621)"  >
<path style="stroke: none; stroke-width: 1; stroke-dasharray: none; stroke-linecap: butt; stroke-dashoffset: 0; stroke-linejoin: miter; stroke-miterlimit: 4; fill: rgb(0,0,0); fill-rule: nonzero; opacity: 1;"  transform=" translate(-54.14628161859713, -50.116657695818375)" d="M 53.992 48.914 a 0.679 0.679 0 0 1 -0.125 -0.021 a 1.24 1.24 0 0 0 0.18 2.442 A 1.219 1.219 0 1 0 53.992 48.914 Z" stroke-linecap="round" />
</g>
		<g transform="matrix(1 0 0 1 -6.525500000000001 -4.75749999999999)"  >
<path style="stroke: none; stroke-width: 1; stroke-dasharray: none; stroke-linecap: butt; stroke-dashoffset: 0; stroke-linejoin: miter; stroke-miterlimit: 4; fill: rgb(0,0,0); fill-rule: nonzero; opacity: 1;"  transform=" translate(-56.9745, -58.74250000000001)" d="M 58.905 58.767 a 10.253 10.253 0 0 0 -1.426 -2.021 a 8.321 8.321 0 0 0 -2.435 1.723 c 0.47 0.782 0.982 1.529 1.515 2.27 A 11.656 11.656 0 0 0 58.905 58.767 Z" stroke-linecap="round" />
</g>
		<g transform="matrix(1 0 0 1 7.890500000000003 2.916000000000011)"  >
<path style="stroke: none; stroke-width: 1; stroke-dasharray: none; stroke-linecap: butt; stroke-dashoffset: 0; stroke-linejoin: miter; stroke-miterlimit: 4; fill: rgb(0,0,0); fill-rule: nonzero; opacity: 1;"  transform=" translate(-71.3905, -66.41600000000001)" d="M 70.709 64.918 a 5.1 5.1 0 0 0 -0.941 0.436 c 0.575 0.865 1.17 1.723 1.772 2.56 a 6.859 6.859 0 0 0 1.473 -1.065 A 7.62 7.62 0 0 0 70.709 64.918 Z" stroke-linecap="round" />
</g>
		<g transform="matrix(1 0 0 1 1.390500000000003 -6.701536587826343)"  >
<path style="stroke: none; stroke-width: 1; stroke-dasharray: none; stroke-linecap: butt; stroke-dashoffset: 0; stroke-linejoin: miter; stroke-miterlimit: 4; fill: rgb(0,0,0); fill-rule: nonzero; opacity: 1;"  transform=" translate(-64.8905, -56.79846341217366)" d="M 63.818 55.778 q 0.7 1.163 1.411 2.331 c 0.249 -0.214 0.491 -0.422 0.734 -0.65 a 3.34 3.34 0 0 0 -1 -1.8 C 64.565 55.342 64.184 55.515 63.818 55.778 Z" stroke-linecap="round" />
</g>
		<g transform="matrix(1 0 0 1 -14.420978338339577 29.46052153828149)"  >
<path style="stroke: none; stroke-width: 1; stroke-dasharray: none; stroke-linecap: butt; stroke-dashoffset: 0; stroke-linejoin: miter; stroke-miterlimit: 4; fill: rgb(0,0,0); fill-rule: nonzero; opacity: 1;"  transform=" translate(-49.07902166166042, -92.96052153828148)" d="M 49.481 91.5 c -0.422 -0.125 -1.35 -0.353 -1.73 0.006 c -0.007 0.021 -0.007 0.042 -0.028 0.056 a 1.43 1.43 0 0 0 -0.124 0.256 c -0.007 0.027 -0.014 0.041 -0.021 0.069 a 0.632 0.632 0 0 1 -0.09 0.291 a 2.158 2.158 0 0 0 1.453 2.394 a 1.791 1.791 0 0 0 1.723 -0.595 c 0.014 -0.575 0.028 -1.149 0.034 -1.73 A 2.445 2.445 0 0 0 49.481 91.5 Z" stroke-linecap="round" />
</g>
		<g transform="matrix(1 0 0 1 -15.813500000000001 35.24799999999998)"  >
<path style="stroke: none; stroke-width: 1; stroke-dasharray: none; stroke-linecap: butt; stroke-dashoffset: 0; stroke-linejoin: miter; stroke-miterlimit: 4; fill: rgb(0,0,0); fill-rule: nonzero; opacity: 1;"  transform=" translate(-47.686499999999995, -98.74799999999999)" d="M 48.45 95.723 a 3.552 3.552 0 0 1 -1.744 -1.5 a 24.077 24.077 0 0 1 -1.944 6.878 c 1.826 0.671 3.6 1.473 5.4 2.172 c 0.228 -2.594 0.366 -5.155 0.449 -7.729 A 2.68 2.68 0 0 1 48.45 95.723 Z" stroke-linecap="round" />
</g>
		<g transform="matrix(1 0 0 1 -14.660972249152604 25.051500000000004)"  >
<path style="stroke: none; stroke-width: 1; stroke-dasharray: none; stroke-linecap: butt; stroke-dashoffset: 0; stroke-linejoin: miter; stroke-miterlimit: 4; fill: rgb(0,0,0); fill-rule: nonzero; opacity: 1;"  transform=" translate(-48.83902775084739, -88.5515)" d="M 46.81 88.119 c 0.076 0.816 0.117 1.633 0.124 2.442 c 0.886 -0.768 2.574 -0.6 3.813 0.16 a 31.971 31.971 0 0 0 0.083 -4.339 A 5.123 5.123 0 0 1 46.81 88.119 Z" stroke-linecap="round" />
</g>
		<g transform="matrix(1 0 0 1 -11.959428134880149 27.673999999999992)"  >
<path style="stroke: none; stroke-width: 1; stroke-dasharray: none; stroke-linecap: butt; stroke-dashoffset: 0; stroke-linejoin: miter; stroke-miterlimit: 4; fill: rgb(0,0,0); fill-rule: nonzero; opacity: 1;"  transform=" translate(-51.54057186511985, -91.17399999999999)" d="M 51.9 94.291 c -0.083 2.726 -0.214 5.446 -0.436 8.172 c 0.81 -0.5 1.578 -1.066 2.388 -1.606 c 0.007 -0.006 0.02 -0.006 0.034 -0.013 c -0.187 -3.46 0.09 -7.03 0.1 -10.386 c 0.007 -2.166 0.478 -4.477 0.222 -6.629 c -0.256 -2.124 -1.952 -2.844 -3.439 -3.923 a 0.725 0.725 0 0 1 -0.173 -0.021 a 4.111 4.111 0 0 1 -0.706 0.5 a 10.046 10.046 0 0 1 -1.093 0.775 a 4.052 4.052 0 0 1 0.429 0.187 A 3.34 3.34 0 0 1 51 82.9 a 8.241 8.241 0 0 1 1.066 4.663 q -0.042 2.211 -0.09 4.422 a 2.345 2.345 0 0 1 0.193 1.667 A 2.6 2.6 0 0 1 51.9 94.291 Z" stroke-linecap="round" />
</g>
		<g transform="matrix(1 0 0 1 -10.518499999999996 39.91599999999999)"  >
<path style="stroke: none; stroke-width: 1; stroke-dasharray: none; stroke-linecap: butt; stroke-dashoffset: 0; stroke-linejoin: miter; stroke-miterlimit: 4; fill: rgb(0,0,0); fill-rule: nonzero; opacity: 1;"  transform=" translate(-52.981500000000004, -103.416)" d="M 51.639 103.812 a 23.736 23.736 0 0 0 2.685 0.754 c -0.145 -0.761 -0.256 -1.522 -0.332 -2.3 C 53.217 102.8 52.456 103.335 51.639 103.812 Z" stroke-linecap="round" />
</g>
		<g transform="matrix(1 0 0 1 -6.74172215583101 36.188)"  >
<path style="stroke: none; stroke-width: 1; stroke-dasharray: none; stroke-linecap: butt; stroke-dashoffset: 0; stroke-linejoin: miter; stroke-miterlimit: 4; fill: rgb(0,0,0); fill-rule: nonzero; opacity: 1;"  transform=" translate(-56.75827784416899, -99.688)" d="M 56.033 95.917 a 55.628 55.628 0 0 0 0.187 7.508 a 3.848 3.848 0 0 1 0.415 0.034 a 0.026 0.026 0 0 1 0.007 -0.021 a 1.158 1.158 0 0 1 0.63 -0.477 C 57.583 100.747 57.991 95.993 56.033 95.917 Z" stroke-linecap="round" />
</g>
		<g transform="matrix(1 0 0 1 -24.480226045392424 21.321999999999996)"  >
<path style="stroke: none; stroke-width: 1; stroke-dasharray: none; stroke-linecap: butt; stroke-dashoffset: 0; stroke-linejoin: miter; stroke-miterlimit: 4; fill: rgb(0,0,0); fill-rule: nonzero; opacity: 1;"  transform=" translate(-39.01977395460757, -84.822)" d="M 44.208 85.088 c -1.578 -5.847 -5.279 -10.953 -11.161 -12.939 a 22.656 22.656 0 0 1 9.141 10.365 a 24.97 24.97 0 0 1 2.068 13.223 c -0.069 0.595 -0.166 1.176 -0.29 1.758 c 0.021 -0.007 0.048 -0.014 0.076 -0.021 A 22.591 22.591 0 0 0 44.208 85.088 Z" stroke-linecap="round" />
</g>
		<g transform="matrix(1 0 0 1 -32.16257372543694 25.922999999999995)"  >
<path style="stroke: none; stroke-width: 1; stroke-dasharray: none; stroke-linecap: butt; stroke-dashoffset: 0; stroke-linejoin: miter; stroke-miterlimit: 4; fill: rgb(0,0,0); fill-rule: nonzero; opacity: 1;"  transform=" translate(-31.337426274563057, -89.423)" d="M 22.038 72.315 c -0.131 0.042 -0.263 0.083 -0.387 0.125 a 24.994 24.994 0 0 1 11.022 5.791 A 22.964 22.964 0 0 1 39 91.987 c 0.533 4.615 0.906 10.22 -1.426 14.461 l -0.041 0.083 a 12.853 12.853 0 0 0 3.48 -9.334 a 33.062 33.062 0 0 0 -2.082 -11.431 C 35.932 78.037 30.176 73.408 22.038 72.315 Z" stroke-linecap="round" />
</g>
		<g transform="matrix(1 0 0 1 -29.64351316032948 20.99649999999999)"  >
<path style="stroke: none; stroke-width: 1; stroke-dasharray: none; stroke-linecap: butt; stroke-dashoffset: 0; stroke-linejoin: miter; stroke-miterlimit: 4; fill: rgb(0,0,0); fill-rule: nonzero; opacity: 1;"  transform=" translate(-33.856486839670524, -84.4965)" d="M 26.889 71.187 a 12.459 12.459 0 0 0 -1.585 0.159 c -0.228 0.063 -0.456 0.118 -0.685 0.18 a 20.572 20.572 0 0 1 15.14 12.953 a 33.467 33.467 0 0 1 2.512 13.327 a 20.632 20.632 0 0 0 -0.8 -13.79 C 38.714 77.394 33.746 72.488 26.889 71.187 Z" stroke-linecap="round" />
</g>
		<g transform="matrix(1 0 0 1 41.67100000000002 5.651820244059028)"  >
<path style="stroke: none; stroke-width: 1; stroke-dasharray: none; stroke-linecap: butt; stroke-dashoffset: 0; stroke-linejoin: miter; stroke-miterlimit: 4; fill: rgb(0,0,0); fill-rule: nonzero; opacity: 1;"  transform=" translate(-105.17100000000002, -69.15182024405902)" d="M 108.427 60.351 a 4.222 4.222 0 0 1 -2.609 2.318 a 0.92 0.92 0 0 1 -0.726 -0.048 a 1 1 0 0 1 -0.249 -0.118 a 3.239 3.239 0 0 0 -2.484 -0.387 a 77.308 77.308 0 0 1 -2.042 17.644 c 1.682 0.581 6.1 -3.176 7.715 -4.311 c 0.879 -5.632 1.253 -11.32 1.993 -16.966 A 5.212 5.212 0 0 0 108.427 60.351 Z" stroke-linecap="round" />
</g>
		<g transform="matrix(1 0 0 1 55.123 -1.7513826160153911)"  >
<path style="stroke: none; stroke-width: 1; stroke-dasharray: none; stroke-linecap: butt; stroke-dashoffset: 0; stroke-linejoin: miter; stroke-miterlimit: 4; fill: rgb(0,0,0); fill-rule: nonzero; opacity: 1;"  transform=" translate(-118.62299999999999, -61.74861738398461)" d="M 116.35 71.526 a 1.887 1.887 0 0 0 1.051 -0.221 a 0.928 0.928 0 0 1 0.028 -0.229 c 1.384 -6.248 2.574 -12.752 3.467 -19.111 c -0.457 0.138 -0.962 0.277 -1.447 0.45 C 119.166 58.9 117.623 65.181 116.35 71.526 Z" stroke-linecap="round" />
</g>
		<g transform="matrix(1 0 0 1 50.97099999999999 -1.2595000000000098)"  >
<path style="stroke: none; stroke-width: 1; stroke-dasharray: none; stroke-linecap: butt; stroke-dashoffset: 0; stroke-linejoin: miter; stroke-miterlimit: 4; fill: rgb(0,0,0); fill-rule: nonzero; opacity: 1;"  transform=" translate(-114.47099999999999, -62.24049999999999)" d="M 117.906 53.28 a 4.446 4.446 0 0 0 -1.065 2.968 a 0.919 0.919 0 0 1 -0.09 0.346 a 1.049 1.049 0 0 1 -0.478 0.664 c -0.263 0.16 -0.5 0.333 -0.754 0.519 a 0.745 0.745 0 0 1 -0.491 0.146 a 0.939 0.939 0 0 1 -0.65 0.013 a 5.9 5.9 0 0 0 -2.173 -0.242 c -0.595 4.207 -0.955 8.442 -1.432 12.663 a 20.365 20.365 0 0 0 3.314 0.865 c 0.2 0.034 0.581 0.117 1.017 0.187 c 1.218 -6.09 2.706 -12.123 3.065 -18.337 C 118.079 53.141 117.989 53.2 117.906 53.28 Z" stroke-linecap="round" />
</g>
		<g transform="matrix(1 0 0 1 -40.39369169381467 28.437407030294573)"  >
<path style="stroke: none; stroke-width: 1; stroke-dasharray: none; stroke-linecap: butt; stroke-dashoffset: 0; stroke-linejoin: miter; stroke-miterlimit: 4; fill: rgb(0,0,0); fill-rule: nonzero; opacity: 1;"  transform=" translate(-23.106308306185333, -91.93740703029457)" d="M 17.679 73.989 c -5.833 0.146 -8.725 5.82 -8.843 11.03 c -0.194 8.532 2.8 16.959 10.123 21.99 c 6.235 4.283 15.908 4.525 17.8 -4.359 c 1.647 -7.75 0.131 -17.2 -5.556 -22.952 C 27.505 76.294 22.848 73.865 17.679 73.989 Z M 34.555 102 c -2.262 6.172 -9.617 6.138 -14.579 3.273 C 12.746 101.093 8.947 90.243 13 82.542 c 1.6 -3.045 5.272 -6.532 9.112 -5.328 c 0.173 0.048 0.339 0.118 0.512 0.173 a 0.587 0.587 0 0 1 0.409 0.138 a 18.588 18.588 0 0 1 9.009 6.318 C 35.3 88.922 36.659 96.242 34.555 102 Z" stroke-linecap="round" />
</g>
		<g transform="matrix(1 0 0 1 52.16107758219879 -25.287667005200042)"  >
<path style="stroke: none; stroke-width: 1; stroke-dasharray: none; stroke-linecap: butt; stroke-dashoffset: 0; stroke-linejoin: miter; stroke-miterlimit: 4; fill: rgb(0,0,0); fill-rule: nonzero; opacity: 1;"  transform=" translate(-115.6610775821988, -38.21233299479996)" d="M 109.382 30.411 a 33.846 33.846 0 0 0 2.1 3.086 c 0.139 0.173 0.263 0.36 0.4 0.533 a 14.523 14.523 0 0 1 2.546 -0.547 a 0.629 0.629 0 0 1 0.284 0.028 a 0.6 0.6 0 0 1 0.387 0.152 a 17.237 17.237 0 0 1 6.1 12.351 c 0.132 -0.076 0.263 -0.152 0.395 -0.221 C 123.366 37.1 118.19 30.356 109.382 30.411 Z" stroke-linecap="round" />
</g>
		<g transform="matrix(1 0 0 1 22.2035 15.648499999999984)"  >
<path style="stroke: none; stroke-width: 1; stroke-dasharray: none; stroke-linecap: butt; stroke-dashoffset: 0; stroke-linejoin: miter; stroke-miterlimit: 4; fill: rgb(0,0,0); fill-rule: nonzero; opacity: 1;"  transform=" translate(-85.70349999999999, -79.14849999999998)" d="M 98.325 64.655 A 3.365 3.365 0 0 1 96.9 67.478 a 2.99 2.99 0 0 1 -2.961 0.014 c -4.366 0.021 -8.089 1.578 -9.016 6.214 a 0.867 0.867 0 0 1 -0.616 0.706 a 0.137 0.137 0 0 1 -0.035 0.027 c -0.989 0.575 -2.013 1.1 -3 1.675 a 0.955 0.955 0 0 1 -0.761 0.11 a 0.971 0.971 0 0 1 -0.837 -0.276 a 19.706 19.706 0 0 1 -1.654 -1.813 a 7.477 7.477 0 0 0 -1.571 0.657 c -0.076 2.2 0.194 5.342 -1.48 6.83 a 3.441 3.441 0 0 1 -2.8 0.761 c -0.581 0.685 -1.238 1.294 -1.882 1.93 c 1.121 3.771 0.519 7.577 0.367 11.438 c 3.771 -2.456 7.369 -5.162 11.237 -7.5 c 5.314 -3.217 10.8 -6.317 16.371 -9.05 a 1.124 1.124 0 0 1 0.969 -0.277 a 75.45 75.45 0 0 0 1.889 -16.378 A 9.4 9.4 0 0 0 98.325 64.655 Z" stroke-linecap="round" />
</g>
		<g transform="matrix(1 0 0 1 -42.3785 -14.392500000000002)"  >
<path style="stroke: none; stroke-width: 1; stroke-dasharray: none; stroke-linecap: butt; stroke-dashoffset: 0; stroke-linejoin: miter; stroke-miterlimit: 4; fill: rgb(0,0,0); fill-rule: nonzero; opacity: 1;"  transform=" translate(-21.121499999999997, -49.1075)" d="M 19.291 47.481 c 0.575 1.336 1.405 3.086 2.733 3.716 a 2.426 2.426 0 0 0 0.769 -0.657 a 0.614 0.614 0 0 1 0.152 -0.153 a 0.191 0.191 0 0 1 0.007 -0.062 c -0.907 -1.128 -1.82 -2.249 -2.8 -3.307 A 4.855 4.855 0 0 0 19.291 47.481 Z" stroke-linecap="round" />
</g>
		<g transform="matrix(1 0 0 1 2.8765000000000107 28.563999999999986)"  >
<path style="stroke: none; stroke-width: 1; stroke-dasharray: none; stroke-linecap: butt; stroke-dashoffset: 0; stroke-linejoin: miter; stroke-miterlimit: 4; fill: rgb(0,0,0); fill-rule: nonzero; opacity: 1;"  transform=" translate(-66.37650000000001, -92.064)" d="M 69.346 83.511 c 0.014 -0.021 0.014 -0.042 0.035 -0.056 c 0.5 -0.5 1.017 -0.982 1.5 -1.5 a 3.432 3.432 0 0 1 -1.356 -1.308 c -2.512 1.764 -4.608 4.069 -7.161 5.791 c -0.056 2.671 -0.319 5.328 -0.492 7.985 c 1.952 1.848 3.467 5.6 1.024 7.473 a 8.136 8.136 0 0 1 -0.2 1.585 a 12.249 12.249 0 0 0 1.9 -1.01 c 0.152 -0.948 0.256 -1.9 0.422 -2.851 a 0.82 0.82 0 0 1 0.193 -0.395 a 0.963 0.963 0 0 1 0.457 -0.484 c 1.266 -0.678 2.5 -1.411 3.709 -2.173 c 0.09 -4.165 0.927 -8.268 -0.415 -12.337 A 0.544 0.544 0 0 1 69.346 83.511 Z" stroke-linecap="round" />
</g>
		<g transform="matrix(1 0 0 1 -0.27649999999999864 17.000499999999988)"  >
<path style="stroke: none; stroke-width: 1; stroke-dasharray: none; stroke-linecap: butt; stroke-dashoffset: 0; stroke-linejoin: miter; stroke-miterlimit: 4; fill: rgb(0,0,0); fill-rule: nonzero; opacity: 1;"  transform=" translate(-63.2235, -80.50049999999999)" d="M 60.088 95.613 a 0.829 0.829 0 0 1 -0.3 -0.955 a 0.745 0.745 0 0 1 0 -0.125 c 0.186 -2.885 0.491 -5.757 0.512 -8.649 a 0.96 0.96 0 0 1 0.574 -0.9 a 1.638 1.638 0 0 1 0.2 -0.173 c 3.023 -1.972 5.369 -4.8 8.476 -6.656 a 0.97 0.97 0 0 1 1.384 0.374 a 0.884 0.884 0 0 1 0.228 0.505 a 1.631 1.631 0 0 0 1.82 1.363 c 0.719 -0.1 0.927 -0.955 1.045 -1.543 a 29.211 29.211 0 0 0 0.339 -4.186 c -4.775 -5.107 -8.477 -11.41 -12.082 -17.41 a 10.09 10.09 0 0 1 -0.3 2.145 A 6.09 6.09 0 0 1 60.1 62.13 c -1.17 1.107 -2.415 2.062 -3.82 2.062 a 3.4 3.4 0 0 1 -1.6 -0.429 a 10.428 10.428 0 0 0 -1.9 1.1 a 8.4 8.4 0 0 1 0.146 2.429 c -0.229 2.518 -0.609 5 -0.845 7.5 a 4.769 4.769 0 0 1 2.879 2.332 a 5.837 5.837 0 0 1 0.214 3.626 a 4.676 4.676 0 0 1 0.672 0.961 a 7.451 7.451 0 0 1 0.47 3.772 c 4.041 0.249 4 7.265 -0.152 7.943 a 0.518 0.518 0 0 1 -0.132 0.332 v 0.92 c 3.322 0 2.886 5.7 2.457 8.574 a 9.183 9.183 0 0 0 2 0.491 a 6.868 6.868 0 0 0 0.346 -2.463 a 0.891 0.891 0 0 1 0.768 -0.983 C 63.2 99.273 61.043 96.394 60.088 95.613 Z" stroke-linecap="round" />
</g>
		<g transform="matrix(1 0 0 1 -6.432634103173225 25.961499999999994)"  >
<path style="stroke: none; stroke-width: 1; stroke-dasharray: none; stroke-linecap: butt; stroke-dashoffset: 0; stroke-linejoin: miter; stroke-miterlimit: 4; fill: rgb(0,0,0); fill-rule: nonzero; opacity: 1;"  transform=" translate(-57.06736589682677, -89.4615)" d="M 56.213 86.742 c -0.131 1.806 -0.173 3.626 -0.187 5.439 C 58.725 91.655 58.815 87.039 56.213 86.742 Z" stroke-linecap="round" />
</g>
		<g transform="matrix(1 0 0 1 -50.21849999999999 -5.449000000000002)"  >
<path style="stroke: none; stroke-width: 1; stroke-dasharray: none; stroke-linecap: butt; stroke-dashoffset: 0; stroke-linejoin: miter; stroke-miterlimit: 4; fill: rgb(0,0,0); fill-rule: nonzero; opacity: 1;"  transform=" translate(-13.281500000000001, -58.051)" d="M 10.628 61.6 a 0.937 0.937 0 0 1 0.671 0.5 c 1.772 3.19 4.173 5.985 5.792 9.258 c 0.187 -0.062 0.367 -0.131 0.554 -0.194 c -0.879 -1.127 -2.069 -2.581 -1.543 -3.847 a 1.943 1.943 0 0 1 2.061 -1.356 a 2.981 2.981 0 0 1 1.516 0.934 a 2.891 2.891 0 0 1 0.809 -0.775 c -0.436 -0.719 -0.941 -1.439 -1.861 -1.141 a 9.031 9.031 0 0 0 -2.38 1.293 a 0.508 0.508 0 0 1 -0.651 -0.007 a 0.577 0.577 0 0 1 -0.325 -0.255 c -0.789 -1.281 -2.477 -1.9 -2.7 -3.522 a 0.626 0.626 0 0 1 0.034 -0.3 a 0.584 0.584 0 0 1 0.173 -0.436 A 42.167 42.167 0 0 1 16.8 58.331 c 1.218 -0.983 3.432 -2.221 2.927 -3.889 c -2.594 2.069 -5.473 3.771 -7.846 6.11 a 0.578 0.578 0 0 1 -0.713 0.1 a 0.565 0.565 0 0 1 -0.387 -0.187 C 9.6 59.2 8.179 57.971 7.764 56.207 a 0.6 0.6 0 0 1 0.048 -0.4 a 0.828 0.828 0 0 1 0.062 -0.159 c 0.969 -1.619 2.45 -2.8 3.661 -4.235 a 24.205 24.205 0 0 1 4.041 -4.033 a 0.488 0.488 0 0 1 0.629 -0.007 a 0.587 0.587 0 0 1 0.153 0.076 a 10.341 10.341 0 0 0 0.325 -1.3 c -0.312 -0.457 -0.561 -0.955 -0.879 -1.405 C 12.58 48.222 8.31 51.529 6.075 55.688 a 27.89 27.89 0 0 1 0.478 4.982 a 20.235 20.235 0 0 1 3.951 0.858 C 10.552 61.548 10.587 61.576 10.628 61.6 Z" stroke-linecap="round" />
</g>
		<g transform="matrix(1 0 0 1 -45.30634285752211 5.462304839194282)"  >
<path style="stroke: none; stroke-width: 1; stroke-dasharray: none; stroke-linecap: butt; stroke-dashoffset: 0; stroke-linejoin: miter; stroke-miterlimit: 4; fill: rgb(0,0,0); fill-rule: nonzero; opacity: 1;"  transform=" translate(-18.19365714247789, -68.96230483919427)" d="M 17.472 67.4 c -0.36 0.457 -0.139 0.983 0.117 1.446 a 18.824 18.824 0 0 0 1.315 1.9 c 0.028 -0.007 0.062 -0.02 0.1 -0.027 a 6.321 6.321 0 0 1 0.1 -2.609 C 18.71 67.61 17.963 66.779 17.472 67.4 Z" stroke-linecap="round" />
</g>
		<g transform="matrix(1 0 0 1 -36.825500000000005 17.466499999999996)"  >
<path style="stroke: none; stroke-width: 1; stroke-dasharray: none; stroke-linecap: butt; stroke-dashoffset: 0; stroke-linejoin: miter; stroke-miterlimit: 4; fill: rgb(0,0,0); fill-rule: nonzero; opacity: 1;"  transform=" translate(-26.67449999999999, -80.9665)" d="M 25.581 81.822 a 13.092 13.092 0 0 1 4.235 1.3 a 18.491 18.491 0 0 0 -6.283 -4.311 A 5.393 5.393 0 0 0 25.581 81.822 Z" stroke-linecap="round" />
</g>
		<g transform="matrix(1 0 0 1 -42.5378524028776 24.456000000000003)"  >
<path style="stroke: none; stroke-width: 1; stroke-dasharray: none; stroke-linecap: butt; stroke-dashoffset: 0; stroke-linejoin: miter; stroke-miterlimit: 4; fill: rgb(0,0,0); fill-rule: nonzero; opacity: 1;"  transform=" translate(-20.962147597122406, -87.956)" d="M 20.426 81.587 a 0.157 0.157 0 0 1 -0.034 -0.042 c -2.325 3.176 -0.914 10.345 2.179 12.822 c 0.049 -0.138 0.083 -0.277 0.118 -0.415 c -1.412 -3.2 -2.547 -6.56 -0.99 -9.909 A 16.445 16.445 0 0 0 20.426 81.587 Z" stroke-linecap="round" />
</g>
		<g transform="matrix(1 0 0 1 -43.847133078376764 25.45450000000001)"  >
<path style="stroke: none; stroke-width: 1; stroke-dasharray: none; stroke-linecap: butt; stroke-dashoffset: 0; stroke-linejoin: miter; stroke-miterlimit: 4; fill: rgb(0,0,0); fill-rule: nonzero; opacity: 1;"  transform=" translate(-19.652866921623236, -88.95450000000001)" d="M 18.489 93.2 a 16.153 16.153 0 0 0 2.421 4.656 c 0.4 -0.754 0.838 -1.5 1.2 -2.283 c -3.951 -2.8 -5.488 -10.96 -2.623 -14.877 c -0.284 -0.207 -0.581 -0.415 -0.851 -0.643 C 16.254 83.6 17.278 89.544 18.489 93.2 Z" stroke-linecap="round" />
</g>
		<g transform="matrix(1 0 0 1 -41.74263215346596 5.396499999999968)"  >
<path style="stroke: none; stroke-width: 1; stroke-dasharray: none; stroke-linecap: butt; stroke-dashoffset: 0; stroke-linejoin: miter; stroke-miterlimit: 4; fill: rgb(0,0,0); fill-rule: nonzero; opacity: 1;"  transform=" translate(-21.757367846534038, -68.89649999999997)" d="M 22.571 69.72 a 12.708 12.708 0 0 0 -0.263 -2.055 c -1.335 0.062 -1.467 1.343 -1.314 2.463 C 21.519 69.983 22.045 69.845 22.571 69.72 Z" stroke-linecap="round" />
</g>
		<g transform="matrix(1 0 0 1 -44.3435 -3.410999999999998)"  >
<path style="stroke: none; stroke-width: 1; stroke-dasharray: none; stroke-linecap: butt; stroke-dashoffset: 0; stroke-linejoin: miter; stroke-miterlimit: 4; fill: rgb(0,0,0); fill-rule: nonzero; opacity: 1;"  transform=" translate(-19.1565, -60.089)" d="M 19.416 63.666 c 1.121 0.173 1.681 1.114 2.242 2 h 0.014 c 0.325 -3.66 0.318 -7.334 0.664 -10.981 a 3.21 3.21 0 0 1 -1.232 -0.173 a 2.9 2.9 0 0 1 -1.273 2.913 c -1.252 1.052 -2.581 2.049 -3.854 3.1 c 0.782 1.066 1.522 2.152 2.27 3.239 A 2.915 2.915 0 0 1 19.416 63.666 Z" stroke-linecap="round" />
</g>
		<g transform="matrix(1 0 0 1 -48.0385 -0.374000000000013)"  >
<path style="stroke: none; stroke-width: 1; stroke-dasharray: none; stroke-linecap: butt; stroke-dashoffset: 0; stroke-linejoin: miter; stroke-miterlimit: 4; fill: rgb(0,0,0); fill-rule: nonzero; opacity: 1;"  transform=" translate(-15.4615, -63.12599999999999)" d="M 13.846 62.441 c 0.318 1.01 1.432 1.668 2.159 2.484 a 12.326 12.326 0 0 1 1.072 -0.671 c -0.671 -0.983 -1.349 -1.965 -2.055 -2.927 C 14.621 61.68 14.226 62.054 13.846 62.441 Z" stroke-linecap="round" />
</g>
		<g transform="matrix(1 0 0 1 -50.7665 -9.5075)"  >
<path style="stroke: none; stroke-width: 1; stroke-dasharray: none; stroke-linecap: butt; stroke-dashoffset: 0; stroke-linejoin: miter; stroke-miterlimit: 4; fill: rgb(0,0,0); fill-rule: nonzero; opacity: 1;"  transform=" translate(-12.7335, -53.9925)" d="M 16.413 49.384 c -0.021 -0.055 -0.049 -0.1 -0.069 -0.159 a 3.12 3.12 0 0 1 -0.09 -0.332 a 2.67 2.67 0 0 1 -0.339 -0.208 a 31.341 31.341 0 0 0 -3.861 4.034 a 26.877 26.877 0 0 0 -3 3.412 A 8.524 8.524 0 0 0 11.389 59.3 c 0.623 -0.582 1.274 -1.128 1.945 -1.647 c -0.644 -0.644 -1.308 -1.26 -1.9 -1.945 a 0.565 0.565 0 0 1 -0.138 -0.3 a 0.59 0.59 0 0 1 0 -0.54 C 12.33 52.615 14.482 50.865 16.413 49.384 Z" stroke-linecap="round" />
</g>
		<g transform="matrix(1 0 0 1 -41.07831902649728 29.0688300383883)"  >
<path style="stroke: none; stroke-width: 1; stroke-dasharray: none; stroke-linecap: butt; stroke-dashoffset: 0; stroke-linejoin: miter; stroke-miterlimit: 4; fill: rgb(0,0,0); fill-rule: nonzero; opacity: 1;"  transform=" translate(-22.421680973502717, -92.5688300383883)" d="M 17.292 93.523 c -1.26 -4.179 -2.311 -10.386 0.366 -14.275 c -3.861 2.263 -5.051 7.079 -4.753 11.5 c 0.477 7.01 4.449 13.638 11.846 14.946 c 3.418 0.609 5.743 -0.249 7.231 -1.944 C 25.034 104.608 19.319 100.3 17.292 93.523 Z" stroke-linecap="round" />
</g>
		<g transform="matrix(1 0 0 1 -47.56100000000001 -9.825499999999998)"  >
<path style="stroke: none; stroke-width: 1; stroke-dasharray: none; stroke-linecap: butt; stroke-dashoffset: 0; stroke-linejoin: miter; stroke-miterlimit: 4; fill: rgb(0,0,0); fill-rule: nonzero; opacity: 1;"  transform=" translate(-15.938999999999998, -53.6745)" d="M 14.337 56.892 c 1.654 -1.225 3.377 -2.381 4.968 -3.695 c -0.29 -0.319 -0.581 -0.678 -0.879 -1.066 c -0.415 -0.54 -0.934 -1.086 -1.377 -1.674 a 15.839 15.839 0 0 0 -4.476 4.649 C 13.133 55.722 13.742 56.3 14.337 56.892 Z" stroke-linecap="round" />
</g>
		<g transform="matrix(1 0 0 1 -35.55789748338617 26.478687704800414)"  >
<path style="stroke: none; stroke-width: 1; stroke-dasharray: none; stroke-linecap: butt; stroke-dashoffset: 0; stroke-linejoin: miter; stroke-miterlimit: 4; fill: rgb(0,0,0); fill-rule: nonzero; opacity: 1;"  transform=" translate(-27.94210251661383, -89.97868770480042)" d="M 29.366 93.267 a 2.033 2.033 0 0 1 -1.079 1.28 a 3.254 3.254 0 0 0 1.612 -0.173 c 2.975 -1.979 0.4 -7.584 -2.228 -8.725 a 2.053 2.053 0 0 0 -3.017 1.294 C 27.193 85.925 30.182 90.921 29.366 93.267 Z" stroke-linecap="round" />
</g>
		<g transform="matrix(1 0 0 1 -33.841499999999996 37.29507685602823)"  >
<path style="stroke: none; stroke-width: 1; stroke-dasharray: none; stroke-linecap: butt; stroke-dashoffset: 0; stroke-linejoin: miter; stroke-miterlimit: 4; fill: rgb(0,0,0); fill-rule: nonzero; opacity: 1;"  transform=" translate(-29.6585, -100.79507685602823)" d="M 25.747 101.722 a 11.741 11.741 0 0 0 7.2 0.6 a 8.9 8.9 0 0 0 0.623 -1.515 c -2.422 -0.028 -4.961 -0.374 -6.906 -1.847 A 6.909 6.909 0 0 0 25.747 101.722 Z" stroke-linecap="round" />
</g>
		<g transform="matrix(1 0 0 1 -37.16097510012 26.207353861087206)"  >
<path style="stroke: none; stroke-width: 1; stroke-dasharray: none; stroke-linecap: butt; stroke-dashoffset: 0; stroke-linejoin: miter; stroke-miterlimit: 4; fill: rgb(0,0,0); fill-rule: nonzero; opacity: 1;"  transform=" translate(-26.339024899880005, -89.7073538610872)" d="M 25.277 82.992 a 0.556 0.556 0 0 1 -0.312 -0.09 A 7.4 7.4 0 0 1 22.1 78.4 a 5.875 5.875 0 0 0 -1.689 -0.111 a 6.254 6.254 0 0 0 -0.989 0.8 a 10.938 10.938 0 0 1 1.9 1.626 a 26.744 26.744 0 0 1 1.605 3.01 a 0.587 0.587 0 0 1 -0.076 0.7 a 0.448 0.448 0 0 1 -0.042 0.159 c -1.432 2.989 -0.214 6.131 1.038 8.947 a 0.555 0.555 0 0 1 0.049 0.332 a 0.625 0.625 0 0 1 0.014 0.318 a 20.314 20.314 0 0 1 -2.139 4.7 a 12.238 12.238 0 0 0 2.817 2.263 a 6.875 6.875 0 0 1 1.861 -3.882 a 0.565 0.565 0 0 1 0.512 -0.166 a 0.529 0.529 0 0 1 0.208 0.007 c 4.878 1.01 6.8 -4.248 5.853 -8.047 c -0.159 -0.5 -0.332 -0.99 -0.512 -1.46 c -1.294 -2.775 -3.916 -4.138 -7.064 -4.553 A 0.744 0.744 0 0 1 25.277 82.992 Z m 5.217 12.482 a 0.618 0.618 0 0 1 -0.132 0.049 c -0.007 0.007 -0.013 0.013 -0.02 0.013 c -0.028 0.014 -0.049 0.014 -0.076 0.028 c -0.007 0 -0.021 0.007 -0.028 0.007 c -3 1.107 -5.294 -1 -6.394 -3.695 a 4.432 4.432 0 0 1 -0.6 -2.18 c -0.449 -2.9 0.492 -5.694 3.377 -5.542 C 31.248 84.4 34.839 92.679 30.494 95.474 Z" stroke-linecap="round" />
</g>
		<g transform="matrix(1 0 0 1 -37.11027345288014 27.32402944967901)"  >
<path style="stroke: none; stroke-width: 1; stroke-dasharray: none; stroke-linecap: butt; stroke-dashoffset: 0; stroke-linejoin: miter; stroke-miterlimit: 4; fill: rgb(0,0,0); fill-rule: nonzero; opacity: 1;"  transform=" translate(-26.389726547119857, -90.82402944967902)" d="M 25.367 92.008 a 5.869 5.869 0 0 0 0.608 0.678 c 0.326 0.318 1 0.982 1.53 0.83 a 1.213 1.213 0 0 0 0.782 -1.239 c -0.028 -1.162 -1.62 -4.559 -3.107 -4.13 a 0.637 0.637 0 0 1 -0.152 0.311 a 1.874 1.874 0 0 0 -0.54 1.169 c 0.007 0.028 0.007 0.056 0.014 0.083 A 9.857 9.857 0 0 0 25.367 92.008 Z" stroke-linecap="round" />
</g>
		<g transform="matrix(1 0 0 1 -32.33525954296309 33.22421292672242)"  >
<path style="stroke: none; stroke-width: 1; stroke-dasharray: none; stroke-linecap: butt; stroke-dashoffset: 0; stroke-linejoin: miter; stroke-miterlimit: 4; fill: rgb(0,0,0); fill-rule: nonzero; opacity: 1;"  transform=" translate(-31.16474045703691, -96.72421292672243)" d="M 28.141 98.443 a 11.745 11.745 0 0 0 5.743 1.121 a 18.773 18.773 0 0 0 0.159 -5.7 C 33.165 96.471 31.1 98.484 28.141 98.443 Z" stroke-linecap="round" />
</g>
</g>
</g>
<g transform="matrix(0.5136917301683912 0 0 0.0983373944473024 250.99999999999994 307.5848396127104)"  >
<rect style="stroke: none; stroke-width: 1; stroke-dasharray: none; stroke-linecap: butt; stroke-dashoffset: 0; stroke-linejoin: miter; stroke-miterlimit: 4; fill: rgb(34,34,34); fill-rule: evenodd; opacity: 1;"  x="-393.5" y="-393.5" rx="0" ry="0" width="787" height="787" />
</g>
<g transform="matrix(1 0 0 1 250.99315413491573 305.84712130271953)" style=""  ><path fill="#ffffff" opacity="1" d="M-62.94-10.28L-64.92-10.28L-68.96-15.94L-68.96-7.34L-72.83-7.34L-72.83-21.74L-68.96-21.74L-63.93-14.37L-58.90-21.74L-55.03-21.74L-55.03-7.34L-58.90-7.34L-58.90-15.94L-62.94-10.28Z"/><path fill="#ffffff" opacity="1" d="M-37.16-21.74L-33.29-21.74L-33.29-13.34Q-33.29-12.00-33.64-10.84Q-33.98-9.68-34.82-8.80Q-35.66-7.92-37.08-7.41Q-38.50-6.91-40.65-6.91L-40.65-6.91L-41.42-6.91Q-43.57-6.91-44.99-7.41Q-46.41-7.92-47.25-8.80Q-48.08-9.68-48.43-10.84Q-48.77-12.00-48.77-13.34L-48.77-13.34L-48.77-21.74L-44.90-21.74L-44.90-13.89Q-44.90-13.19-44.84-12.55Q-44.77-11.92-44.42-11.42Q-44.06-10.93-43.28-10.64Q-42.49-10.35-41.03-10.35L-41.03-10.35Q-39.59-10.35-38.80-10.64Q-38.00-10.93-37.65-11.42Q-37.29-11.92-37.23-12.55Q-37.16-13.19-37.16-13.89L-37.16-13.89L-37.16-21.74Z"/><path fill="#ffffff" opacity="1" d="M-11.43-15.10L-11.43-13.98Q-11.43-12.52-11.81-11.23Q-12.20-9.94-13.17-8.98Q-14.14-8.03-15.76-7.47Q-17.38-6.91-19.86-6.91L-19.86-6.91L-20.63-6.91Q-22.28-6.91-23.90-7.01Q-25.51-7.12-27.04-7.34L-27.04-7.34L-27.04-21.72Q-25.51-21.96-23.90-22.06Q-22.28-22.17-20.63-22.17L-20.63-22.17L-19.86-22.17Q-17.38-22.17-15.76-21.61Q-14.14-21.05-13.17-20.10Q-12.20-19.14-11.81-17.85Q-11.43-16.56-11.43-15.10L-11.43-15.10ZM-20.52-10.30L-20.52-10.30Q-18.59-10.30-17.54-10.62Q-16.50-10.93-16.02-11.50Q-15.53-12.07-15.46-12.84Q-15.38-13.62-15.38-14.54L-15.38-14.54Q-15.38-15.46-15.46-16.24Q-15.53-17.01-16.02-17.57Q-16.50-18.13-17.54-18.44Q-18.59-18.75-20.52-18.75L-20.52-18.75Q-21.08-18.75-21.76-18.73Q-22.44-18.71-23.17-18.67L-23.17-18.67L-23.17-10.39Q-22.44-10.35-21.76-10.33Q-21.08-10.30-20.52-10.30Z"/><path fill="#ffffff" opacity="1" d="M9.34-7.34L5.60-7.34L2.72-11.85Q1.56-11.85 0.48-11.87Q-0.59-11.90-1.62-12.07L-1.62-12.07L-1.62-7.34L-5.49-7.34L-5.49-21.74Q-3.64-21.96-1.61-22.06Q0.42-22.17 2.38-22.17L2.38-22.17L2.98-22.17Q4.78-22.17 5.97-21.80Q7.15-21.42 7.86-20.77Q8.57-20.13 8.85-19.27Q9.13-18.41 9.13-17.44L9.13-17.44L9.13-16.58Q9.13-15.23 8.59-14.12Q8.05-13.01 6.68-12.41L6.68-12.41L9.34-8.20L9.34-7.34ZM2.42-18.73L2.42-18.73Q1.67-18.73 0.56-18.69Q-0.55-18.65-1.62-18.54L-1.62-18.54L-1.62-15.49Q-0.61-15.36 0.29-15.32Q1.19-15.29 1.75-15.29L1.75-15.29Q3.04-15.29 3.75-15.41Q4.46-15.53 4.79-15.77Q5.13-16.00 5.19-16.37Q5.26-16.73 5.26-17.25L5.26-17.25Q5.26-17.53 5.21-17.80Q5.17-18.07 4.90-18.28Q4.63-18.50 4.05-18.61Q3.47-18.73 2.42-18.73Z"/><path fill="#ffffff" opacity="1" d="M15.04-13.98L15.04-15.10Q15.04-16.56 15.40-17.85Q15.77-19.14 16.68-20.10Q17.60-21.05 19.15-21.61Q20.69-22.17 23.04-22.17L23.04-22.17L23.81-22.17Q26.15-22.17 27.70-21.61Q29.25-21.05 30.16-20.10Q31.08-19.14 31.44-17.85Q31.81-16.56 31.81-15.10L31.81-15.10L31.81-13.98Q31.81-12.52 31.44-11.23Q31.08-9.94 30.16-8.98Q29.25-8.03 27.70-7.47Q26.15-6.91 23.81-6.91L23.81-6.91L23.04-6.91Q20.69-6.91 19.15-7.47Q17.60-8.03 16.68-8.98Q15.77-9.94 15.40-11.23Q15.04-12.52 15.04-13.98L15.04-13.98ZM18.91-14.54L18.91-14.54Q18.91-13.72 18.98-12.96Q19.06-12.20 19.48-11.62Q19.90-11.04 20.81-10.69Q21.73-10.35 23.42-10.35L23.42-10.35Q25.12-10.35 26.04-10.69Q26.95-11.04 27.37-11.62Q27.79-12.20 27.86-12.96Q27.94-13.72 27.94-14.54L27.94-14.54Q27.94-15.36 27.86-16.11Q27.79-16.86 27.37-17.44Q26.95-18.02 26.04-18.37Q25.12-18.71 23.42-18.71L23.42-18.71Q21.73-18.71 20.81-18.37Q19.90-18.02 19.48-17.44Q19.06-16.86 18.98-16.11Q18.91-15.36 18.91-14.54Z"/><path fill="#ffffff" opacity="1" d="M37.74-13.98L37.74-15.10Q37.74-16.56 38.11-17.85Q38.47-19.14 39.36-20.10Q40.24-21.05 41.74-21.61Q43.25-22.17 45.53-22.17L45.53-22.17L46.30-22.17Q47.76-22.17 49.14-21.99Q50.51-21.81 51.85-21.46L51.85-21.46L51.85-17.96Q51.09-18.17 50.33-18.32Q49.57-18.47 48.83-18.57Q48.08-18.67 47.41-18.71Q46.73-18.75 46.19-18.75L46.19-18.75Q44.52-18.75 43.60-18.44Q42.69-18.13 42.27-17.57Q41.85-17.01 41.77-16.24Q41.70-15.46 41.70-14.54L41.70-14.54Q41.70-13.62 41.77-12.84Q41.85-12.07 42.27-11.50Q42.69-10.93 43.60-10.62Q44.52-10.30 46.19-10.30L46.19-10.30Q46.73-10.30 47.41-10.35Q48.08-10.39 48.83-10.49Q49.57-10.58 50.33-10.74Q51.09-10.91 51.85-11.12L51.85-11.12L51.85-7.60Q50.51-7.27 49.14-7.09Q47.76-6.91 46.30-6.91L46.30-6.91L45.53-6.91Q43.25-6.91 41.74-7.47Q40.24-8.03 39.36-8.98Q38.47-9.94 38.11-11.23Q37.74-12.52 37.74-13.98L37.74-13.98Z"/><path fill="#ffffff" opacity="1" d="M57.57-21.74L61.44-21.74L61.44-16.15L68.96-16.15L68.96-21.74L72.83-21.74L72.83-7.34L68.96-7.34L68.96-12.71L61.44-12.71L61.44-7.34L57.57-7.34L57.57-21.74Z"/><path fill="#ffffff" opacity="1" d="M-96.55 17.90L-98.52 17.90L-102.57 12.25L-102.57 20.85L-106.44 20.85L-106.44 6.44L-102.57 6.44L-97.53 13.81L-92.50 6.44L-88.63 6.44L-88.63 20.85L-92.50 20.85L-92.50 12.25L-96.55 17.90Z"/><path fill="#ffffff" opacity="1" d="M-82.48 14.20L-82.48 13.08Q-82.48 11.62-82.12 10.33Q-81.75 9.04-80.84 8.08Q-79.93 7.13-78.38 6.57Q-76.83 6.01-74.49 6.01L-74.49 6.01L-73.71 6.01Q-71.37 6.01-69.82 6.57Q-68.27 7.13-67.36 8.08Q-66.45 9.04-66.08 10.33Q-65.71 11.62-65.71 13.08L-65.71 13.08L-65.71 14.20Q-65.71 15.66-66.08 16.95Q-66.45 18.24-67.36 19.20Q-68.27 20.16-69.82 20.72Q-71.37 21.28-73.71 21.28L-73.71 21.28L-74.49 21.28Q-76.83 21.28-78.38 20.72Q-79.93 20.16-80.84 19.20Q-81.75 18.24-82.12 16.95Q-82.48 15.66-82.48 14.20L-82.48 14.20ZM-78.61 13.64L-78.61 13.64Q-78.61 14.46-78.54 15.22Q-78.46 15.99-78.05 16.57Q-77.63 17.15-76.71 17.49Q-75.80 17.84-74.10 17.84L-74.10 17.84Q-72.40 17.84-71.49 17.49Q-70.57 17.15-70.15 16.57Q-69.74 15.99-69.66 15.22Q-69.58 14.46-69.58 13.64L-69.58 13.64Q-69.58 12.83-69.66 12.07Q-69.74 11.32-70.15 10.74Q-70.57 10.16-71.49 9.82Q-72.40 9.47-74.10 9.47L-74.10 9.47Q-75.80 9.47-76.71 9.82Q-77.63 10.16-78.05 10.74Q-78.46 11.32-78.54 12.07Q-78.61 12.83-78.61 13.64Z"/><path fill="#ffffff" opacity="1" d="M-50.99 20.85L-54.86 20.85L-54.86 9.88L-60.45 9.88L-60.45 6.44L-45.38 6.44L-45.38 9.88L-50.99 9.88L-50.99 20.85Z"/><path fill="#ffffff" opacity="1" d="M-40.11 14.20L-40.11 13.08Q-40.11 11.62-39.74 10.33Q-39.38 9.04-38.46 8.08Q-37.55 7.13-36.00 6.57Q-34.45 6.01-32.11 6.01L-32.11 6.01L-31.34 6.01Q-28.99 6.01-27.44 6.57Q-25.90 7.13-24.98 8.08Q-24.07 9.04-23.70 10.33Q-23.34 11.62-23.34 13.08L-23.34 13.08L-23.34 14.20Q-23.34 15.66-23.70 16.95Q-24.07 18.24-24.98 19.20Q-25.90 20.16-27.44 20.72Q-28.99 21.28-31.34 21.28L-31.34 21.28L-32.11 21.28Q-34.45 21.28-36.00 20.72Q-37.55 20.16-38.46 19.20Q-39.38 18.24-39.74 16.95Q-40.11 15.66-40.11 14.20L-40.11 14.20ZM-36.24 13.64L-36.24 13.64Q-36.24 14.46-36.16 15.22Q-36.09 15.99-35.67 16.57Q-35.25 17.15-34.34 17.49Q-33.42 17.84-31.72 17.84L-31.72 17.84Q-30.02 17.84-29.11 17.49Q-28.20 17.15-27.78 16.57Q-27.36 15.99-27.28 15.22Q-27.21 14.46-27.21 13.64L-27.21 13.64Q-27.21 12.83-27.28 12.07Q-27.36 11.32-27.78 10.74Q-28.20 10.16-29.11 9.82Q-30.02 9.47-31.72 9.47L-31.72 9.47Q-33.42 9.47-34.34 9.82Q-35.25 10.16-35.67 10.74Q-36.09 11.32-36.16 12.07Q-36.24 12.83-36.24 13.64Z"/><path fill="#ffffff" opacity="1" d="M-2.35 20.85L-6.10 20.85L-8.98 16.33Q-10.14 16.33-11.21 16.31Q-12.29 16.29-13.32 16.12L-13.32 16.12L-13.32 20.85L-17.19 20.85L-17.19 6.44Q-15.34 6.23-13.31 6.12Q-11.28 6.01-9.32 6.01L-9.32 6.01L-8.72 6.01Q-6.91 6.01-5.73 6.39Q-4.55 6.76-3.84 7.41Q-3.13 8.05-2.85 8.91Q-2.57 9.77-2.57 10.74L-2.57 10.74L-2.57 11.60Q-2.57 12.95-3.11 14.06Q-3.64 15.17-5.02 15.77L-5.02 15.77L-2.35 19.99L-2.35 20.85ZM-9.28 9.45L-9.28 9.45Q-10.03 9.45-11.14 9.49Q-12.24 9.54-13.32 9.64L-13.32 9.64L-13.32 12.70Q-12.31 12.83-11.41 12.86Q-10.50 12.89-9.94 12.89L-9.94 12.89Q-8.65 12.89-7.94 12.77Q-7.23 12.65-6.90 12.42Q-6.57 12.18-6.50 11.82Q-6.44 11.45-6.44 10.93L-6.44 10.93Q-6.44 10.65-6.48 10.39Q-6.53 10.12-6.79 9.90Q-7.06 9.69-7.64 9.57Q-8.22 9.45-9.28 9.45Z"/><path fill="#ffffff" opacity="1" d="M2.53 6.44L5.88 6.44L8.76 15.92L11.71 6.44L14.44 6.44L17.32 15.92L20.26 6.44L23.62 6.44L23.62 7.30L18.67 20.85L16.03 20.85L13.02 11.54L10.12 20.85L7.47 20.85L2.53 7.30L2.53 6.44Z"/><path fill="#ffffff" opacity="1" d="M28.41 14.20L28.41 13.08Q28.41 11.62 28.78 10.33Q29.14 9.04 30.06 8.08Q30.97 7.13 32.52 6.57Q34.07 6.01 36.41 6.01L36.41 6.01L37.18 6.01Q39.53 6.01 41.08 6.57Q42.62 7.13 43.54 8.08Q44.45 9.04 44.82 10.33Q45.18 11.62 45.18 13.08L45.18 13.08L45.18 14.20Q45.18 15.66 44.82 16.95Q44.45 18.24 43.54 19.20Q42.62 20.16 41.08 20.72Q39.53 21.28 37.18 21.28L37.18 21.28L36.41 21.28Q34.07 21.28 32.52 20.72Q30.97 20.16 30.06 19.20Q29.14 18.24 28.78 16.95Q28.41 15.66 28.41 14.20L28.41 14.20ZM32.28 13.64L32.28 13.64Q32.28 14.46 32.36 15.22Q32.43 15.99 32.85 16.57Q33.27 17.15 34.19 17.49Q35.10 17.84 36.80 17.84L36.80 17.84Q38.50 17.84 39.41 17.49Q40.32 17.15 40.74 16.57Q41.16 15.99 41.24 15.22Q41.31 14.46 41.31 13.64L41.31 13.64Q41.31 12.83 41.24 12.07Q41.16 11.32 40.74 10.74Q40.32 10.16 39.41 9.82Q38.50 9.47 36.80 9.47L36.80 9.47Q35.10 9.47 34.19 9.82Q33.27 10.16 32.85 10.74Q32.43 11.32 32.36 12.07Q32.28 12.83 32.28 13.64Z"/><path fill="#ffffff" opacity="1" d="M66.17 20.85L62.43 20.85L59.54 16.33Q58.38 16.33 57.31 16.31Q56.23 16.29 55.20 16.12L55.20 16.12L55.20 20.85L51.33 20.85L51.33 6.44Q53.18 6.23 55.21 6.12Q57.24 6.01 59.20 6.01L59.20 6.01L59.80 6.01Q61.61 6.01 62.79 6.39Q63.97 6.76 64.68 7.41Q65.39 8.05 65.67 8.91Q65.95 9.77 65.95 10.74L65.95 10.74L65.95 11.60Q65.95 12.95 65.41 14.06Q64.88 15.17 63.50 15.77L63.50 15.77L66.17 19.99L66.17 20.85ZM59.24 9.45L59.24 9.45Q58.49 9.45 57.38 9.49Q56.28 9.54 55.20 9.64L55.20 9.64L55.20 12.70Q56.21 12.83 57.11 12.86Q58.02 12.89 58.58 12.89L58.58 12.89Q59.87 12.89 60.58 12.77Q61.29 12.65 61.62 12.42Q61.95 12.18 62.02 11.82Q62.08 11.45 62.08 10.93L62.08 10.93Q62.08 10.65 62.04 10.39Q62.00 10.12 61.73 9.90Q61.46 9.69 60.88 9.57Q60.30 9.45 59.24 9.45Z"/><path fill="#FF0000" opacity="1" d="M71.69 19.99L77.00 13.64L71.69 7.30L71.69 6.44L75.50 6.44L79.26 10.96L83.04 6.44L86.83 6.44L86.83 7.30L81.52 13.64L86.83 19.99L86.83 20.85L83.04 20.85L79.26 16.35L75.50 20.85L71.69 20.85L71.69 19.99Z"/><path fill="#FF0000" opacity="1" d="M92.16 19.99L97.47 13.64L92.16 7.30L92.16 6.44L95.97 6.44L99.73 10.96L103.51 6.44L107.30 6.44L107.30 7.30L101.99 13.64L107.30 19.99L107.30 20.85L103.51 20.85L99.73 16.35L95.97 20.85L92.16 20.85L92.16 19.99Z"/></g></svg>